<svg width="38" height="30" viewBox="0 0 38 30" fill="none" xmlns="http://www.w3.org/2000/svg">
<path id="Union" fill-rule="evenodd" clip-rule="evenodd" d="M11.892 0.500001L12 0.500005H20.75L20.8581 0.500001H20.8581C23.2411 0.499957 25.1808 0.49992 26.7106 0.705592C28.3065 0.920166 29.679 1.38304 30.773 2.47703C31.7496 3.45367 32.2233 4.65222 32.4663 6.03361C33.848 6.27657 35.0468 6.75033 36.0236 7.72713C37.1176 8.82112 37.5804 10.1936 37.795 11.7895C38.0007 13.3193 38.0006 15.259 38.0006 17.642V17.7501V17.8582C38.0006 20.2412 38.0007 22.1809 37.795 23.7106C37.5804 25.3066 37.1176 26.6791 36.0236 27.7731C34.9296 28.8671 33.5571 29.3299 31.9611 29.5445C30.4314 29.7502 28.4916 29.7501 26.1086 29.7501H26.0006H17.2506H17.1426C14.7596 29.7501 12.8198 29.7502 11.29 29.5445C9.69406 29.3299 8.32162 28.8671 7.22762 27.7731C6.25097 26.7964 5.7772 25.5978 5.53421 24.2164C4.15256 23.9734 2.95381 23.4998 1.97703 22.523C0.883034 21.429 0.420164 20.0565 0.20559 18.4606C-8.2775e-05 16.9308 -4.49857e-05 14.991 1.38673e-06 12.6081V12.5V12.392C-4.49857e-05 10.009 -8.2775e-05 8.06923 0.20559 6.53946C0.420164 4.94348 0.883034 3.57103 1.97703 2.47703C3.07103 1.38304 4.44347 0.920166 6.03945 0.705592C7.56922 0.49992 9.50894 0.499957 11.8919 0.500001H11.892ZM32.75 12.3917C32.75 11.2113 32.75 10.1397 32.7251 9.17278C33.267 9.34356 33.6225 9.56868 33.9022 9.84845C34.3459 10.2921 34.6519 10.926 34.8218 12.1893C34.9974 13.4958 35.0006 15.2328 35.0006 17.7501C35.0006 20.2674 34.9974 22.0044 34.8218 23.3109C34.6519 24.5742 34.3459 25.2081 33.9022 25.6517C33.4585 26.0954 32.8247 26.4014 31.5614 26.5713C30.2549 26.7469 28.5179 26.7501 26.0006 26.7501H17.2506C14.7333 26.7501 12.9963 26.7469 11.6898 26.5713C10.4265 26.4014 9.79263 26.0954 9.34894 25.6517C9.06927 25.3721 8.8442 25.0167 8.67344 24.4751C9.64016 24.5 10.7115 24.5 11.8916 24.5H11.8916H11.8917H11.892H12H20.75H20.858C23.241 24.5001 25.1808 24.5001 26.7106 24.2944C28.3065 24.0798 29.679 23.617 30.773 22.523C31.867 21.429 32.3298 20.0565 32.5444 18.4606C32.7501 16.9308 32.75 14.991 32.75 12.608V12.5V12.392V12.3917ZM6.4392 3.67884C5.17588 3.84869 4.54204 4.15466 4.09835 4.59835C3.65466 5.04205 3.34869 5.67588 3.17884 6.9392C3.00319 8.24566 3 9.98273 3 12.5C3 15.0173 3.00319 16.7543 3.17884 18.0608C3.34869 19.3241 3.65466 19.958 4.09835 20.4017C4.54204 20.8453 5.17588 21.1513 6.4392 21.3212C7.74566 21.4968 9.48272 21.5 12 21.5H20.75C23.2673 21.5 25.0043 21.4968 26.3108 21.3212C27.5741 21.1513 28.208 20.8453 28.6517 20.4017C29.0953 19.958 29.4013 19.3241 29.5712 18.0608C29.7468 16.7543 29.75 15.0173 29.75 12.5C29.75 9.98273 29.7468 8.24566 29.5712 6.9392C29.4013 5.67588 29.0953 5.04205 28.6517 4.59835C28.208 4.15466 27.5741 3.84869 26.3108 3.67884C25.0043 3.50319 23.2673 3.5 20.75 3.5H12C9.48272 3.5 7.74566 3.50319 6.4392 3.67884ZM13.5 12.5C13.5 10.9122 14.7872 9.625 16.375 9.625C17.9628 9.625 19.25 10.9122 19.25 12.5C19.25 14.0878 17.9628 15.375 16.375 15.375C14.7872 15.375 13.5 14.0878 13.5 12.5ZM16.375 6.625C13.1303 6.625 10.5 9.25533 10.5 12.5C10.5 15.7447 13.1303 18.375 16.375 18.375C19.6197 18.375 22.25 15.7447 22.25 12.5C22.25 9.25533 19.6197 6.625 16.375 6.625ZM26 17.5C25.1716 17.5 24.5 16.8284 24.5 16V9C24.5 8.17158 25.1716 7.5 26 7.5C26.8284 7.5 27.5 8.17158 27.5 9V16C27.5 16.8284 26.8284 17.5 26 17.5ZM5.25 16C5.25 16.8284 5.92158 17.5 6.75 17.5C7.57843 17.5 8.25 16.8284 8.25 16L8.25 9C8.25 8.17158 7.57843 7.5 6.75 7.5C5.92158 7.5 5.25 8.17158 5.25 9L5.25 16Z" fill="url(#paint0_linear_1_242)"/>
<defs>
<linearGradient id="paint0_linear_1_242" x1="19.0003" y1="0.5" x2="19.0003" y2="29.7501" gradientUnits="userSpaceOnUse">
<stop stop-color="#FF7D3F"/>
<stop offset="1" stop-color="#9707FC"/>
</linearGradient>
</defs>
</svg>
