<svg width="200" height="60" viewBox="0 0 200 60" fill="none" xmlns="http://www.w3.org/2000/svg">
<g id="Group 1000004247">
<path id="Vector" d="M192.593 59.2593H7.40741C3.25926 59.2593 0 56 0 51.8519V7.40741C0 3.25926 3.25926 0 7.40741 0H192.593C196.741 0 200 3.25926 200 7.40741V51.8519C200 56 196.741 59.2593 192.593 59.2593Z" fill="black"/>
<path id="Vector_2" d="M192.593 1.18519C196 1.18519 198.815 4 198.815 7.40741V51.8519C198.815 55.2593 196 58.0741 192.593 58.0741H7.40741C4 58.0741 1.18519 55.2593 1.18519 51.8519V7.40741C1.18519 4 4 1.18519 7.40741 1.18519H192.593ZM192.593 0H7.40741C3.25926 0 0 3.40741 0 7.40741V51.8519C0 56 3.25926 59.2593 7.40741 59.2593H192.593C196.741 59.2593 200 56 200 51.8519V7.40741C200 3.40741 196.741 0 192.593 0Z" fill="#A6A6A6"/>
<path id="Vector_3" d="M70.2219 15.1111C70.2219 16.2962 69.9256 17.3333 69.1849 18.074C68.296 18.9629 67.2589 19.4074 65.9256 19.4074C64.5923 19.4074 63.5552 18.9629 62.6663 18.074C61.7774 17.1851 61.333 16.1481 61.333 14.8148C61.333 13.4814 61.7774 12.4444 62.6663 11.5555C63.5552 10.6666 64.5923 10.2222 65.9256 10.2222C66.5182 10.2222 67.1108 10.3703 67.7034 10.6666C68.296 10.9629 68.7404 11.2592 69.0367 11.7036L68.296 12.4444C67.7034 11.7036 66.9626 11.4074 65.9256 11.4074C65.0367 11.4074 64.1478 11.7036 63.5552 12.4444C62.8145 13.037 62.5182 13.9259 62.5182 14.9629C62.5182 15.9999 62.8145 16.8888 63.5552 17.4814C64.296 18.074 65.0367 18.5185 65.9256 18.5185C66.9626 18.5185 67.7034 18.2222 68.4441 17.4814C68.8886 17.037 69.1849 16.4444 69.1849 15.7037H65.9256V14.5185H70.2219V15.1111ZM77.0367 11.4074H73.0367V14.2222H76.7404V15.2592H73.0367V18.074H77.0367V19.2592H71.8515V10.3703H77.0367V11.4074ZM81.9256 19.2592H80.7404V11.4074H78.2219V10.3703H84.4441V11.4074H81.9256V19.2592ZM88.7404 19.2592V10.3703H89.9256V19.2592H88.7404ZM94.9626 19.2592H93.7774V11.4074H91.2589V10.3703H97.333V11.4074H94.8145V19.2592H94.9626ZM109.037 18.074C108.148 18.9629 107.111 19.4074 105.777 19.4074C104.444 19.4074 103.407 18.9629 102.518 18.074C101.629 17.1851 101.185 16.1481 101.185 14.8148C101.185 13.4814 101.629 12.4444 102.518 11.5555C103.407 10.6666 104.444 10.2222 105.777 10.2222C107.111 10.2222 108.148 10.6666 109.037 11.5555C109.926 12.4444 110.37 13.4814 110.37 14.8148C110.37 16.1481 109.926 17.1851 109.037 18.074ZM103.407 17.3333C104 17.9259 104.889 18.3703 105.777 18.3703C106.666 18.3703 107.555 18.074 108.148 17.3333C108.74 16.7407 109.185 15.8518 109.185 14.8148C109.185 13.7777 108.889 12.8888 108.148 12.2962C107.555 11.7036 106.666 11.2592 105.777 11.2592C104.889 11.2592 104 11.5555 103.407 12.2962C102.814 12.8888 102.37 13.7777 102.37 14.8148C102.37 15.8518 102.666 16.7407 103.407 17.3333ZM112 19.2592V10.3703H113.333L117.629 17.3333V10.3703H118.814V19.2592H117.629L113.037 11.9999V19.2592H112Z" fill="white" stroke="white" stroke-width="0.296296" stroke-miterlimit="10"/>
<path id="Vector_4" d="M100.889 32.2965C97.3333 32.2965 94.5185 34.9631 94.5185 38.6668C94.5185 42.2224 97.3333 45.0372 100.889 45.0372C104.444 45.0372 107.259 42.3705 107.259 38.6668C107.259 34.815 104.444 32.2965 100.889 32.2965ZM100.889 42.3705C98.963 42.3705 97.3333 40.7409 97.3333 38.5187C97.3333 36.2965 98.963 34.6668 100.889 34.6668C102.815 34.6668 104.444 36.1483 104.444 38.5187C104.444 40.7409 102.815 42.3705 100.889 42.3705ZM87.1111 32.2965C83.5556 32.2965 80.7407 34.9631 80.7407 38.6668C80.7407 42.2224 83.5556 45.0372 87.1111 45.0372C90.6667 45.0372 93.4815 42.3705 93.4815 38.6668C93.4815 34.815 90.6667 32.2965 87.1111 32.2965ZM87.1111 42.3705C85.1852 42.3705 83.5556 40.7409 83.5556 38.5187C83.5556 36.2965 85.1852 34.6668 87.1111 34.6668C89.037 34.6668 90.6667 36.1483 90.6667 38.5187C90.6667 40.7409 89.037 42.3705 87.1111 42.3705ZM70.6667 34.2224V36.8891H77.037C76.8889 38.3705 76.2963 39.5557 75.5556 40.2965C74.6667 41.1854 73.1852 42.2224 70.6667 42.2224C66.6667 42.2224 63.7037 39.1113 63.7037 35.1113C63.7037 31.1113 66.8148 28.0002 70.6667 28.0002C72.7407 28.0002 74.3704 28.8891 75.5556 29.9261L77.4815 28.0002C75.8518 26.5187 73.7778 25.3335 70.8148 25.3335C65.4815 25.3335 60.8889 29.7779 60.8889 35.1113C60.8889 40.4446 65.4815 44.8891 70.8148 44.8891C73.7778 44.8891 75.8519 44.0002 77.6296 42.0742C79.4074 40.2965 80 37.7779 80 35.852C80 35.2594 80 34.6668 79.8519 34.2224H70.6667ZM137.926 36.2965C137.333 34.815 135.852 32.2965 132.593 32.2965C129.333 32.2965 126.667 34.815 126.667 38.6668C126.667 42.2224 129.333 45.0372 132.889 45.0372C135.704 45.0372 137.481 43.2594 138.074 42.2224L136 40.7409C135.259 41.7779 134.37 42.5187 132.889 42.5187C131.407 42.5187 130.519 41.9261 129.778 40.5928L138.222 37.0372L137.926 36.2965ZM129.333 38.3705C129.333 36.0002 131.259 34.6668 132.593 34.6668C133.63 34.6668 134.667 35.2594 134.963 36.0002L129.333 38.3705ZM122.37 44.4446H125.185V25.9261H122.37V44.4446ZM117.926 33.6298C117.185 32.8891 116 32.1483 114.519 32.1483C111.407 32.1483 108.444 34.9631 108.444 38.5187C108.444 42.0742 111.259 44.7409 114.519 44.7409C116 44.7409 117.185 44.0002 117.778 43.2594H117.926V44.1483C117.926 46.5187 116.593 47.852 114.519 47.852C112.889 47.852 111.704 46.6668 111.407 45.6298L109.037 46.6668C109.778 48.2965 111.556 50.3705 114.667 50.3705C117.926 50.3705 120.593 48.4446 120.593 43.852V32.5928H117.926V33.6298ZM114.667 42.3705C112.741 42.3705 111.111 40.7409 111.111 38.5187C111.111 36.2965 112.741 34.6668 114.667 34.6668C116.593 34.6668 118.074 36.2965 118.074 38.5187C118.074 40.7409 116.593 42.3705 114.667 42.3705ZM150.815 25.9261H144.148V44.4446H146.963V37.4816H150.815C153.926 37.4816 156.889 35.2594 156.889 31.7039C156.889 28.1483 153.926 25.9261 150.815 25.9261ZM150.963 34.815H146.963V28.4446H150.963C153.037 28.4446 154.222 30.2224 154.222 31.5557C154.074 33.1853 152.889 34.815 150.963 34.815ZM168 32.1483C165.926 32.1483 163.852 33.0372 163.111 34.9631L165.63 36.0002C166.222 34.9631 167.111 34.6668 168.148 34.6668C169.63 34.6668 170.963 35.5557 171.111 37.0372V37.1854C170.667 36.8891 169.481 36.4446 168.296 36.4446C165.63 36.4446 162.963 37.9261 162.963 40.5928C162.963 43.1113 165.185 44.7409 167.556 44.7409C169.481 44.7409 170.37 43.852 171.111 42.9631H171.259V44.4446H173.926V37.3335C173.63 34.0742 171.111 32.1483 168 32.1483ZM167.704 42.3705C166.815 42.3705 165.481 41.9261 165.481 40.7409C165.481 39.2594 167.111 38.815 168.444 38.815C169.63 38.815 170.222 39.1113 170.963 39.4076C170.667 41.1854 169.185 42.3705 167.704 42.3705ZM183.259 32.5928L180.148 40.5928H180L176.741 32.5928H173.778L178.667 43.852L175.852 50.0742H178.667L186.222 32.5928H183.259ZM158.37 44.4446H161.185V25.9261H158.37V44.4446Z" fill="white"/>
<g id="Group">
<path id="Vector_5" d="M15.407 11.1108C14.9626 11.5553 14.8145 12.296 14.8145 13.1849V45.9257C14.8145 46.8146 15.1107 47.5553 15.5552 47.9997L15.7033 48.1479L34.0737 29.7775V29.4812L15.407 11.1108Z" fill="url(#paint0_linear_1_2196)"/>
<path id="Vector_6" d="M39.9996 35.9998L33.9256 29.9257V29.4813L39.9996 23.4072L40.1478 23.5554L47.407 27.7035C49.4811 28.8887 49.4811 30.8146 47.407 31.9998L39.9996 35.9998Z" fill="url(#paint1_linear_1_2196)"/>
<path id="Vector_7" d="M40.1478 35.8521L33.9256 29.6299L15.407 48.1484C16.1478 48.8891 17.1848 48.8891 18.5182 48.2966L40.1478 35.8521Z" fill="url(#paint2_linear_1_2196)"/>
<path id="Vector_8" d="M40.1478 23.4073L18.5182 11.111C17.1848 10.3703 16.1478 10.5184 15.407 11.2592L33.9256 29.6295L40.1478 23.4073Z" fill="url(#paint3_linear_1_2196)"/>
<path id="Vector_9" opacity="0.2" d="M39.9996 35.7036L18.5182 47.8518C17.333 48.5925 16.2959 48.4444 15.5552 47.8518L15.407 47.9999L15.5552 48.1481C16.2959 48.7407 17.333 48.8888 18.5182 48.1481L39.9996 35.7036Z" fill="black"/>
<path id="Vector_10" opacity="0.12" d="M15.407 47.8521C14.9626 47.4077 14.8145 46.6669 14.8145 45.778V45.9262C14.8145 46.8151 15.1107 47.5558 15.5552 48.0003V47.8521H15.407ZM47.407 31.5558L39.9996 35.704L40.1478 35.8521L47.407 31.704C48.4441 31.1114 48.8885 30.3706 48.8885 29.6299C48.8885 30.3706 48.2959 30.9632 47.407 31.5558Z" fill="black"/>
<path id="Vector_11" opacity="0.25" d="M18.5182 11.2592L47.407 27.7037C48.2959 28.2962 48.8885 28.8888 48.8885 29.6296C48.8885 28.8888 48.4441 28.1481 47.407 27.5555L18.5182 11.1111C16.4441 9.92587 14.8145 10.8148 14.8145 13.1851V13.3333C14.8145 11.1111 16.4441 10.074 18.5182 11.2592Z" fill="white"/>
</g>
</g>
<defs>
<linearGradient id="paint0_linear_1_2196" x1="32.2959" y1="12.9034" x2="7.43222" y2="37.7657" gradientUnits="userSpaceOnUse">
<stop stop-color="#00A0FF"/>
<stop offset="0.007" stop-color="#00A1FF"/>
<stop offset="0.26" stop-color="#00BEFF"/>
<stop offset="0.512" stop-color="#00D2FF"/>
<stop offset="0.76" stop-color="#00DFFF"/>
<stop offset="1" stop-color="#00E3FF"/>
</linearGradient>
<linearGradient id="paint1_linear_1_2196" x1="50.1241" y1="29.6309" x2="14.2767" y2="29.6309" gradientUnits="userSpaceOnUse">
<stop stop-color="#FFE000"/>
<stop offset="0.409" stop-color="#FFBD00"/>
<stop offset="0.775" stop-color="#FFA500"/>
<stop offset="1" stop-color="#FF9C00"/>
</linearGradient>
<linearGradient id="paint2_linear_1_2196" x1="36.7804" y1="33.0314" x2="3.06481" y2="66.7469" gradientUnits="userSpaceOnUse">
<stop stop-color="#FF3A44"/>
<stop offset="1" stop-color="#C31162"/>
</linearGradient>
<linearGradient id="paint3_linear_1_2196" x1="10.81" y1="0.260651" x2="25.8663" y2="15.3169" gradientUnits="userSpaceOnUse">
<stop stop-color="#32A071"/>
<stop offset="0.069" stop-color="#2DA771"/>
<stop offset="0.476" stop-color="#15CF74"/>
<stop offset="0.801" stop-color="#06E775"/>
<stop offset="1" stop-color="#00F076"/>
</linearGradient>
</defs>
</svg>
