<svg width="201" height="60" viewBox="0 0 201 60" fill="none" xmlns="http://www.w3.org/2000/svg">
<g id="Group">
<path id="Vector" d="M198.726 52.2772C198.726 53.0232 198.579 53.7619 198.293 54.4511C198.008 55.1402 197.589 55.7663 197.061 56.2936C196.533 56.8208 195.906 57.2389 195.217 57.5238C194.527 57.8088 193.788 57.9551 193.042 57.9543H7.01158C5.50379 57.9559 4.05712 57.3587 2.98971 56.294C1.92229 55.2294 1.32155 53.7845 1.31958 52.2772V7.00388C1.32154 5.49582 1.92205 4.05018 2.98926 2.98437C4.05646 1.91857 5.50311 1.31973 7.01158 1.31934H193.04C193.787 1.31934 194.526 1.46638 195.216 1.75207C195.906 2.03777 196.532 2.45651 197.06 2.98439C197.588 3.51227 198.007 4.13894 198.292 4.82861C198.578 5.51828 198.725 6.25744 198.725 7.00388L198.726 52.2772Z" fill="white"/>
<path id="Vector_2" d="M193.042 59.2749H7.01158C5.15417 59.2745 3.37277 58.5375 2.05827 57.2256C0.743765 55.9136 0.00353415 54.134 0 52.2771L0 7.00526C0.00274777 5.14742 0.74249 3.36653 2.05695 2.05325C3.37141 0.739982 5.15324 0.00156808 7.01158 0L193.04 0C194.898 0.00235052 196.68 0.741015 197.994 2.05412C199.308 3.36722 200.048 5.14766 200.052 7.00526V52.2771C200.055 56.1369 196.904 59.2749 193.042 59.2749Z" fill="#A6A6A6"/>
<path id="Vector_3" d="M198.726 52.2772C198.726 53.0232 198.579 53.7619 198.293 54.4511C198.008 55.1402 197.589 55.7663 197.061 56.2936C196.533 56.8208 195.906 57.2389 195.217 57.5238C194.527 57.8088 193.788 57.9551 193.042 57.9543H7.01158C5.50379 57.9559 4.05712 57.3587 2.98971 56.294C1.92229 55.2294 1.32155 53.7845 1.31958 52.2772V7.00388C1.32154 5.49582 1.92205 4.05018 2.98926 2.98437C4.05646 1.91857 5.50311 1.31973 7.01158 1.31934H193.04C193.787 1.31934 194.526 1.46638 195.216 1.75207C195.906 2.03777 196.532 2.45651 197.06 2.98439C197.588 3.51227 198.007 4.13894 198.292 4.82861C198.578 5.51828 198.725 6.25744 198.725 7.00388L198.726 52.2772Z" fill="black"/>
<path id="Vector_4" d="M44.6696 29.3254C44.6266 24.548 48.5824 22.2238 48.7633 22.1156C46.523 18.8502 43.0506 18.404 41.8303 18.3684C38.9139 18.0616 36.0849 20.1131 34.5993 20.1131C33.084 20.1131 30.7962 18.3981 28.3305 18.4485C25.1576 18.4974 22.1893 20.3339 20.5613 23.1858C17.2016 29.0008 19.7073 37.5462 22.9262 42.2465C24.5364 44.5499 26.4179 47.1187 28.8806 47.0283C31.29 46.9305 32.19 45.4941 35.0975 45.4941C37.9783 45.4941 38.8235 47.0283 41.3351 46.9705C43.9209 46.9305 45.5489 44.6581 47.1027 42.3354C48.9635 39.6984 49.7107 37.0985 49.7404 36.9651C49.6811 36.9443 44.7201 35.05 44.6696 29.3254ZM39.9251 15.2764C41.2209 13.6562 42.1076 11.4521 41.8615 9.21533C39.9859 9.29834 37.6403 10.5123 36.2896 12.0969C35.0945 13.4932 34.027 15.7818 34.3028 17.9341C36.4097 18.0912 38.5729 16.8713 39.9251 15.2764Z" fill="white"/>
<path id="Vector_5" d="M193.042 0H93.3983L132.427 59.2749H193.042C194.899 59.2733 196.681 58.5353 197.995 57.2227C199.31 55.9101 200.05 54.1299 200.053 52.2726V7.00526C200.05 5.14754 199.31 3.36688 197.996 2.05369C196.681 0.740499 194.9 0.00195945 193.042 0Z" fill="url(#paint0_linear_1_2186)"/>
<g id="Group_2">
<path id="Vector_6" d="M79.5678 46.6979H76.2007L74.3562 40.9036H67.9451L66.1882 46.6979H62.91L69.2632 26.9717H73.1864L79.5678 46.6979ZM73.8002 38.4727L72.1322 33.3218C71.9558 32.7956 71.6237 31.5564 71.1373 29.6057H71.078C70.8823 30.4447 70.5695 31.6839 70.141 33.3218L68.5011 38.4727H73.8002ZM95.8743 39.411C95.8743 41.8301 95.2175 43.7422 93.9024 45.1459C92.7251 46.3955 91.2617 47.0195 89.5166 47.0195C87.6321 47.0195 86.277 46.3481 85.4541 45.0022V52.4654H82.293V37.149C82.293 35.6297 82.253 34.0718 82.1759 32.4739H84.9559L85.1323 34.7285H85.1916C86.2458 33.0298 87.8456 32.1804 89.9925 32.1804C91.6709 32.1804 93.0721 32.843 94.193 34.1696C95.3124 35.4993 95.8743 37.2454 95.8743 39.411ZM92.654 39.5266C92.654 38.1422 92.3426 37.0008 91.7169 36.1011C91.0334 35.1657 90.1156 34.6973 88.9651 34.6973C88.1852 34.6973 87.4764 34.9582 86.8433 35.4726C86.2088 35.9914 85.7936 36.6688 85.5994 37.5077C85.5127 37.8215 85.4634 38.1444 85.4526 38.4697V40.8429C85.4526 41.876 85.7699 42.7491 86.4045 43.4635C87.0391 44.175 87.8634 44.5323 88.8776 44.5323C90.0682 44.5323 90.9948 44.0713 91.6576 43.1567C92.3218 42.2392 92.654 41.0296 92.654 39.5266ZM112.239 39.411C112.239 41.8301 111.582 43.7422 110.267 45.1459C109.088 46.3955 107.626 47.0195 105.879 47.0195C103.995 47.0195 102.64 46.3481 101.817 45.0022V52.4654H98.6558V37.149C98.6558 35.6297 98.6158 34.0718 98.5387 32.4739H101.319L101.495 34.7285H101.554C102.607 33.0298 104.207 32.1804 106.355 32.1804C108.032 32.1804 109.433 32.843 110.557 34.1696C111.675 35.4993 112.239 37.2454 112.239 39.411ZM109.017 39.5266C109.017 38.1422 108.704 37.0008 108.078 36.1011C107.395 35.1657 106.48 34.6973 105.329 34.6973C104.549 34.6973 103.841 34.9582 103.205 35.4726C102.57 35.9914 102.156 36.6688 101.962 37.5077C101.866 37.8991 101.814 38.2178 101.814 38.4697V40.8429C101.814 41.876 102.133 42.7491 102.764 43.4635C103.399 44.1736 104.223 44.5323 105.24 44.5323C106.432 44.5323 107.359 44.0713 108.02 43.1567C108.685 42.2392 109.017 41.0296 109.017 39.5266ZM130.535 41.1645C130.535 42.844 129.948 44.2091 128.781 45.263C127.497 46.4133 125.704 46.9899 123.406 46.9899C121.283 46.9899 119.581 46.5808 118.297 45.7611L119.028 43.1271C120.414 43.9482 121.937 44.3574 123.594 44.3574C124.787 44.3574 125.713 44.0876 126.374 43.5525C127.037 43.0159 127.372 42.2985 127.372 41.4032C127.372 40.6013 127.095 39.9298 126.551 39.3828C126.004 38.8373 125.099 38.3289 123.829 37.862C120.374 36.5739 118.645 34.6899 118.645 32.2116C118.645 30.5929 119.256 29.2677 120.475 28.2316C121.694 27.197 123.31 26.6797 125.32 26.6797C127.116 26.6797 128.612 26.9924 129.799 27.6165L129.006 30.1927C127.888 29.5879 126.627 29.2855 125.215 29.2855C124.1 29.2855 123.225 29.5598 122.6 30.1052C122.073 30.5929 121.806 31.1873 121.806 31.8929C121.806 32.6711 122.11 33.3173 122.715 33.8243C123.24 34.2912 124.198 34.7996 125.583 35.3451C127.282 36.0299 128.53 36.8274 129.329 37.7434C130.135 38.6595 130.535 39.8023 130.535 41.1645ZM141.013 34.8456H137.529V41.7515C137.529 43.508 138.142 44.384 139.373 44.384C139.938 44.384 140.407 44.3366 140.777 44.2373L140.865 46.6371C140.242 46.8698 139.422 46.9869 138.406 46.9869C137.158 46.9869 136.182 46.606 135.478 45.8441C134.777 45.0822 134.424 43.806 134.424 42.0094V34.8396H132.348V32.468H134.424V29.8636L137.529 28.9268V32.468H141.013V34.8456ZM156.703 39.4688C156.703 41.6552 156.077 43.4502 154.829 44.8539C153.522 46.2991 151.785 47.0195 149.618 47.0195C147.528 47.0195 145.866 46.3273 144.626 44.9443C143.387 43.5584 142.767 41.8123 142.767 39.706C142.767 37.5018 143.407 35.6964 144.684 34.2927C145.964 32.8875 147.686 32.1849 149.853 32.1849C151.94 32.1849 153.617 32.8786 154.886 34.263C156.099 35.606 156.703 37.3402 156.703 39.4688ZM153.426 39.5414C153.426 38.2385 153.144 37.1209 152.579 36.1855C151.917 35.0561 150.968 34.4913 149.738 34.4913C148.472 34.4913 147.501 35.0561 146.84 36.1855C146.273 37.1209 145.992 38.2578 145.992 39.6007C145.992 40.9051 146.273 42.0257 146.84 42.9581C147.523 44.0876 148.477 44.6523 149.712 44.6523C150.92 44.6523 151.868 44.0757 152.553 42.9299C153.134 41.9724 153.426 40.8473 153.426 39.5414ZM166.982 35.2532C166.653 35.1939 166.32 35.1646 165.986 35.1657C164.874 35.1657 164.014 35.5837 163.409 36.4257C162.884 37.1668 162.62 38.1036 162.62 39.2346V46.6979H159.459V36.9534C159.462 35.4602 159.431 33.9672 159.367 32.4754H162.12L162.236 35.1969H162.323C162.659 34.2616 163.183 33.5071 163.904 32.9423C164.564 32.4488 165.365 32.1816 166.189 32.1804C166.481 32.1804 166.745 32.2012 166.979 32.2382L166.982 35.2532ZM181.119 38.9129C181.127 39.3934 181.089 39.8734 181.004 40.3463H171.521C171.556 41.7515 172.016 42.8276 172.896 43.5688C173.696 44.2299 174.729 44.5619 175.998 44.5619C177.402 44.5619 178.683 44.3396 179.835 43.8904L180.331 46.0827C178.984 46.6697 177.395 46.9617 175.561 46.9617C173.355 46.9617 171.623 46.3125 170.363 45.017C169.105 43.72 168.475 41.9768 168.475 39.7934C168.475 37.65 169.061 35.8639 170.234 34.4394C171.461 32.9186 173.12 32.1582 175.208 32.1582C177.258 32.1582 178.811 32.9186 179.865 34.4394C180.7 35.6445 181.119 37.1387 181.119 38.9129ZM178.105 38.0932C178.127 37.155 177.92 36.3471 177.491 35.6638C176.944 34.7833 176.102 34.3446 174.974 34.3446C173.94 34.3446 173.098 34.7729 172.458 35.6327C171.931 36.316 171.618 37.1372 171.522 38.0903L178.105 38.0932Z" fill="white"/>
</g>
<g id="Group_3">
<path id="Vector_7" d="M67.0337 19.9979C66.1545 19.9979 65.3938 19.9549 64.7607 19.8823V10.3453C65.6462 10.2086 66.541 10.1412 67.437 10.1437C71.0621 10.1437 72.7316 11.9269 72.7316 14.8337C72.7316 18.1866 70.7596 19.9979 67.0337 19.9979ZM67.5645 11.3666C67.0752 11.3666 66.6586 11.3963 66.3131 11.4674V18.7172C66.4999 18.7469 66.8587 18.7602 67.3628 18.7602C69.7381 18.7602 71.0903 17.4084 71.0903 14.8766C71.0903 12.6191 69.8671 11.3666 67.5645 11.3666ZM77.9343 20.0706C75.8912 20.0706 74.5672 18.5453 74.5672 16.4745C74.5672 14.3163 75.9194 12.7777 78.05 12.7777C80.0634 12.7777 81.4171 14.2304 81.4171 16.3604C81.4171 18.5453 80.0219 20.0706 77.9343 20.0706ZM77.9936 13.9132C76.8712 13.9132 76.1521 14.9626 76.1521 16.4301C76.1521 17.8694 76.8861 18.9188 77.9788 18.9188C79.0715 18.9188 79.8055 17.7967 79.8055 16.4004C79.8055 14.9774 79.0864 13.9132 77.9936 13.9132ZM93.068 12.9215L90.8811 19.912H89.4562L88.5503 16.8762C88.325 16.1337 88.1375 15.3802 87.9884 14.6187H87.9587C87.8445 15.3806 87.6281 16.144 87.3982 16.8762L86.4345 19.912H84.9948L82.9369 12.9215H84.5337L85.3255 16.2448C85.5123 17.0363 85.6694 17.7834 85.7999 18.489H85.8296C85.9437 17.9005 86.1306 17.1653 86.4049 16.2596L87.3982 12.923H88.6645L89.6149 16.1885C89.8447 16.98 90.0315 17.7567 90.1768 18.4904H90.2183C90.3191 17.7715 90.4778 17.0082 90.6928 16.1885L91.5423 12.923L93.068 12.9215ZM101.119 19.912H99.5651V15.8979C99.5651 14.6617 99.0906 14.0421 98.1551 14.0421C97.2343 14.0421 96.6012 14.8337 96.6012 15.7542V19.912H95.0474V14.9196C95.0474 14.3015 95.0326 13.6389 94.9896 12.92H96.3566L96.4292 13.9991H96.4722C96.8903 13.2521 97.7384 12.7777 98.6888 12.7777C100.157 12.7777 101.12 13.8998 101.12 15.726L101.119 19.912ZM105.404 19.912H103.849V9.71387H105.404V19.912ZM111.069 20.0706C109.028 20.0706 107.702 18.5453 107.702 16.4745C107.702 14.3163 109.054 12.7777 111.183 12.7777C113.198 12.7777 114.551 14.2304 114.551 16.3604C114.552 18.5453 113.155 20.0706 111.069 20.0706ZM111.127 13.9132C110.005 13.9132 109.286 14.9626 109.286 16.4301C109.286 17.8694 110.021 18.9188 111.111 18.9188C112.205 18.9188 112.937 17.7967 112.937 16.4004C112.939 14.9774 112.221 13.9132 111.127 13.9132ZM120.677 19.912L120.564 19.1071H120.523C120.048 19.7548 119.356 20.0706 118.478 20.0706C117.225 20.0706 116.336 19.1931 116.336 18.0132C116.336 16.2878 117.832 15.3954 120.422 15.3954V15.2665C120.422 14.346 119.934 13.885 118.97 13.885C118.281 13.885 117.676 14.0584 117.144 14.4038L116.828 13.3825C117.474 12.9793 118.281 12.7777 119.228 12.7777C121.055 12.7777 121.977 13.7412 121.977 15.6697V18.2444C121.977 18.95 122.008 19.4969 122.078 19.9134L120.677 19.912ZM120.463 16.4301C118.738 16.4301 117.872 16.8481 117.872 17.8397C117.872 18.5735 118.318 18.9322 118.938 18.9322C119.728 18.9322 120.463 18.3289 120.463 17.5092V16.4301ZM129.523 19.912L129.45 18.7899H129.407C128.961 19.6377 128.21 20.0706 127.162 20.0706C125.476 20.0706 124.228 18.5883 124.228 16.5027C124.228 14.3163 125.522 12.7763 127.29 12.7763C128.225 12.7763 128.888 13.092 129.262 13.7264H129.293V9.71387H130.848V18.028C130.848 18.7039 130.864 19.3368 130.906 19.912H129.523ZM129.293 15.7986C129.293 14.8203 128.645 13.9858 127.656 13.9858C126.504 13.9858 125.8 15.0071 125.8 16.4449C125.8 17.8546 126.531 18.8195 127.625 18.8195C128.602 18.8195 129.293 17.9702 129.293 16.9637V15.7986ZM140.709 20.0706C138.668 20.0706 137.344 18.5453 137.344 16.4745C137.344 14.3163 138.696 12.7777 140.825 12.7777C142.84 12.7777 144.192 14.2304 144.192 16.3604C144.194 18.5453 142.798 20.0706 140.709 20.0706ZM140.767 13.9132C139.646 13.9132 138.927 14.9626 138.927 16.4301C138.927 17.8694 139.661 18.9188 140.752 18.9188C141.847 18.9188 142.579 17.7967 142.579 16.4004C142.582 14.9774 141.863 13.9132 140.767 13.9132ZM152.549 19.912H150.993V15.8979C150.993 14.6617 150.519 14.0421 149.583 14.0421C148.662 14.0421 148.031 14.8337 148.031 15.7542V19.912H146.476V14.9196C146.476 14.3015 146.461 13.6389 146.418 12.92H147.785L147.857 13.9991H147.9C148.317 13.2521 149.167 12.7763 150.115 12.7763C151.583 12.7763 152.549 13.8983 152.549 15.7245V19.912ZM163.003 14.0866H161.293V17.481C161.293 18.3452 161.593 18.7765 162.198 18.7765C162.472 18.7765 162.702 18.7469 162.887 18.7039L162.93 19.8838C162.629 19.9994 162.226 20.0572 161.725 20.0572C160.5 20.0572 159.768 19.3813 159.768 17.6115V14.0866H158.748V12.9215H159.768V11.6408L161.293 11.1798V12.92H163.003V14.0866ZM171.229 19.912H169.676V15.9276C169.676 14.6765 169.203 14.0436 168.266 14.0436C167.461 14.0436 166.711 14.5906 166.711 15.6978V19.912H165.159V9.71387H166.711V13.9132H166.742C167.231 13.1513 167.94 12.7763 168.845 12.7763C170.324 12.7763 171.229 13.9265 171.229 15.7542V19.912ZM179.656 16.7903H174.993C175.023 18.1139 175.899 18.861 177.197 18.861C177.886 18.861 178.521 18.7454 179.081 18.5305L179.323 19.6096C178.661 19.8971 177.883 20.0409 176.977 20.0409C174.79 20.0409 173.496 18.6594 173.496 16.5175C173.496 14.3742 174.821 12.7629 176.802 12.7629C178.589 12.7629 179.71 14.0866 179.71 16.0862C179.72 16.3222 179.702 16.5585 179.656 16.7903ZM178.231 15.683C178.231 14.6039 177.687 13.842 176.694 13.842C175.801 13.842 175.096 14.6187 174.995 15.683H178.231Z" fill="white"/>
</g>
</g>
<defs>
<linearGradient id="paint0_linear_1_2186" x1="146.724" y1="59.4323" x2="146.724" y2="-154.342" gradientUnits="userSpaceOnUse">
<stop stop-color="#1A1A1A" stop-opacity="0.1"/>
<stop offset="0.123" stop-color="#212121" stop-opacity="0.151"/>
<stop offset="0.308" stop-color="#353535" stop-opacity="0.227"/>
<stop offset="0.532" stop-color="#575757" stop-opacity="0.318"/>
<stop offset="0.783" stop-color="#858585" stop-opacity="0.421"/>
<stop offset="1" stop-color="#B3B3B3" stop-opacity="0.51"/>
</linearGradient>
</defs>
</svg>
