<svg width="40" height="40" viewBox="0 0 40 40" fill="none" xmlns="http://www.w3.org/2000/svg">
<g id="Line Duotone / Money / Wad Of Money">
<path id="Vector" d="M15 31.6667C10.3184 31.6667 7.97767 31.6667 6.29618 30.5432C5.56824 30.0568 4.94324 29.4318 4.45685 28.7038C3.33331 27.0224 3.33331 24.6816 3.33331 20C3.33331 15.3185 3.33331 12.9777 4.45685 11.2962C4.94324 10.5683 5.56824 9.9433 6.29618 9.45691C7.97767 8.33337 10.3184 8.33337 15 8.33337L25 8.33337C29.6815 8.33337 32.0223 8.33337 33.7038 9.45691C34.4317 9.9433 35.0567 10.5683 35.5431 11.2962C36.6666 12.9777 36.6666 15.3185 36.6666 20C36.6666 24.6816 36.6666 27.0224 35.5431 28.7038C35.0567 29.4318 34.4317 30.0568 33.7038 30.5432C32.0223 31.6667 29.6815 31.6667 25 31.6667H15Z" stroke="white" stroke-width="3"/>
<path id="Vector_2" d="M15 15C12.2386 15 10 17.2386 10 20C10 22.7614 12.2386 25 15 25" stroke="white" stroke-width="3"/>
<path id="Vector_3" d="M25 15C27.7614 15 30 17.2386 30 20C30 22.7614 27.7614 25 25 25" stroke="white" stroke-width="3"/>
<path id="Vector_4" d="M15 8.33337V30.8334" stroke="white" stroke-width="3" stroke-linecap="round"/>
<path id="Vector_5" d="M25 8.33337V30.8334" stroke="white" stroke-width="3" stroke-linecap="round"/>
</g>
</svg>
