<svg width="40" height="30" viewBox="0 0 40 30" fill="none" xmlns="http://www.w3.org/2000/svg">
<path id="Shape" d="M12.4999 12.5C12.4999 9.7386 14.7385 7.50002 17.4999 7.50002C20.2613 7.50002 22.4999 9.7386 22.4999 12.5C22.4999 15.2615 20.2613 17.5 17.4999 17.5C14.7385 17.5 12.4999 15.2615 12.4999 12.5ZM17.4999 10C16.1192 10 14.9999 11.1193 14.9999 12.5C14.9999 13.8807 16.1192 15 17.4999 15C18.8806 15 19.9999 13.8807 19.9999 12.5C19.9999 11.1193 18.8806 10 17.4999 10ZM3.74998 0C1.67892 0 0 1.67894 0 3.75001V21.25C0 23.3211 1.67892 25.0001 3.74998 25.0001H31.2498C33.3209 25.0001 34.9998 23.3211 34.9998 21.25V3.75001C34.9998 1.67894 33.3209 0 31.2498 0H3.74998ZM2.49999 3.75001C2.49999 3.05965 3.05963 2.50001 3.74998 2.50001H7.49996V5.00001C7.49996 6.38073 6.38067 7.50002 4.99997 7.50002L2.49999 7.50002V3.75001ZM2.49999 10L4.99997 10C7.76138 10 9.99994 7.76144 9.99994 5.00001V2.50001H24.9999V5.00001C24.9999 7.76144 27.2384 10 29.9998 10L32.4998 10V15H29.9998C27.2384 15 24.9999 17.2386 24.9999 20V22.5H9.99994V20C9.99994 17.2386 7.76138 15 4.99997 15H2.49999V10ZM27.4998 2.50001H31.2498C31.9402 2.50001 32.4998 3.05965 32.4998 3.75001V7.50002L29.9998 7.50002C28.6191 7.50002 27.4998 6.38073 27.4998 5.00001V2.50001ZM32.4998 17.5V21.25C32.4998 21.9404 31.9402 22.5 31.2498 22.5H27.4998V20C27.4998 18.6193 28.6191 17.5 29.9998 17.5H32.4998ZM7.49996 22.5H3.74998C3.05963 22.5 2.49999 21.9404 2.49999 21.25V17.5H4.99997C6.38067 17.5 7.49996 18.6193 7.49996 20V22.5ZM37.5 21.25C37.5 24.7018 34.7018 27.5 31.2501 27.5H5.21359C5.72838 28.9565 7.11742 30 8.75019 30H31.2501C36.0825 30 40 26.0825 40 21.25V8.74996C40 7.11718 38.9565 5.72813 37.5 5.21333V21.25Z" fill="white"/>
</svg>
