<svg width="34" height="28" viewBox="0 0 34 28" fill="none" xmlns="http://www.w3.org/2000/svg">
<path id="Union" fill-rule="evenodd" clip-rule="evenodd" d="M13.8479 6.29425e-05L13.7378 6.10352e-05H13.7378C10.9209 2.15767e-05 8.65483 -1.01775e-05 6.87355 0.239476C5.02598 0.487876 3.477 1.0184 2.2477 2.2477C1.0184 3.477 0.487876 5.02598 0.239476 6.87355C0.0984936 7.92217 0.0405167 9.13879 0.0166827 10.5369C0.00573615 10.61 6.30617e-05 10.6848 6.30617e-05 10.7609C6.30617e-05 10.8219 0.00369806 10.882 0.0107631 10.941C3.40532e-05 11.8057 4.70586e-05 12.737 6.10352e-05 13.7378V13.7378L6.30617e-05 13.8479L6.10352e-05 13.958V13.958C2.16959e-05 16.7749 -9.95398e-06 19.0409 0.239476 20.8222C0.487876 22.6698 1.0184 24.2188 2.2477 25.4481C3.477 26.6774 5.02598 27.2079 6.87355 27.4563C8.65482 27.6958 10.9209 27.6957 13.7377 27.6957H13.7378H13.8479H20.0218H20.1319H20.1319C22.9488 27.6957 25.2149 27.6958 26.9961 27.4563C28.8437 27.2079 30.3927 26.6774 31.622 25.4481C32.8513 24.2188 33.3818 22.6698 33.6302 20.8222C33.8697 19.0409 33.8697 16.7749 33.8696 13.958V13.8479V13.7378C33.8696 12.737 33.8696 11.8057 33.8589 10.941C33.866 10.882 33.8696 10.8219 33.8696 10.7609C33.8696 10.6848 33.8639 10.61 33.853 10.5369C33.8292 9.1388 33.7712 7.92217 33.6302 6.87355C33.3818 5.02598 32.8513 3.477 31.622 2.2477C30.3927 1.0184 28.8437 0.487876 26.9961 0.239476C25.2148 -1.01658e-05 22.9488 2.15767e-05 20.1319 6.10352e-05H20.1319L20.0218 6.29425e-05H13.8479ZM30.8163 9.26093C30.7851 8.51369 30.7355 7.8579 30.657 7.2733C30.4533 5.75839 30.0797 4.94801 29.5007 4.36902C28.9217 3.79002 28.1113 3.4164 26.5964 3.21272C25.0383 3.00325 22.9746 3.00006 20.0218 3.00006H13.8479C10.8951 3.00006 8.83136 3.00325 7.2733 3.21272C5.75839 3.4164 4.94801 3.79002 4.36902 4.36902C3.79002 4.94801 3.4164 5.75839 3.21272 7.2733C3.13413 7.8579 3.08457 8.51369 3.05333 9.26093H30.8163ZM3.00179 12.2609C3.00018 12.7597 3.00006 13.2878 3.00006 13.8479C3.00006 16.8007 3.00325 18.8644 3.21272 20.4225C3.4164 21.9374 3.79002 22.7478 4.36902 23.3267C4.94801 23.9057 5.75839 24.2794 7.2733 24.483C8.83136 24.6925 10.8951 24.6957 13.8479 24.6957H20.0218C22.9746 24.6957 25.0383 24.6925 26.5964 24.483C28.1113 24.2794 28.9217 23.9057 29.5007 23.3267C30.0797 22.7478 30.4533 21.9374 30.657 20.4225C30.8664 18.8644 30.8696 16.8007 30.8696 13.8479C30.8696 13.2878 30.8695 12.7597 30.8679 12.2609H3.00179ZM7.67397 18.5218C6.84555 18.5218 6.17397 19.1934 6.17397 20.0218C6.17397 20.8502 6.84555 21.5218 7.67397 21.5218H13.8479C14.6763 21.5218 15.3479 20.8502 15.3479 20.0218C15.3479 19.1934 14.6763 18.5218 13.8479 18.5218H7.67397ZM19.2935 20.0218C19.2935 19.1934 19.9651 18.5218 20.7935 18.5218H23.1087C23.9372 18.5218 24.6087 19.1934 24.6087 20.0218C24.6087 20.8502 23.9372 21.5218 23.1087 21.5218H20.7935C19.9651 21.5218 19.2935 20.8502 19.2935 20.0218Z" fill="url(#paint0_linear_1_250)"/>
<defs>
<linearGradient id="paint0_linear_1_250" x1="16.9348" y1="6.10352e-05" x2="16.9348" y2="27.6957" gradientUnits="userSpaceOnUse">
<stop stop-color="#FB7848"/>
<stop offset="1" stop-color="#9C0DF4"/>
</linearGradient>
</defs>
</svg>
