<svg width="38" height="36" viewBox="0 0 38 36" fill="none" xmlns="http://www.w3.org/2000/svg">
<g id="Group 1000004252">
<path id="Union" fill-rule="evenodd" clip-rule="evenodd" d="M1.75 18C1.75 8.47309 9.47309 0.75 19 0.75C28.5269 0.75 36.25 8.47309 36.25 18V22.6457C36.3313 22.6321 36.4148 22.625 36.5 22.625C37.3284 22.625 38 23.2966 38 24.125V27.625C38 28.4534 37.3284 29.125 36.5 29.125C36.4072 29.125 36.3164 29.1166 36.2282 29.1004C36.2182 29.3647 36.2034 29.6128 36.1819 29.845C36.11 30.6206 35.9535 31.3526 35.5582 32.0429C35.2982 32.4969 34.971 32.9088 34.5867 33.2629C33.9974 33.806 33.3181 34.1105 32.5839 34.333C31.8948 34.5419 31.0423 34.71 30.0482 34.906L29.9787 34.9197L29.9043 34.9344C29.2273 35.068 28.5974 35.1923 28.0702 35.2338C27.498 35.2789 26.8285 35.2498 26.182 34.8859C25.8049 34.6737 25.4756 34.3886 25.2107 34.0497C24.7642 33.4785 24.6194 32.8314 24.5577 32.2584C24.4999 31.7217 24.4999 31.0635 24.5 30.3407L24.5 30.2681V21.2281L24.5 21.1645V21.1645C24.4999 20.5504 24.4999 19.9858 24.5453 19.5197C24.5941 19.0186 24.7075 18.457 25.0524 17.9324C25.3326 17.5063 25.7083 17.1485 26.1534 16.892C26.7097 16.5714 27.2851 16.5035 27.7864 16.5001C28.2457 16.497 28.7938 16.5511 29.3764 16.6086L29.4425 16.6152L29.5121 16.622C30.5308 16.7224 31.4011 16.8082 32.109 16.9484C32.4958 17.025 32.8713 17.1242 33.2315 17.268C32.8505 9.73813 26.6246 3.75 19 3.75C11.3754 3.75 5.14947 9.73813 4.76848 17.268C5.12875 17.1242 5.5042 17.025 5.89099 16.9484C6.59889 16.8082 7.46917 16.7224 8.48786 16.622L8.55746 16.6152L8.62355 16.6086C9.20623 16.5511 9.75428 16.497 10.2136 16.5001C10.7149 16.5035 11.2903 16.5714 11.8466 16.892C12.2917 17.1485 12.6674 17.5063 12.9476 17.9324C13.2925 18.457 13.4059 19.0186 13.4547 19.5197C13.5001 19.9858 13.5001 20.5504 13.5 21.1645V21.1646L13.5 21.2281V30.2681L13.5 30.3407C13.5001 31.0635 13.5001 31.7217 13.4423 32.2584C13.3806 32.8314 13.2358 33.4785 12.7893 34.0497C12.5244 34.3886 12.1951 34.6737 11.818 34.8859C11.1715 35.2498 10.502 35.2789 9.92985 35.2338C9.40257 35.1923 8.77268 35.068 8.09573 34.9344L8.02126 34.9197L7.95183 34.906C6.95773 34.71 6.10524 34.5419 5.41609 34.333C4.6819 34.1105 4.0026 33.806 3.41326 33.2629C3.02901 32.9088 2.70176 32.4969 2.44176 32.0429C2.04653 31.3526 1.88996 30.6206 1.81808 29.845C1.79657 29.6128 1.78185 29.3647 1.77178 29.1004C1.68364 29.1166 1.5928 29.125 1.5 29.125C0.671573 29.125 0 28.4534 0 27.625V24.125C0 23.2966 0.671573 22.625 1.5 22.625C1.58518 22.625 1.6687 22.6321 1.75 22.6457V18ZM33.25 24.3483C33.25 23.1939 33.2486 22.4277 33.1956 21.8403C33.1446 21.2747 33.0549 21.0171 32.9606 20.8502C32.8154 20.5936 32.6234 20.3755 32.3996 20.2069C32.2642 20.1049 32.0467 19.9944 31.5261 19.8912C30.9789 19.7829 30.2556 19.7099 29.1482 19.6007C28.4759 19.5344 28.0884 19.4981 27.8068 19.5001C27.7102 19.5007 27.6526 19.5064 27.6226 19.5107C27.6049 19.5246 27.5873 19.5421 27.5711 19.5636C27.563 19.5908 27.5455 19.6632 27.5312 19.8104C27.5017 20.1133 27.5 20.5291 27.5 21.2281V30.2681C27.5 31.0873 27.5021 31.5808 27.5404 31.937C27.5586 32.1057 27.5805 32.1892 27.5912 32.2221C27.6003 32.2318 27.6097 32.2405 27.6191 32.2481C27.6549 32.2506 27.7225 32.2519 27.8344 32.2431C28.1659 32.217 28.621 32.1297 29.3983 31.9764C30.4811 31.7629 31.185 31.6223 31.7136 31.462C32.2132 31.3106 32.4214 31.1787 32.5537 31.0568C32.7097 30.9131 32.8454 30.7432 32.9548 30.5521C33.0531 30.3806 33.1432 30.1238 33.1947 29.5682C33.2485 28.9877 33.25 28.232 33.25 27.0883V26.75V24.3483ZM4.75 26.75V24.3483C4.75 23.1939 4.75142 22.4277 4.80441 21.8403C4.85542 21.2747 4.94506 21.0171 5.03943 20.8502C5.18457 20.5936 5.37661 20.3755 5.60042 20.2069C5.73581 20.1049 5.95326 19.9944 6.47389 19.8912C7.02112 19.7829 7.74441 19.7099 8.85184 19.6007C9.52411 19.5344 9.91159 19.4981 10.1932 19.5001C10.2898 19.5007 10.3474 19.5064 10.3774 19.5107C10.3951 19.5246 10.4127 19.5421 10.4289 19.5636C10.437 19.5908 10.4545 19.6632 10.4688 19.8104C10.4983 20.1133 10.5 20.5291 10.5 21.2281V30.2681C10.5 31.0873 10.4979 31.5808 10.4596 31.937C10.4414 32.1057 10.4195 32.1892 10.4088 32.2221C10.3997 32.2318 10.3903 32.2405 10.3809 32.2481C10.3451 32.2506 10.2775 32.2519 10.1656 32.2431C9.83411 32.217 9.37903 32.1297 8.60169 31.9764C7.51887 31.7629 6.81498 31.6223 6.28636 31.462C5.78679 31.3106 5.57859 31.1787 5.44629 31.0568C5.29032 30.9131 5.15456 30.7432 5.04515 30.5521C4.94693 30.3806 4.85677 30.1238 4.80528 29.5682C4.7515 28.9877 4.75 28.232 4.75 27.0883V26.75ZM10.4244 19.5503C10.4244 19.5502 10.4248 19.5511 10.4255 19.5531L10.4244 19.5503ZM10.4023 32.2394C10.4023 32.2393 10.4028 32.238 10.4039 32.2356C10.4029 32.2383 10.4023 32.2394 10.4023 32.2394ZM10.414 32.2443C10.4141 32.2443 10.4127 32.2446 10.4099 32.2451C10.4125 32.2444 10.4139 32.2442 10.414 32.2443ZM27.5756 19.5503L27.5745 19.5531C27.5752 19.5511 27.5756 19.5502 27.5756 19.5503ZM27.5975 32.2389C27.5976 32.2392 27.5977 32.2394 27.5977 32.2394C27.5977 32.2393 27.5972 32.238 27.5961 32.2356C27.5967 32.2373 27.5972 32.2384 27.5975 32.2389ZM27.586 32.2443C27.5861 32.2442 27.5875 32.2444 27.5901 32.2451C27.5873 32.2446 27.5859 32.2443 27.586 32.2443Z" fill="url(#paint0_linear_1_232)"/>
</g>
<defs>
<linearGradient id="paint0_linear_1_232" x1="19" y1="10.5" x2="32.5" y2="51" gradientUnits="userSpaceOnUse">
<stop stop-color="#FF7D3F"/>
<stop offset="0.953125" stop-color="#9505FF"/>
</linearGradient>
</defs>
</svg>
