<svg width="1922" height="418" viewBox="0 0 1922 418" fill="none" xmlns="http://www.w3.org/2000/svg">
<path d="M1134.8 187.789C1023.59 199.052 963.624 237.822 1008.29 257.643C1057.64 279.531 1366.22 276.206 1401.63 270.869C1437.04 265.532 1147.57 248.453 1187.07 228.313C1230.94 205.959 1451.22 205.928 1445.22 196.383C1439.33 186.991 1263.36 174.771 1134.8 187.789Z" stroke="url(#paint0_linear_286_178)" stroke-width="0.9" stroke-miterlimit="10"/>
<path d="M1099.98 185.035C969.621 194.85 913.058 241.779 970.523 263.888C1035.65 288.929 1370.9 279.647 1420.67 275.684C1463.57 272.274 1185.09 249.306 1218.38 224.97C1254.52 198.53 1453.2 194.236 1438.35 188.102C1422.4 181.526 1252.96 173.545 1099.98 185.035Z" stroke="url(#paint1_linear_286_178)" stroke-width="0.9" stroke-miterlimit="10"/>
<path d="M1065.17 182.286C915.868 190.622 862.6 245.729 932.757 270.126C1013.8 298.345 1372.91 283.008 1439.71 280.506C1488.26 278.665 1222.85 250.189 1249.66 221.614C1278.27 191.138 1459.65 182.2 1431.49 179.862C1410.47 175.722 1243.11 172.341 1065.17 182.286Z" stroke="url(#paint2_linear_286_178)" stroke-width="0.9" stroke-miterlimit="10"/>
<path d="M1030.35 179.513C862.22 186.433 812.246 249.656 895.097 276.353C992.201 307.688 1379.68 290.8 1458.85 285.309C1508.45 281.868 1260.87 251.06 1281.05 218.265C1302.31 183.752 1463.95 170.33 1424.73 171.6C1396.05 170.085 1233.23 171.176 1030.35 179.513Z" stroke="url(#paint3_linear_286_178)" stroke-width="0.9" stroke-miterlimit="10"/>
<path d="M995.527 176.777C808.637 182.298 761.958 253.606 857.224 282.616C970.419 317.092 1377.42 294.505 1477.79 290.143C1534.11 287.689 1298.77 251.974 1312.26 214.94C1326.13 176.39 1471.79 160.03 1417.76 163.361C1383.14 165.489 1223.41 170.041 995.527 176.777Z" stroke="url(#paint4_linear_286_178)" stroke-width="0.9" stroke-miterlimit="10"/>
<path d="M960.747 174.023C755.06 178.176 711.71 257.545 819.461 288.856C948.851 326.466 1375.8 291.641 1496.86 294.99C1559.6 296.714 1336.92 252.895 1343.58 211.616C1350.51 169.042 1477.1 147.872 1410.89 155.135C1369.69 159.626 1213.63 168.925 960.747 174.023Z" stroke="url(#paint5_linear_286_178)" stroke-width="0.9" stroke-miterlimit="10"/>
<path d="M925.933 171.275C701.484 174.06 661.498 261.453 781.664 295.101C927.32 335.834 1377.29 294.168 1515.87 299.781C1583.67 302.529 1375.04 253.772 1374.83 208.248C1374.62 161.625 1481.3 135.738 1404 146.853C1355.51 153.828 1203.86 167.821 925.933 171.275Z" stroke="url(#paint6_linear_286_178)" stroke-width="0.9" stroke-miterlimit="10"/>
<path d="M891.108 168.52C647.898 169.955 611.38 265.396 743.892 301.345C905.708 345.201 1379.16 296.603 1534.91 304.602C1607.94 308.35 1413.25 254.655 1406.14 204.904C1398.89 154.257 1485.21 123.701 1397.12 138.602C1341.08 148.074 1194 166.735 891.108 168.52Z" stroke="url(#paint7_linear_286_178)" stroke-width="0.9" stroke-miterlimit="10"/>
<path d="M856.29 165.766C594.318 165.858 561.095 269.323 706.126 307.59C884.173 354.568 1381.34 299.002 1553.95 309.431C1632.39 314.173 1451.5 255.557 1437.42 201.567C1423.17 146.884 1489.06 111.721 1390.26 130.351C1326.52 142.357 1184.26 165.655 856.29 165.766Z" stroke="url(#paint8_linear_286_178)" stroke-width="0.9" stroke-miterlimit="10"/>
<path d="M821.471 163.018C540.564 161.791 510.913 273.243 668.359 313.829C862.567 363.924 1383.81 301.333 1572.99 314.24C1656.98 319.97 1489.75 256.441 1468.7 198.218C1447.48 139.498 1492.98 99.7523 1383.36 122.088C1311.91 136.658 1174.44 164.588 821.471 163.018Z" stroke="url(#paint9_linear_286_178)" stroke-width="0.9" stroke-miterlimit="10"/>
<path d="M786.651 160.263C487.086 157.681 460.66 277.163 630.591 320.074C841.168 373.285 1386.61 303.658 1592.02 319.062C1681.67 325.773 1528.07 257.33 1500.02 194.874C1471.82 132.112 1496.76 87.8144 1376.49 113.837C1297.28 130.971 1164.59 163.527 786.651 160.263Z" stroke="url(#paint10_linear_286_178)" stroke-width="0.9" stroke-miterlimit="10"/>
<path d="M751.833 157.508C433.471 153.595 410.617 281.082 592.825 326.318C819.701 382.64 1389.28 305.964 1611.06 323.865C1706.4 331.57 1566.36 258.225 1531.3 191.512C1496.17 124.713 1500.61 75.8701 1369.62 105.567C1282.68 125.29 1154.74 162.465 751.833 157.508Z" stroke="url(#paint11_linear_286_178)" stroke-width="0.9" stroke-miterlimit="10"/>
<path d="M717.018 154.76C379.825 149.515 360.473 285.027 555.062 332.557C798.238 391.994 1392.24 308.264 1630.14 328.698C1731.27 337.385 1604.72 259.102 1562.62 188.181C1520.52 117.259 1504.46 63.9627 1362.76 97.31C1268.05 119.615 1144.9 161.416 717.018 154.76Z" stroke="url(#paint12_linear_286_178)" stroke-width="0.9" stroke-miterlimit="10"/>
<path d="M682.201 152.006C326.177 145.436 310.328 288.916 517.263 338.802C776.773 401.375 1395.32 310.584 1649.15 333.521C1756.13 343.195 1643.04 259.986 1593.9 184.838C1544.9 109.954 1508.35 52.0561 1355.86 89.0719C1253.41 113.947 1135.05 160.361 682.201 152.006Z" stroke="url(#paint13_linear_286_178)" stroke-width="0.9" stroke-miterlimit="10"/>
<path d="M647.376 149.252C272.521 141.356 260.729 292.763 479.594 345.047C756.097 410.613 1398.61 312.841 1668.28 338.336C1781.13 349.004 1681.5 260.869 1625.28 181.495C1569.38 102.568 1512.33 40.1428 1349.09 80.8147C1238.77 108.279 1125.13 159.318 647.376 149.252Z" stroke="url(#paint14_linear_286_178)" stroke-width="0.9" stroke-miterlimit="10"/>
<path d="M612.56 146.503C218.874 137.283 210.551 296.682 441.727 351.28C734.46 419.986 1401.7 315.086 1687.22 343.145C1806 354.801 1719.75 261.74 1656.46 178.126C1593.69 95.1506 1516.11 28.2168 1342.12 72.5326C1224.14 102.61 1115.25 158.269 612.56 146.503Z" stroke="url(#paint15_linear_286_178)" stroke-width="0.9" stroke-miterlimit="10"/>
<path d="M577.743 143.749C165.052 133.21 160.336 300.609 403.962 357.532C712.925 429.306 1404.96 317.406 1706.26 347.974C1831.11 360.63 1758.94 262.618 1687.74 174.802C1618.9 87.7656 1520 16.3351 1335.26 64.3071C1209.51 96.949 1105.33 157.227 577.743 143.749Z" stroke="url(#paint16_linear_286_178)" stroke-width="0.9" stroke-miterlimit="10"/>
<path d="M542.924 140.994C111.402 129.271 110.119 304.535 366.195 363.776C691.389 438.703 1408.29 319.687 1725.34 352.795C1855.98 366.438 1797.12 263.501 1719.06 171.458C1643.14 80.3788 1523.88 4.43947 1328.36 56.0493C1194.87 91.286 1095.27 156.355 542.924 140.994Z" stroke="url(#paint17_linear_286_178)" stroke-width="0.9" stroke-miterlimit="10"/>
<path d="M508.1 138.246C57.7466 125.167 59.9662 308.455 328.423 370.021C669.813 448.065 1411.65 321.963 1744.37 357.617C1880.97 372.254 1835.34 264.372 1750.33 168.115C1667.38 72.9933 1527.79 -7.46109 1321.48 47.7988C1180.13 85.6549 1085.38 155.276 508.1 138.246Z" stroke="url(#paint18_linear_286_178)" stroke-width="0.9" stroke-miterlimit="10"/>
<path d="M473.284 135.492C4.0996 121.064 9.71773 312.381 290.66 376.26C648.279 457.408 1415.09 324.246 1763.41 362.433C1906.02 378.07 1873.73 265.274 1781.62 164.791C1691.45 65.626 1531.13 -19.4047 1314.62 39.5604C1165.18 79.9195 1075.5 154.19 473.284 135.492Z" stroke="url(#paint19_linear_286_178)" stroke-width="0.9" stroke-miterlimit="10"/>
<path d="M438.469 132.737C-49.5472 116.941 -40.5998 316.313 252.896 382.505C626.746 466.787 1418.52 326.527 1782.45 367.23C1931.09 383.867 1911.78 266.133 1812.94 161.404C1715.87 58.2149 1535.33 -31.2818 1307.76 31.2843C1150.76 74.2874 1065.69 153.135 438.469 132.737Z" stroke="url(#paint20_linear_286_178)" stroke-width="0.9" stroke-miterlimit="10"/>
<path d="M1300.85 23.0337C1136.33 68.65 1055.7 152.024 403.647 129.989C-103.234 112.855 -90.7149 320.227 215.093 388.75C605.207 476.155 1421.95 328.809 1801.49 372.07C2108.41 407.061 1781.97 -110.374 1300.85 23.0337Z" stroke="url(#paint21_linear_286_178)" stroke-width="0.9" stroke-miterlimit="10"/>
<defs>
<linearGradient id="paint0_linear_286_178" x1="1219.38" y1="182.122" x2="1219.38" y2="274.822" gradientUnits="userSpaceOnUse">
<stop stop-color="#28262E"/>
<stop offset="1" stop-color="#453C5B" stop-opacity="0"/>
</linearGradient>
<linearGradient id="paint1_linear_286_178" x1="1193.63" y1="179.22" x2="1193.63" y2="280.684" gradientUnits="userSpaceOnUse">
<stop stop-color="#28262E"/>
<stop offset="1" stop-color="#453C5B" stop-opacity="0"/>
</linearGradient>
<linearGradient id="paint2_linear_286_178" x1="1173.92" y1="175.786" x2="1173.92" y2="286.908" gradientUnits="userSpaceOnUse">
<stop stop-color="#28262E"/>
<stop offset="1" stop-color="#453C5B" stop-opacity="0"/>
</linearGradient>
<linearGradient id="paint3_linear_286_178" x1="1160.66" y1="171.023" x2="1160.66" y2="294.793" gradientUnits="userSpaceOnUse">
<stop stop-color="#28262E"/>
<stop offset="1" stop-color="#453C5B" stop-opacity="0"/>
</linearGradient>
<linearGradient id="paint4_linear_286_178" x1="1147.86" y1="162.939" x2="1147.86" y2="301.437" gradientUnits="userSpaceOnUse">
<stop stop-color="#28262E"/>
<stop offset="1" stop-color="#453C5B" stop-opacity="0"/>
</linearGradient>
<linearGradient id="paint5_linear_286_178" x1="1135.17" y1="153.729" x2="1135.17" y2="306.474" gradientUnits="userSpaceOnUse">
<stop stop-color="#28262E"/>
<stop offset="1" stop-color="#453C5B" stop-opacity="0"/>
</linearGradient>
<linearGradient id="paint6_linear_286_178" x1="1122.35" y1="144.291" x2="1122.35" y2="313.171" gradientUnits="userSpaceOnUse">
<stop stop-color="#28262E"/>
<stop offset="1" stop-color="#453C5B" stop-opacity="0"/>
</linearGradient>
<linearGradient id="paint7_linear_286_178" x1="1109.69" y1="134.818" x2="1109.69" y2="319.929" gradientUnits="userSpaceOnUse">
<stop stop-color="#28262E"/>
<stop offset="1" stop-color="#453C5B" stop-opacity="0"/>
</linearGradient>
<linearGradient id="paint8_linear_286_178" x1="1097.18" y1="125.317" x2="1097.18" y2="326.74" gradientUnits="userSpaceOnUse">
<stop stop-color="#28262E"/>
<stop offset="1" stop-color="#453C5B" stop-opacity="0"/>
</linearGradient>
<linearGradient id="paint9_linear_286_178" x1="1084.87" y1="115.783" x2="1084.87" y2="333.575" gradientUnits="userSpaceOnUse">
<stop stop-color="#28262E"/>
<stop offset="1" stop-color="#453C5B" stop-opacity="0"/>
</linearGradient>
<linearGradient id="paint10_linear_286_178" x1="1072.82" y1="106.247" x2="1072.82" y2="340.449" gradientUnits="userSpaceOnUse">
<stop stop-color="#28262E"/>
<stop offset="1" stop-color="#453C5B" stop-opacity="0"/>
</linearGradient>
<linearGradient id="paint11_linear_286_178" x1="1061.05" y1="96.6836" x2="1061.05" y2="347.344" gradientUnits="userSpaceOnUse">
<stop stop-color="#28262E"/>
<stop offset="1" stop-color="#453C5B" stop-opacity="0"/>
</linearGradient>
<linearGradient id="paint12_linear_286_178" x1="1049.58" y1="87.125" x2="1049.58" y2="354.259" gradientUnits="userSpaceOnUse">
<stop stop-color="#28262E"/>
<stop offset="1" stop-color="#453C5B" stop-opacity="0"/>
</linearGradient>
<linearGradient id="paint13_linear_286_178" x1="1038.4" y1="77.584" x2="1038.4" y2="361.208" gradientUnits="userSpaceOnUse">
<stop stop-color="#28262E"/>
<stop offset="1" stop-color="#453C5B" stop-opacity="0"/>
</linearGradient>
<linearGradient id="paint14_linear_286_178" x1="1027.74" y1="68.0166" x2="1027.74" y2="368.101" gradientUnits="userSpaceOnUse">
<stop stop-color="#28262E"/>
<stop offset="1" stop-color="#453C5B" stop-opacity="0"/>
</linearGradient>
<linearGradient id="paint15_linear_286_178" x1="1017.19" y1="58.4238" x2="1017.19" y2="375.057" gradientUnits="userSpaceOnUse">
<stop stop-color="#28262E"/>
<stop offset="1" stop-color="#453C5B" stop-opacity="0"/>
</linearGradient>
<linearGradient id="paint16_linear_286_178" x1="1007.16" y1="48.876" x2="1007.16" y2="382.02" gradientUnits="userSpaceOnUse">
<stop stop-color="#28262E"/>
<stop offset="1" stop-color="#453C5B" stop-opacity="0"/>
</linearGradient>
<linearGradient id="paint17_linear_286_178" x1="997.317" y1="39.3037" x2="997.317" y2="389.015" gradientUnits="userSpaceOnUse">
<stop stop-color="#28262E"/>
<stop offset="1" stop-color="#453C5B" stop-opacity="0"/>
</linearGradient>
<linearGradient id="paint18_linear_286_178" x1="987.832" y1="29.7305" x2="987.832" y2="396.003" gradientUnits="userSpaceOnUse">
<stop stop-color="#28262E"/>
<stop offset="1" stop-color="#453C5B" stop-opacity="0"/>
</linearGradient>
<linearGradient id="paint19_linear_286_178" x1="978.664" y1="20.1455" x2="978.664" y2="402.987" gradientUnits="userSpaceOnUse">
<stop stop-color="#28262E"/>
<stop offset="1" stop-color="#453C5B" stop-opacity="0"/>
</linearGradient>
<linearGradient id="paint20_linear_286_178" x1="969.69" y1="10.5625" x2="969.69" y2="409.993" gradientUnits="userSpaceOnUse">
<stop stop-color="#28262E"/>
<stop offset="1" stop-color="#453C5B" stop-opacity="0"/>
</linearGradient>
<linearGradient id="paint21_linear_286_178" x1="961" y1="1" x2="961" y2="417" gradientUnits="userSpaceOnUse">
<stop stop-color="#28262E"/>
<stop offset="1" stop-color="#453C5B" stop-opacity="0"/>
</linearGradient>
</defs>
</svg>
