<svg width="41" height="28" viewBox="0 0 41 28" fill="none" xmlns="http://www.w3.org/2000/svg">
<path d="M26.647 0C34.5739 0 41 6.26801 41 14C41 21.5709 34.8389 27.7382 27.1404 27.9919L26.647 28H14.353C6.42607 28 0 21.732 0 14C0 6.4291 6.16111 0.261802 13.8596 0.00811768L14.353 0H26.647ZM26.647 3H14.353C8.12471 3 3.07565 7.92487 3.07565 14C3.07565 19.927 7.88142 24.7591 13.8995 24.9913L14.353 25H26.647C32.8753 25 37.9244 20.0751 37.9244 14C37.9244 8.07304 33.1186 3.24092 27.1005 3.00873L26.647 3ZM12.2983 8C13.1476 8 13.8361 8.67157 13.8361 9.5L13.8343 12.496L16.9117 12.4975C17.7611 12.4975 18.4496 13.1691 18.4496 13.9975C18.4496 14.8259 17.7611 15.4975 16.9117 15.4975L13.8343 15.496L13.8361 18.5C13.8361 19.3284 13.1476 20 12.2983 20C11.4489 20 10.7604 19.3284 10.7604 18.5L10.7586 15.496L7.68479 15.4975C6.83547 15.4975 6.14696 14.8259 6.14696 13.9975C6.14696 13.1691 6.83547 12.4975 7.68479 12.4975L10.7586 12.496L10.7604 9.5C10.7604 8.67157 11.4489 8 12.2983 8ZM26.1387 15C27.5542 15 28.7017 16.1193 28.7017 17.5C28.7017 18.8807 27.5542 20 26.1387 20C24.7232 20 23.5757 18.8807 23.5757 17.5C23.5757 16.1193 24.7232 15 26.1387 15ZM30.2396 8C31.6551 8 32.8026 9.11929 32.8026 10.5C32.8026 11.8807 31.6551 13 30.2396 13C28.824 13 27.6765 11.8807 27.6765 10.5C27.6765 9.11929 28.824 8 30.2396 8Z" fill="white"/>
</svg>
