<svg width="1920" height="1619" viewBox="0 0 1920 1619" fill="none" xmlns="http://www.w3.org/2000/svg">
<mask id="mask0_1_151" style="mask-type:alpha" maskUnits="userSpaceOnUse" x="0" y="0" width="1920" height="1619">
<rect width="1920" height="1619" fill="#ECEEED"/>
</mask>
<g mask="url(#mask0_1_151)">
<g opacity="0.6">
<path d="M163.827 211.241C178.056 211.241 192.554 217.504 201.026 235.154C206.992 247.508 208.633 263.051 209.975 277.854C217.947 381.894 211.094 488.112 190.138 585.354C183.015 617.228 175.05 648.392 166.273 678.725C149.955 737.424 133.071 798.287 129.85 863.077C127.254 915.57 132.326 969.885 137.248 1022.49C138.53 1036.21 139.873 1050.39 141.036 1064.34C141.364 1068.44 141.722 1072.54 142.05 1076.64L142.856 1086.66C148.822 1159.87 130.923 1226.32 119.647 1259.39C109.207 1290.02 96.3793 1312.46 83.8503 1334.21C78.3614 1343.83 72.6936 1353.73 67.3538 1364.15C58.358 1382.67 50.7486 1403.48 44.7421 1425.98C43.3518 1431.75 42.3494 1437.84 41.759 1444.09C40.4166 1454.91 39.0146 1466.06 35.3155 1472.55C32.032 1478.21 28.0624 1482.21 23.7656 1484.19C19.4687 1486.18 14.98 1486.1 10.7051 1483.94C-4.50864 1477.39 -18.1712 1452.57 -22.5861 1432.3C-25.9283 1414.54 -27.8002 1395.89 -28.1347 1377.02C-28.2838 1373.72 -28.433 1370.3 -28.5821 1366.94C-33.5639 1266.68 -54.5052 1167.1 -77.3854 1065.19L-78.161 1061.72C-99.9375 964.932 -122.46 865.013 -132.065 762.248C-137.813 702.591 -137.082 641.318 -129.918 582.223C-122.615 521.767 -107.041 466.089 -84.7835 420.872C-74.9274 400.84 -63.3443 384.182 -50.5376 371.624C-39.0817 361.365 -27.1852 353.003 -14.9792 346.63C-9.49035 343.442 -3.8225 340.14 1.60672 336.61C23.8904 322.035 43.7278 300.798 62.8792 280.245C89.8761 251.266 115.382 223.938 147.151 213.746C152.663 212.021 158.241 211.183 163.827 211.241ZM17.8048 1484.91C24.2204 1485.01 30.4157 1480.45 35.1366 1472.16C38.7759 1465.89 40.178 1455.08 41.4906 1444.09C42.0949 1437.79 43.0966 1431.65 44.4736 1425.81C50.5085 1403.28 58.137 1382.44 67.1451 1363.87C72.4848 1353.45 78.1526 1343.49 83.6713 1333.86C96.0511 1312.17 108.849 1289.8 119.26 1259.22C130.536 1226.2 148.524 1159.87 142.438 1086.88L141.633 1076.81C141.305 1072.71 140.947 1068.61 140.618 1064.51C139.455 1050.62 138.113 1036.44 136.83 1022.72C131.908 970.17 126.837 915.741 129.432 863.305C132.683 798.287 149.568 737.538 165.915 678.782C174.357 648.38 183.068 617.009 189.78 585.468C210.69 488.221 217.491 382.021 209.468 278.025C208.275 263.279 206.485 247.85 200.698 235.552C188.944 211.071 165.318 208.679 147.151 214.543C115.411 224.792 89.9358 252.12 62.9687 281.042C43.7875 301.595 23.95 322.889 1.66635 337.407C-3.7927 340.994 -9.46058 344.296 -14.9495 347.484C-27.1335 353.824 -39.0099 362.148 -50.4482 372.364C-63.2291 384.923 -74.791 401.56 -84.6343 421.555C-106.862 466.677 -122.407 522.263 -129.679 582.621C-136.843 641.639 -137.574 702.838 -131.827 762.418C-122.251 864.899 -99.7287 965.103 -77.9522 1061.78L-77.1468 1065.25C-54.2665 1166.99 -33.3252 1266.57 -28.3435 1367L-27.896 1377.13C-27.5762 1395.93 -25.7036 1414.51 -22.3475 1432.19C-17.9922 1452.34 -4.44898 1477 10.7051 1483.43C13.0329 1484.45 15.416 1484.95 17.8048 1484.91V1484.91Z" stroke="#D8DDDB"/>
<path d="M182.502 166.095C187.116 166.073 191.724 166.739 196.284 168.088C208.216 171.675 217.493 179.93 223.519 192.627C230.171 206.575 231.931 224.054 233.184 240.793C241.387 358.492 232.728 478.234 208.126 587.292C200.221 622.648 190.228 657.72 180.384 691.709C161.411 757.695 141.813 826.016 137.398 899.119C133.937 956.907 138.889 1016.74 143.662 1074.65C144.825 1088.65 146.049 1103.11 147.093 1117.46C147.451 1122.19 147.779 1126.85 148.107 1131.58C148.375 1135 148.614 1138.36 148.853 1141.71C151.142 1175.7 149.916 1210.2 145.243 1243.28C141.011 1274.01 134.715 1303.55 126.509 1331.19C115.353 1369.39 101.004 1398.83 87.1326 1427.3C82.6281 1436.58 77.9447 1446.14 73.4402 1455.76C63.5464 1477.56 55.1278 1501.64 48.3823 1527.44C46.8705 1534.15 45.7887 1541.19 45.1605 1548.39C43.7585 1560.92 42.1775 1573.9 38.1504 1581.36C34.5095 1587.91 30.0558 1592.58 25.2079 1594.94C20.36 1597.3 15.2773 1597.27 10.4375 1594.85C1.95297 1590.84 -5.90996 1583.03 -12.5025 1572.08C-18.6368 1562.61 -23.5295 1550.54 -26.7914 1536.84C-31.0572 1516.57 -31.8328 1495.16 -32.5786 1474.21C-32.7278 1470.45 -32.8471 1466.58 -33.0261 1462.82C-37.7394 1348.95 -60.7986 1237.02 -86.0355 1122.93L-88.3026 1112.68C-111.988 1005.93 -136.45 895.589 -146.711 782.462C-152.836 716.874 -152.045 649.614 -144.385 584.616C-136.537 518.123 -119.759 456.671 -95.7007 406.299C-85.1145 383.875 -72.5429 365.181 -58.5613 351.074C-45.8322 339.328 -32.5732 329.8 -18.9459 322.607C-12.7411 318.906 -6.29765 315.148 -0.122667 311.22C25.0247 294.481 47.3383 269.772 68.906 245.917C98.9755 212.667 127.374 181.24 162.963 169.056C169.416 166.953 175.955 165.962 182.502 166.095V166.095ZM137.248 899.062C141.634 825.789 161.113 757.468 180.235 691.424C189.989 657.264 200.072 622.364 207.948 587.065C232.551 478.108 241.211 358.456 233.005 240.85C231.753 224.225 230.022 206.689 223.43 192.968C217.464 180.613 208.156 172.187 196.373 168.6C185.316 165.675 174.085 166.175 163.112 170.081C127.613 182.265 99.2141 213.635 69.1744 246.885C47.5769 270.74 25.2634 295.449 0.0861709 312.245C-6.08881 316.344 -12.5323 320.158 -18.7371 323.631C-32.3364 330.876 -45.5732 340.402 -58.2928 352.098C-72.2546 366.165 -84.8068 384.821 -95.3725 407.21C-119.439 457.522 -136.236 518.913 -144.116 585.357C-151.75 650.284 -152.531 717.464 -146.413 782.974C-136.151 896.159 -111.69 1006.5 -88.0342 1113.19L-85.767 1123.44C-60.5003 1237.59 -37.441 1349.47 -32.7278 1463.51C-32.5488 1467.26 -32.4295 1471.13 -32.2803 1474.89C-31.5345 1495.56 -30.7589 1516.97 -26.5229 1537.12C-23.2709 1550.73 -18.4106 1562.71 -12.3235 1572.14C-5.77701 1583.09 2.04753 1590.9 10.4971 1594.91C15.2903 1597.32 20.326 1597.35 25.1282 1595.01C29.9304 1592.67 34.3405 1588.03 37.9415 1581.53C42.0284 1574.18 43.4901 1561.37 44.8623 1548.91C45.5004 1541.64 46.592 1534.55 48.1139 1527.78C54.8656 1501.94 63.2944 1477.82 73.2016 1455.99C77.7061 1446.25 82.3894 1436.63 86.9237 1427.52C100.765 1399.06 115.114 1369.68 126.241 1331.53C134.439 1303.87 140.735 1274.3 144.975 1243.57C149.622 1210.56 150.838 1176.13 148.554 1142.23L147.838 1132.15C147.48 1127.42 147.152 1122.7 146.794 1117.97C145.75 1103.74 144.527 1089.22 143.364 1075.16C138.591 1017.26 133.639 957.363 137.129 899.518L137.248 899.062Z" stroke="#D8DDDB"/>
<path d="M201.176 121.003C206.057 120.982 210.933 121.649 215.763 122.996C228.978 126.811 239.449 136.205 246.012 150.097C253.35 165.583 255.2 185.054 256.453 203.671C264.872 334.965 254.394 468.157 226.144 588.943C217.195 628.057 205.651 666.886 194.583 704.405C172.986 777.793 150.643 853.629 145.064 934.93C140.709 998.013 145.512 1063.43 150.135 1126.68C151.209 1141.03 152.283 1155.83 153.118 1170.41C153.476 1175.82 153.834 1181.17 154.163 1186.58C154.371 1189.94 154.58 1193.24 154.819 1196.6C160.009 1277.33 146.019 1353.51 133.37 1403.21C121.17 1451.04 105.359 1487.59 88.6242 1526.25C85.6411 1533.31 82.4492 1540.54 79.3468 1547.82C68.5737 1572.91 59.3545 1600.29 51.8725 1629.41C50.2437 1637.07 49.102 1645.08 48.4719 1653.27C46.9803 1667.5 45.4888 1682.19 40.865 1690.73C36.8703 1698.18 31.9355 1703.55 26.5374 1706.3C21.1394 1709.05 15.4605 1709.1 10.0497 1706.44C0.63211 1702.07 -8.09589 1693.44 -15.396 1681.28C-22.1874 1670.78 -27.5755 1657.35 -31.1169 1642.11C-35.7705 1619.33 -36.4566 1595.65 -37.083 1572.59C-37.083 1568.43 -37.3515 1564.16 -37.5007 1559.95C-41.9455 1432.36 -67.1227 1308.25 -94.7461 1181.74C-95.999 1176.05 -97.222 1170.35 -98.4451 1164.66C-124.04 1047.89 -150.47 927.074 -161.388 803.299C-167.917 731.806 -167.076 658.569 -158.912 587.691C-150.527 515.144 -132.556 447.898 -106.708 392.35C-95.3614 367.591 -81.7954 346.886 -66.6454 331.203C-53.2513 317.539 -37.8885 308.43 -23.0029 299.548C-16.0225 295.335 -8.83319 291.065 -1.94226 286.396C26.0689 267.38 50.8583 239.312 74.8125 212.382C107.984 174.806 139.307 139.336 178.683 125.16C186.097 122.439 193.627 121.048 201.176 121.003V121.003ZM18.4322 1707.64C22.5537 1707.74 26.6453 1706.29 30.4703 1703.36C34.2953 1700.43 37.7776 1696.07 40.7158 1690.56C45.2501 1682.19 46.682 1667.78 48.2332 1653.44C48.873 1645.21 50.0247 1637.17 51.6638 1629.47C59.1525 1600.22 68.3921 1572.73 79.1976 1547.54C82.1807 1540.25 85.4323 1532.96 88.475 1525.96C105.18 1487.3 120.961 1450.81 133.221 1402.98C145.84 1353.39 159.83 1277.33 154.64 1196.71C154.401 1193.35 154.192 1190.05 153.984 1186.69C153.655 1181.28 153.297 1175.93 152.939 1170.58C151.985 1156 150.911 1141.15 149.956 1126.8C145.333 1063.49 140.53 998.07 144.885 934.93C150.493 853.515 172.837 777.622 194.434 704.177C205.501 666.658 216.927 627.829 225.965 588.772C254.168 468.102 264.605 335.042 256.154 203.899C254.901 185.339 253.171 165.981 245.803 150.552C239.27 136.774 228.889 127.494 215.733 123.679C203.427 120.49 190.928 121.202 178.743 125.786C139.426 139.962 108.134 175.375 74.9617 212.895C51.097 240.109 26.1882 268.178 -1.823 287.193C-8.74376 291.919 -15.933 296.189 -22.9134 300.345C-37.928 308.303 -52.5271 318.88 -66.5261 331.943C-81.6302 347.659 -95.1623 368.34 -106.499 393.034C-132.317 448.459 -150.277 515.566 -158.674 587.975C-166.812 658.784 -167.643 731.941 -161.12 803.356C-150.202 927.131 -123.771 1047.83 -98.2064 1164.6L-94.5074 1181.68C-66.8841 1308.25 -41.677 1432.19 -37.2322 1560.06C-37.083 1564.28 -36.9637 1568.55 -36.8145 1572.7C-36.1583 1595.76 -35.4423 1619.56 -30.8484 1642.05C-27.3263 1657.21 -21.969 1670.56 -15.217 1680.99C-7.94972 1693.1 0.736725 1701.69 10.1093 1706.04C12.8448 1707.15 15.6357 1707.69 18.4322 1707.64V1707.64Z" stroke="#D8DDDB"/>
<path d="M220.178 73.5215C239.239 73.5215 258.272 82.1185 269.518 106.031C277.781 123.623 279.75 145.486 281.062 166.324C289.678 311.648 277.299 458.703 245.265 591.563C235.033 634.548 222.236 676.964 209.886 718.298C185.723 798.802 160.725 882.04 153.923 971.141C148.733 1039.46 153.356 1110.12 157.801 1178.67C158.796 1193.54 159.79 1208.37 160.784 1223.13L161.858 1242.03L162.365 1251.2C167.347 1338.71 153.893 1421.72 141.722 1475.92C128.06 1536.78 109.147 1584.38 89.1306 1634.76L86.6546 1640.97C75.0377 1669.22 65.0372 1699.75 56.8238 1732.06C55.0605 1740.47 53.8191 1749.24 53.1248 1758.2C51.5438 1774.48 49.903 1791.39 44.623 1801.41C40.1479 1810.03 34.5738 1816.28 28.449 1819.55C22.3241 1822.81 15.8595 1822.98 9.69108 1820.03C-11.5186 1811.37 -30.7297 1775.84 -36.3976 1747.89C-41.439 1722.55 -42.0953 1695.97 -42.7217 1670.29L-43.0797 1656.63C-47.2858 1515.83 -74.5214 1379.59 -104.501 1241.01L-109.573 1217.66C-137.106 1090.65 -165.565 959.242 -177.169 824.821C-192.085 651.287 -171.203 492.327 -118.522 377.207C-106.33 349.901 -91.6693 326.992 -75.2373 309.569C-60.5307 294.311 -43.6465 284.177 -27.329 274.384C-19.6326 269.773 -11.6678 264.99 -4.06097 259.695C26.6648 238.573 53.8706 207.145 80.1814 176.743C114.934 136.889 150.88 95.1564 194.284 78.8733C202.806 75.5173 211.477 73.7252 220.178 73.5215V73.5215ZM18.7298 1816.72C23.1724 1816.77 27.5744 1815.11 31.6741 1811.84C35.7738 1808.57 39.4875 1803.77 42.5945 1797.71C47.2779 1788.83 48.8291 1772.77 50.3207 1757.23C51.0022 1747.85 52.2536 1738.66 54.0495 1729.84C62.346 1697.26 72.4253 1666.43 84.1191 1637.89L86.595 1631.69C106.522 1581.53 125.375 1534.16 138.859 1473.87C150.791 1420.24 164.245 1338.14 159.323 1251.83L158.815 1242.66C158.457 1236.34 158.1 1230.08 157.712 1223.76C156.847 1209.01 155.892 1194.15 154.908 1179.35C150.433 1110.46 145.779 1039.23 151.03 970.458C157.891 880.389 183.008 796.696 207.32 715.793C219.641 674.743 232.408 632.271 242.581 589.513C274.411 457.507 286.727 311.406 278.199 167.007C276.946 146.966 275.066 126.015 267.31 109.504C251.56 76.0836 218.328 74.6031 194.642 83.5417C151.716 99.5971 117.589 138.995 81.4342 180.728C55.0041 211.244 27.7387 242.843 -3.3152 264.136C-10.9519 269.431 -18.9465 274.214 -26.6727 278.882C-42.8709 288.618 -59.6358 298.695 -74.1037 313.669C-90.2437 330.874 -104.632 353.475 -116.583 380.395C-168.817 494.263 -189.43 651.856 -174.634 823.796C-163.059 957.876 -134.66 1088.99 -107.186 1215.79L-102.115 1239.13C-72.0454 1378.33 -44.7204 1514.97 -40.5142 1656.57C-40.5142 1661.12 -40.2457 1665.68 -40.1264 1670.29C-39.5 1695.57 -38.8735 1721.53 -33.9813 1746.24C-28.5819 1773 -10.1166 1806.93 10.1385 1815.24C12.9674 1816.31 15.8468 1816.8 18.7298 1816.72V1816.72Z" stroke="#D8DDDB"/>
<path d="M238.404 30.7613C243.853 30.7192 249.296 31.4232 254.692 32.8678C270.592 37.2517 283.121 48.3538 290.936 65.0354C299.677 83.6528 301.675 107.11 302.869 129.542C311.665 288.036 297.508 448.098 261.941 592.3C250.575 638.929 236.465 685.16 222.833 729.91C195.985 817.929 168.212 908.91 160.188 1006.61C154.222 1080.62 158.547 1157.2 162.873 1231.38C163.738 1246.13 164.633 1261.39 165.408 1276.36C165.796 1283.65 166.184 1291.11 166.542 1298.28L166.93 1306.37C168.863 1348.18 167.86 1390.31 163.946 1431.62C160.295 1470.86 154.702 1509.35 147.241 1546.57C132.952 1617.62 111.802 1676.72 91.3978 1731.09C79.4654 1762.52 67.5331 1796.51 59.0611 1832.49C57.1983 1842.01 55.9171 1851.9 55.2428 1861.98C53.6319 1879.69 51.9614 1897.97 46.5024 1908.55C41.8083 1917.82 35.9189 1924.57 29.4258 1928.12C22.9328 1931.67 16.0649 1931.89 9.51214 1928.77C-13.219 1919.6 -33.6829 1881.57 -39.6193 1851.68C-44.959 1824.41 -45.5855 1795.6 -46.1224 1767.7C-46.1224 1762.8 -46.3014 1757.68 -46.4506 1752.73C-48.2106 1682.41 -55.3998 1607.32 -68.8535 1523.11C-80.7858 1446.88 -96.805 1369.79 -112.198 1297.88L-118.641 1268.56C-148.114 1131.46 -178.571 989.585 -190.802 844.688C-194.358 803.121 -195.985 761.035 -195.664 718.921C-195.328 676.786 -192.769 634.823 -188.028 593.667C-178.622 508.902 -158.279 429.959 -128.843 363.995C-115.984 334.549 -100.441 309.783 -82.9635 290.892C-67.1531 274.268 -48.8967 263.222 -31.207 252.519C-22.7649 247.395 -14.0244 242.1 -5.67175 236.293C28.0073 212.836 57.7188 177.935 86.5056 144.174C105.359 122.026 124.868 99.1389 145.064 80.0661C165.625 60.101 187.468 45.3625 210.035 36.2269C219.373 32.6174 228.876 30.7866 238.404 30.7613ZM19.0282 1930.36C24.1082 1930.43 29.1417 1928.51 33.82 1924.73C38.4983 1920.95 42.7227 1915.39 46.2339 1908.38C51.6333 1897.91 53.274 1879.92 54.8848 1862.1C55.5582 1851.96 56.8497 1842 58.733 1832.43C67.205 1796.45 79.2865 1762.41 91.0697 1730.98C111.504 1676.61 132.624 1617.62 146.883 1546.63C154.34 1509.42 159.933 1470.95 163.588 1431.73C167.511 1390.42 168.514 1348.3 166.572 1306.48L166.184 1298.39C165.826 1291.22 165.438 1283.76 165.05 1276.48C164.275 1261.5 163.38 1246.24 162.515 1231.5C158.189 1157.48 153.565 1080.57 159.86 1006.61C167.944 908.796 195.657 817.702 222.504 729.682C236.137 684.932 250.247 638.588 261.613 592.13C297.182 448.108 311.389 288.235 302.69 129.883C301.407 107.565 299.379 84.3361 290.757 65.6618C283.001 49.094 270.532 38.0488 254.722 33.7218C239.902 30.0903 224.867 31.2259 210.244 37.0811C187.709 46.2147 165.897 60.9336 145.362 80.8632C125.166 99.9361 105.657 122.823 86.8039 144.971C58.0171 178.732 28.2757 213.633 -5.40328 237.09C-13.7857 242.783 -22.5262 248.476 -30.9683 253.316C-48.6282 264.019 -66.7653 275.065 -82.695 291.689C-100.132 310.523 -115.636 335.234 -128.456 364.622C-157.854 430.408 -178.213 509.12 -187.7 593.667C-192.42 634.829 -194.969 676.79 -195.306 718.921C-195.622 760.995 -194.005 803.04 -190.474 844.574C-178.213 989.528 -147.756 1131.24 -118.313 1268.28C-116.165 1278.18 -114.047 1288.15 -111.929 1298.05C-96.5067 1370.02 -80.6068 1447.11 -68.5552 1523.34C-55.2506 1607.6 -47.9123 1682.76 -46.1522 1753.13C-46.0031 1758.08 -45.9136 1763.15 -45.8241 1768.1C-45.2573 1795.88 -44.6607 1824.69 -39.3508 1851.85C-33.3846 1881.63 -13.04 1919.49 9.60163 1928.6C12.7035 1929.8 15.8625 1930.39 19.0282 1930.36Z" stroke="#D8DDDB"/>
<path d="M256.989 -14.385C262.726 -14.4072 268.457 -13.6844 274.142 -12.2215C291.354 -7.5529 304.927 4.46018 313.369 22.5082C322.796 42.7198 324.914 68.0552 326.256 92.4799C335.164 264.617 319.107 438.115 279.84 594.01C267.311 644.34 251.858 694.328 236.943 742.608C207.47 837.972 177.013 936.582 167.646 1042.48C160.636 1121.84 164.931 1204.23 169.078 1283.94C169.853 1298.85 170.659 1314.22 171.375 1329.48C171.762 1337.68 172.12 1345.99 172.478 1354.02L172.806 1361.37C174.669 1405.9 173.757 1450.7 170.092 1494.82C166.645 1536.95 161.264 1578.43 154.013 1618.76C139.396 1700.07 117.112 1767.7 97.3344 1823.21C85.2529 1856.92 71.5606 1895.18 62.5815 1934.46C60.582 1944.9 59.2303 1955.76 58.5543 1966.8C56.8838 1986.22 55.1536 2006.31 49.2471 2018.04C44.1991 2028.21 37.8294 2035.64 30.7866 2039.58C23.7439 2043.52 16.2797 2043.83 9.15441 2040.47C-15.5157 2030.57 -37.6204 1989.23 -43.9445 1957.01C-49.6422 1927.46 -50.1792 1896.2 -50.6565 1865.91C-50.6565 1860.62 -50.8355 1855.1 -50.9548 1849.69C-52.6253 1773.4 -60.3217 1691.92 -74.4913 1600.66C-87.3783 1517.71 -104.322 1434.3 -120.968 1356.53C-123.493 1344.49 -126.049 1332.48 -128.634 1320.49C-160.046 1173.2 -192.562 1020.96 -205.479 865.016C-213.299 775.777 -212.287 684.531 -202.496 596.003C-192.469 505.293 -170.881 420.699 -139.642 349.707C-126.045 317.932 -109.527 291.153 -90.8983 270.683C-73.8947 252.521 -54.1467 240.508 -35.0549 228.894C-25.867 223.2 -16.3809 217.507 -7.31228 211.13C29.2007 185.453 61.2987 147.193 92.5615 110.129C112.906 85.9325 133.937 60.9385 155.743 40.0438C177.943 18.1677 201.552 1.95449 225.965 -8.17923C236.171 -12.2287 246.565 -14.3077 256.989 -14.385V-14.385ZM167.497 1042.42C176.863 936.468 207.351 837.801 236.823 742.38C251.739 694.1 267.191 644.169 279.72 593.783C318.948 438.046 334.995 264.728 326.107 92.7646C324.765 68.5108 322.677 43.1751 313.28 23.0774C304.897 5.14325 291.414 -6.81285 274.261 -11.4245C258.177 -15.2433 241.871 -13.8767 226.025 -7.38207C201.648 2.71512 178.077 18.9104 155.922 40.784C134.116 61.6218 113.085 86.6727 92.7404 110.87C61.5672 147.877 29.3499 186.193 -7.16307 211.87C-16.2615 218.304 -25.7477 224.054 -34.9356 229.691C-54.0274 241.077 -73.7157 253.318 -90.7193 271.423C-109.327 291.833 -125.825 318.556 -139.403 350.277C-170.556 421.236 -192.071 505.748 -202.048 596.345C-211.824 684.799 -212.836 775.965 -205.031 865.13C-192.114 1020.79 -159.629 1173.03 -128.217 1320.26L-120.52 1356.3C-103.994 1434.07 -86.9308 1517.54 -74.0439 1600.54C-59.8742 1691.64 -52.1779 1773.34 -50.5074 1849.69C-50.5074 1855.38 -50.2985 1860.56 -50.209 1865.91C-49.7317 1896.09 -49.1948 1927.35 -43.5269 1957.01C-37.2028 1989.29 -15.2175 2030.23 9.36316 2040.07C16.4396 2043.42 23.8546 2043.12 30.8512 2039.21C37.8477 2035.3 44.1751 2027.92 49.1874 2017.81C55.0044 2006.43 56.7346 1986.33 58.4051 1967.03C59.0807 1955.93 60.4323 1945.02 62.4323 1934.52C71.3815 1895.18 85.1336 1856.92 97.2151 1823.16C117.082 1767.7 139.336 1700.12 153.894 1618.82C161.125 1578.54 166.495 1537.12 169.943 1495.05C173.608 1450.96 174.519 1406.2 172.657 1361.71L172.329 1354.36C171.971 1346.34 171.613 1337.97 171.225 1329.82C170.509 1314.68 169.704 1299.31 168.928 1284.28C164.782 1204.57 160.486 1122.13 167.497 1042.65V1042.42Z" stroke="#D8DDDB"/>
<path d="M275.396 -61.6968C298.963 -61.6968 322.857 -51.2209 336.699 -21.8431C347.08 0.475036 349.287 28.3157 350.689 54.8469C359.819 241.146 341.869 428.642 298.813 596.744C285.091 650.945 268.326 704.633 252.098 756.614C220.09 859.095 186.978 965.106 176.358 1078.75C168.453 1163.35 172.569 1251.37 176.537 1336.49C177.253 1351.74 177.969 1367 178.625 1382.03C179.082 1392.62 179.5 1403.21 179.878 1413.8V1415.85C183.249 1501.65 177.044 1596.84 161.979 1691.01C150.047 1765.03 132.148 1834.66 104.167 1915.96L100.289 1927.35C88.1182 1962.64 75.5296 1999.14 67.0874 2036.89C65.0342 2048.03 63.6531 2059.59 62.9708 2071.33C61.2108 2092.8 59.3613 2115 52.7687 2128.27C47.2401 2139.7 40.2049 2148.09 32.3972 2152.57C24.5895 2157.05 16.2954 2157.44 8.38036 2153.71C-18.6464 2142.95 -42.7199 2097.98 -49.5511 2062.62C-55.6665 2030.45 -56.1139 1996.52 -56.5614 1963.78C-56.5614 1958.09 -56.5614 1952.06 -56.8299 1946.25C-60.2008 1764.86 -95.3117 1584.6 -130.989 1415.51C-133.953 1401.43 -136.936 1387.37 -139.939 1373.32C-173.379 1215.67 -207.953 1052.73 -221.586 886.025C-239.007 673.035 -214.217 477.012 -151.841 334.165C-137.403 299.869 -119.79 270.922 -99.8758 248.764C-81.5298 229.008 -60.2903 216.027 -39.7368 203.217C-29.833 197.125 -19.5712 190.862 -9.90596 183.916C29.3216 156.132 63.9254 114.457 97.4851 74.2044C141.157 21.7113 186.291 -32.6035 241.121 -54.7508C252.39 -59.3136 263.876 -61.6412 275.396 -61.6968V-61.6968ZM19.5669 2151.04C25.4393 2151.16 31.2589 2148.91 36.6458 2144.45C42.0328 2139.99 46.8659 2133.4 50.8297 2125.13C56.7959 2113.06 58.6155 2091.71 60.3159 2070.99C61.0273 2058.76 62.4787 2046.72 64.6413 2035.12C73.1729 1996.92 85.8212 1960.25 98.0519 1924.78L101.96 1913.4C129.732 1832.49 147.482 1763.49 159.444 1689.7C174.359 1596.16 180.654 1501.82 177.342 1416.42V1414.37C176.925 1403.78 176.497 1393.19 176.06 1382.6C175.403 1367.4 174.687 1352.2 174.001 1337.06C170.004 1251.65 165.887 1163.24 173.822 1078.01C184.531 963.398 217.763 856.989 249.921 754.109C266.119 702.242 282.735 648.611 296.516 594.694C339.278 427.518 357.092 241.095 348.005 55.8717C346.662 30.1376 344.544 3.26476 334.67 -18.1424C314.654 -61.1844 272.025 -62.0953 241.837 -49.7976C187.365 -27.8211 142.619 26.2091 99.0661 78.6452C65.4467 119.068 30.7237 160.858 -8.74251 188.812C-18.5867 195.815 -28.8485 202.078 -38.7822 208.17C-59.2163 220.695 -80.3366 233.619 -98.4439 253.091C-118.081 274.942 -135.46 303.46 -149.723 337.239C-211.592 479.004 -236.233 673.548 -218.871 885.057C-205.298 1051.19 -170.784 1213.85 -137.403 1371.22L-128.454 1413.4C-92.6567 1582.9 -57.4861 1763.66 -54.1153 1945.91C-54.1153 1951.6 -53.9363 1957.29 -53.8468 1963.44C-53.4292 1995.84 -52.9817 2029.31 -46.9857 2060.68C-40.4229 2094.85 -17.1548 2138.34 8.94715 2148.7C12.4359 2150.17 15.9945 2150.96 19.5669 2151.04V2151.04Z" stroke="#D8DDDB"/>
<path d="M294.1 -104.685C300.425 -104.708 306.743 -103.928 313.013 -102.35C332.91 -97.1693 348.542 -83.3913 358.237 -62.4966C369.065 -39.0968 371.332 -9.7188 372.734 18.3496C377.512 116.655 375.052 215.752 365.426 312.755C355.589 411.474 338.843 507.221 315.638 597.424C300.723 655.269 282.824 712.658 265.194 768.226C247.564 823.793 229.904 880.158 215.198 937.434C198.701 1001.6 188.081 1059.44 182.712 1114.27C173.763 1204.74 177.79 1298.74 181.608 1389.6C182.235 1404.63 182.891 1420.18 183.458 1435.15C183.935 1447.39 184.353 1459.4 184.74 1470.85C186.447 1520.69 185.698 1570.73 182.503 1620.3C179.457 1668.21 174.52 1715.62 167.737 1762.12C155.536 1844.96 136.921 1922.56 109.119 2006.42C106.762 2013.48 104.346 2020.71 101.99 2027.66C90.0572 2063.02 77.7967 2099.63 69.5038 2137.49C67.2805 2149.8 65.7994 2162.56 65.0888 2175.52C63.2692 2198.29 61.4196 2221.98 54.648 2235.7C48.9101 2247.7 41.5898 2256.53 33.4514 2261.29C25.313 2266.05 16.6547 2266.55 8.38037 2262.74C-5.73702 2256.38 -18.8061 2243.43 -29.654 2225.05C-39.7555 2209.43 -47.6599 2189.26 -52.6536 2166.35C-59.097 2132.19 -59.4848 2096.04 -59.8428 2061.08C-59.8428 2054.93 -59.8428 2048.56 -60.0814 2042.29C-63.0645 1846.95 -100.562 1653.66 -138.566 1472.44C-141.937 1456.33 -145.398 1439.93 -148.739 1424.1C-184.148 1256.38 -220.75 1082.96 -235.039 906.006C-243.691 804.944 -242.589 701.715 -231.788 601.41C-220.681 498.558 -196.689 402.37 -161.864 321.067C-146.758 284.574 -128.263 253.696 -107.304 229.973C-87.8838 208.85 -65.2422 194.959 -43.3165 181.465C-32.6669 174.918 -21.6295 168.143 -11.129 160.627C31.022 130.509 68.1614 85.4177 104.078 41.8063C127.405 13.3394 151.509 -15.8107 176.537 -40.3492C201.95 -66.0282 229.034 -85.1725 257.08 -97.2831C269.25 -102.226 281.658 -104.707 294.1 -104.685V-104.685ZM19.895 2264.51C26.3988 2264.57 32.8369 2262.02 38.7891 2257.02C44.7413 2252.01 50.074 2244.67 54.4392 2235.47C61.1213 2221.92 63.0007 2198.41 64.7905 2175.63C65.5073 2162.62 66.9985 2149.8 69.2353 2137.43C77.5283 2099.51 89.8484 2062.9 101.751 2027.55C104.108 2020.54 106.524 2013.37 108.851 2006.31C136.653 1922.5 155.267 1844.9 167.438 1762.12C174.237 1715.67 179.173 1668.3 182.205 1620.41C185.4 1570.88 186.149 1520.88 184.442 1471.07C184.054 1459.69 183.637 1447.62 183.159 1435.38C182.593 1420.12 181.936 1404.58 181.31 1389.83C177.491 1298.74 173.554 1204.91 182.414 1114.33C187.783 1059.44 198.403 1001.54 214.929 937.32C229.666 880.386 247.594 823.452 264.956 768.112C282.317 712.772 300.544 655.212 315.37 597.31C338.57 507.109 355.306 411.36 365.127 312.641C374.717 215.667 377.137 116.606 372.317 18.3496C370.915 -9.66187 368.677 -38.926 357.879 -62.155C348.243 -82.9359 332.672 -96.3153 312.864 -102.009C294.274 -106.251 275.442 -104.441 257.17 -96.6569C229.122 -84.5502 202.039 -65.4057 176.626 -39.723C151.598 -15.1845 127.495 14.0796 104.167 42.3757C68.3702 86.044 31.0817 131.136 -11.0992 161.311C-21.5996 168.826 -32.6371 175.601 -43.2867 182.148C-65.1825 195.585 -87.8241 209.477 -107.214 230.599C-128.156 254.301 -146.623 285.184 -161.685 321.693C-196.476 402.922 -220.456 499.007 -231.579 601.751C-242.354 701.987 -243.446 805.136 -234.801 906.12C-220.512 1083.24 -183.909 1256.61 -148.53 1424.22C-145.189 1440.05 -141.728 1456.44 -138.358 1472.56C-100.323 1653.83 -62.9452 1847.18 -59.8428 2042.58C-59.8428 2048.84 -59.6638 2055.22 -59.6041 2061.42C-59.2461 2096.32 -58.8584 2132.42 -52.4447 2166.52C-47.4326 2189.35 -39.542 2209.45 -29.475 2225.05C-18.6462 2243.17 -5.64446 2255.92 8.38037 2262.17C12.1682 2263.68 16.0256 2264.46 19.895 2264.51V2264.51Z" stroke="#D8DDDB"/>
<path d="M312.655 -151.994C339.264 -151.994 366.052 -140.151 381.594 -106.447C393.526 -80.9971 395.764 -49.5127 397.225 -18.8823C407.04 190.521 385.293 404.592 334.58 600.16C318.561 661.876 299.141 723.023 280.348 782.348C243.119 899.518 204.607 1020.73 191.392 1150.71C181.668 1246.59 185.426 1346.22 189.006 1442.61C189.573 1457.93 190.169 1473.18 190.676 1488.44C191.114 1500.97 191.512 1513.51 191.87 1526.08C194.746 1630 189.304 1734.15 175.731 1834.94C162.997 1928.51 142.88 2017.84 116.07 2099.86C112.907 2109.65 109.696 2119.48 106.434 2129.35C94.5018 2165.16 82.3607 2202.22 74.1274 2240.43C71.8189 2253.51 70.288 2267.05 69.5632 2280.79C67.6839 2305.73 65.715 2331.46 58.2573 2346.78C44.9826 2373.99 27.5017 2384.24 7.694 2376.5C-23.1809 2364.37 -50.5059 2313.07 -58.1128 2272.54C-64.9739 2235.7 -65.2722 2196.93 -65.5705 2159.47C-65.5705 2152.75 -65.5705 2146.03 -65.7793 2139.37C-68.5834 1930.88 -108.139 1725 -148.441 1531.94C-152.219 1513.76 -156.028 1495.6 -159.866 1477.45C-197.304 1299.14 -235.964 1114.84 -250.969 926.961C-270.031 687.554 -242.646 466.878 -173.856 305.47C-155.212 261.859 -136.866 230.944 -116.044 208.113C-95.2224 185.283 -71.1191 170.423 -47.7317 155.962C-36.3661 148.959 -24.6128 141.728 -13.4262 133.644C31.3201 101.419 70.9951 52.9684 109.238 6.1118C158.847 -54.6367 210.156 -117.492 272.622 -143.624C285.775 -149.095 299.193 -151.9 312.655 -151.994ZM190.08 1149.91L188.767 1149.46C202.072 1018.51 240.703 896.956 278.051 779.388C296.815 720.347 316.234 659.314 332.194 597.769C382.727 403.055 404.265 189.894 394.481 -18.5407C393.079 -48.0324 390.782 -78.8906 379.565 -103.201C356.655 -152.62 307.971 -153.189 273.248 -138.671C211.23 -112.709 160.1 -50.1389 110.7 10.3248C72.3374 57.2953 32.6625 105.917 -12.4716 138.369C-23.7178 146.454 -35.5308 153.741 -46.9262 160.744C-70.1645 175.092 -94.2081 189.894 -114.702 212.383C-135.196 234.872 -153.482 265.503 -171.768 308.602C-240.081 468.871 -267.227 688.123 -248.314 926.05C-233.399 1113.59 -194.619 1297.43 -157.39 1475.18C-153.572 1493.4 -149.763 1511.58 -145.965 1529.72C-105.604 1723.29 -65.9583 1929.57 -63.1244 2138.91C-63.1244 2145.57 -62.9752 2152.29 -62.9156 2159.07C-62.6173 2196.13 -62.319 2234.45 -55.607 2270.49C-48.2388 2309.71 -21.749 2359.36 8.20117 2371.15C16.8128 2375.07 25.8196 2374.5 34.2757 2369.49C42.7317 2364.48 50.3251 2355.22 56.2586 2342.68C63.1495 2328.56 65.0587 2303.62 66.8784 2279.54C67.6316 2265.37 69.2228 2251.41 71.6216 2237.92C79.9444 2199.26 92.2346 2162.03 104.107 2126.05C107.359 2116.2 110.61 2106.4 113.772 2096.61C140.44 2015.03 160.447 1926.19 173.106 1833.12C186.628 1732.8 192.06 1629.13 189.215 1525.68C188.827 1513.15 188.439 1500.63 187.992 1488.1C187.485 1472.84 186.918 1457.58 186.351 1442.55C182.712 1345.77 178.953 1245.79 188.767 1149.29L190.08 1149.91Z" stroke="#D8DDDB"/>
<path d="M331.24 -194.639C359.042 -194.639 386.904 -182.228 403.042 -147.327C415.303 -120.796 417.749 -87.4327 419.181 -55.5497C424.135 55.9227 420.872 168.17 409.486 277.912C397.833 390.012 378.307 498.597 351.435 600.728C334.282 666.088 313.55 730.935 293.503 793.619C273.457 856.304 252.993 920.525 235.841 985.373C216.749 1058.13 204.28 1123.67 197.747 1185.84C187.037 1287.64 190.587 1393.3 194.018 1495.56C194.525 1510.53 195.062 1526.07 195.509 1541.1C195.927 1554.54 196.315 1567.86 196.643 1580.62C199.456 1689.97 194.326 1799.55 181.399 1906.22C169.155 2006.39 148.752 2102.28 120.932 2190.38C117.084 2202.73 113.027 2215.2 109 2227.27C97.0674 2263.99 84.6577 2301.97 76.3946 2341.14C73.9104 2355.37 72.2793 2370.1 71.5322 2385.04C69.623 2411.28 67.6243 2438.38 59.9876 2454.21C46.2058 2482.68 28.009 2493.55 7.3959 2485.47C-8.54271 2478.37 -23.3052 2463.81 -35.5605 2443.11C-47.9105 2422.9 -57.3371 2398.64 -61.4239 2376.61C-68.6131 2337.84 -68.8518 2296.9 -69.0904 2257.05C-69.0904 2250.05 -69.0904 2242.76 -69.2694 2235.64C-71.7752 2013.26 -113.598 1794.29 -156.226 1589.16L-168.875 1528.52C-208.251 1340.36 -248.97 1145.81 -264.632 947.17C-274.028 827.951 -272.835 713.741 -261.082 606.99C-248.876 492.027 -222.47 384.284 -184.058 292.715C-164.549 246.542 -145.278 213.862 -123.711 189.892C-102.143 165.923 -76.2797 150.039 -51.5499 134.61C-39.4386 127.094 -26.8798 119.351 -14.9475 110.697C32.7819 76.1385 74.9031 24.2717 115.592 -25.944C141.903 -58.3963 169.079 -91.9873 197.359 -120.17C226.083 -149.628 256.728 -171.683 288.492 -185.757C302.534 -191.62 316.865 -194.597 331.24 -194.639ZM197.597 1186.06H197.448C204.011 1123.89 216.48 1058.25 235.572 985.487C252.605 920.582 273.248 856.076 293.205 793.676C313.162 731.277 334.014 666.145 351.137 600.841C378.012 498.674 397.539 390.05 409.188 277.912C420.612 168.045 423.876 55.6555 418.883 -55.9483C417.451 -87.7743 415.034 -121.024 402.834 -147.384C378.283 -200.333 325.9 -201.073 288.79 -185.302C257.048 -171.238 226.423 -149.202 197.717 -119.771C169.467 -91.5888 142.142 -57.9978 115.771 -25.6024C75.0522 24.6133 32.9907 76.537 -14.858 111.039C-26.7903 119.636 -39.3192 127.436 -51.4604 134.894C-76.1902 150.21 -101.755 166.037 -123.562 190.177C-145.368 214.317 -164.34 246.712 -183.82 292.658C-222.215 384.152 -248.612 491.819 -260.813 606.706C-272.537 713.115 -273.73 827.495 -264.333 946.715C-248.672 1145.24 -207.983 1339.56 -168.606 1527.95C-164.43 1547.77 -160.134 1568.32 -155.958 1588.53C-113.33 1793.49 -71.5067 2012.75 -68.9711 2235.24C-68.9711 2242.36 -68.8219 2249.65 -68.7921 2256.65C-68.5535 2296.5 -68.3148 2337.27 -61.1554 2375.93C-57.0984 2397.85 -47.6719 2421.99 -35.3518 2442.14C-23.1476 2462.8 -8.43359 2477.32 7.45553 2484.39C27.9792 2492.41 46.0567 2481.65 59.7789 2453.3C67.3261 2437.64 69.3247 2410.6 71.2339 2384.47C71.9872 2369.49 73.6284 2354.73 76.1261 2340.46C84.3893 2301.12 96.7691 2263.14 108.731 2226.59C112.669 2214.52 116.756 2201.99 120.664 2189.7C148.451 2101.64 168.835 2005.81 181.071 1905.71C193.985 1799.28 199.115 1689.96 196.315 1580.84C195.986 1568.03 195.599 1554.77 195.181 1541.33C194.734 1526.07 194.197 1510.59 193.69 1495.79C190.259 1393.3 186.709 1287.81 197.418 1185.95L197.597 1186.06Z" stroke="#D8DDDB"/>
<path d="M349.854 -240.184C379.178 -240.184 408.501 -227.089 425.505 -190.196C438.452 -162.127 440.987 -126.828 442.449 -93.0097C447.524 25.3294 443.858 144.443 431.561 260.834C418.957 379.522 398.026 494.425 369.333 602.438C351.047 671.499 328.972 740.047 307.643 806.375C286.314 872.703 264.418 940.739 246.222 1009.46C225.817 1086.38 212.453 1155.89 205.264 1221.65C193.6 1329.2 196.941 1440.79 200.193 1548.68C200.64 1563.65 201.117 1579.08 201.535 1594.23C201.923 1608.52 202.281 1622.41 202.579 1635.62C203.947 1693.45 203.419 1751.39 200.998 1809.09C198.652 1865.76 194.377 1922.07 188.201 1977.68C176.446 2084.73 155.748 2187.48 126.898 2281.99C122.483 2296.45 117.77 2311.14 113.176 2325.31C101.005 2363.18 88.4163 2402.29 80.0339 2442.71C77.4257 2457.86 75.7245 2473.52 74.9627 2489.4C72.964 2517.35 70.9057 2546.33 62.8215 2563.41C48.2342 2593.81 28.9933 2605.43 7.12726 2596.89C-9.74206 2589.39 -25.3669 2573.99 -38.3349 2552.08C-51.4008 2530.67 -61.3643 2505 -65.66 2481.65C-73.1774 2440.61 -73.3563 2397.16 -73.5353 2355.09C-73.5353 2347.69 -73.5353 2340 -73.5353 2332.32C-75.8025 2096.33 -119.833 1864.55 -164.758 1647.4C-169.561 1624.23 -174.483 1600.6 -179.256 1577.77C-199.839 1479.16 -221.019 1377.19 -238.918 1276.02C-258.815 1162.15 -272 1061.44 -279.189 968.01C-289.093 842.756 -287.9 722.17 -275.609 610.01C-262.818 489.005 -235.22 375.486 -195.066 278.712C-174.543 229.749 -154.437 195.19 -131.795 169.968C-109.153 144.746 -81.7089 127.495 -55.5473 111.269C-42.6902 103.298 -29.4155 95.0428 -16.7672 85.8765C33.9453 49.0972 78.3634 -6.24241 121.439 -59.7033C149.212 -94.2053 177.969 -129.903 207.949 -159.907C238.303 -191.307 270.717 -214.839 304.332 -229.879C319.267 -236.436 334.53 -239.891 349.854 -240.184V-240.184ZM20.76 2598.65C28.6671 2598.7 36.4873 2595.51 43.6922 2589.29C50.8971 2583.07 57.3187 2573.98 62.5232 2562.61C70.5178 2545.93 72.5762 2517.07 74.4555 2489.23C75.2182 2473.29 76.9194 2457.58 79.5268 2442.37C87.9391 2401.89 100.408 2362.66 112.729 2324.92C117.293 2310.74 122.006 2296.05 126.421 2281.59C155.282 2187.2 176.001 2084.57 187.783 1977.62C193.937 1922.03 198.202 1865.74 200.551 1809.09C202.972 1751.43 203.5 1693.53 202.132 1635.73C201.833 1622.52 201.475 1608.57 201.088 1594.28C200.67 1579.14 200.193 1563.65 199.745 1548.74C196.494 1440.56 193.152 1329.2 204.816 1221.65C211.946 1155.78 225.34 1086.32 245.744 1009.23C263.941 940.511 285.926 872.19 307.196 806.09C328.465 739.99 350.57 671.328 368.856 602.21C397.56 494.212 418.481 379.303 431.054 260.607C443.349 144.272 447.014 25.2157 441.942 -93.0667C440.48 -126.715 437.974 -161.957 425.087 -189.854C398.956 -246.447 343.619 -246.788 304.153 -229.708C270.572 -214.661 238.189 -191.15 207.859 -159.793C178.028 -129.846 149.271 -94.1485 121.499 -59.6465C78.3932 -6.12867 33.8557 49.2112 -16.797 85.9905C-29.4453 95.2138 -42.7499 103.469 -55.5772 111.44C-81.709 127.666 -108.766 144.405 -131.765 170.025C-154.765 195.645 -174.453 229.749 -194.947 278.712C-235.118 375.358 -262.72 488.794 -275.49 609.725C-287.78 721.828 -288.974 842.186 -279.07 967.498C-271.881 1060.93 -258.725 1161.64 -238.828 1275.4C-220.93 1376.8 -199.809 1478.76 -179.166 1577.15C-174.393 1599.92 -169.471 1623.6 -164.669 1646.83C-119.743 1864.04 -75.6831 2095.81 -73.416 2331.86C-73.416 2339.43 -73.416 2347.06 -73.416 2354.64C-73.237 2396.65 -73.058 2440.04 -65.5406 2481.03C-61.2748 2504.26 -51.3411 2529.82 -38.3051 2551.17C-25.3926 2573.06 -9.81448 2588.42 7.008 2595.86C11.5295 2597.7 16.1379 2598.63 20.76 2598.65Z" stroke="#D8DDDB"/>
<path d="M368.438 -285.218C399.253 -285.218 430.039 -271.44 447.907 -232.668C461.57 -203.005 464.165 -165.713 465.806 -130.187C470.951 -5.06178 466.834 120.823 453.575 243.755C440.048 369.012 417.732 490.216 387.231 604.09C367.782 676.908 344.394 749.214 321.812 819.072C299.23 888.93 275.873 961.122 256.542 1033.48C234.855 1114.73 220.537 1188.06 212.81 1257.52C200.192 1370.76 203.354 1488.27 206.427 1601.91C206.814 1616.77 207.232 1632.14 207.59 1647.46C207.948 1662.78 208.276 1676.95 208.574 1690.79C211.356 1811.05 206.832 1931.53 195.091 2049.81C183.77 2163.61 162.717 2273.07 132.774 2373.82C127.882 2390.33 122.542 2407.02 117.411 2423.18C104.942 2462.24 92.0551 2502.89 83.4937 2544.45C80.7696 2560.51 79.0083 2577.11 78.2435 2593.93C76.1852 2623.65 74.0671 2654.39 65.5355 2672.21C50.2025 2704.55 29.7385 2716.96 6.82844 2708.02C-10.9971 2700.17 -27.5087 2683.93 -41.1992 2660.77C-55.0109 2638 -65.5114 2611.01 -70.0158 2586.36C-77.921 2543.03 -78.0105 2497.08 -78.1298 2452.68C-78.1298 2444.88 -78.1298 2436.73 -78.1298 2428.76C-80.0987 2179.28 -126.366 1934.69 -173.589 1705.7C-178.749 1680.71 -184.029 1655.32 -189.16 1630.72C-210.758 1526.87 -233.101 1419.5 -251.805 1312.75C-272.687 1192.9 -286.498 1086.83 -294.016 988.223C-304.307 856.421 -302.965 729.97 -290.257 612.459C-276.911 485.367 -248.071 366.059 -206.074 264.194C-184.566 212.441 -163.536 175.947 -139.91 149.473C-115.657 122.315 -87.1388 104.552 -59.5751 87.4146C-46.002 78.9884 -31.9517 70.3344 -18.5576 60.4848C34.8694 21.4851 81.853 -37.2137 127.315 -94.0337C156.579 -130.585 186.977 -168.446 218.329 -200.215C250.318 -233.526 284.5 -258.514 319.963 -274.514C335.866 -281.477 352.122 -285.066 368.438 -285.218V-285.218ZM212.661 1257.18H212.512C220.268 1187.72 234.557 1114.39 256.274 1033.03C275.634 960.496 298.962 888.361 321.514 818.617C344.066 748.872 367.483 676.282 386.933 603.634C417.422 489.91 439.737 368.86 453.277 243.755C466.467 120.958 470.543 -4.76785 465.388 -129.731C463.867 -165.315 461.272 -202.55 447.698 -232.212C435.557 -258.573 415.869 -275.767 390.692 -281.973C367.08 -287.175 343.176 -284.595 320.022 -274.343C284.644 -258.364 250.537 -233.474 218.598 -200.329C187.126 -168.503 156.848 -130.699 127.584 -94.0907C82.1215 -37.1568 35.1081 21.4281 -18.3488 60.4278C-31.713 70.2204 -45.7634 78.9315 -59.3663 87.4146C-86.93 104.495 -115.418 122.258 -139.641 149.416C-163.237 175.833 -184.387 212.043 -205.716 263.966C-247.752 365.858 -276.604 485.234 -289.929 612.402C-302.696 729.913 -303.979 856.25 -293.688 988.166C-286.17 1086.55 -272.358 1192.62 -251.477 1312.4C-232.862 1419.16 -210.519 1526.53 -188.832 1630.38C-183.731 1654.92 -178.451 1680.31 -173.29 1705.31C-126.068 1934.46 -79.7705 2179.11 -77.8315 2428.71C-77.8315 2436.68 -77.8315 2444.76 -77.8315 2452.62C-77.8315 2496.97 -77.6227 2542.86 -69.7175 2586.13C-65.2429 2610.67 -54.8021 2637.65 -40.9904 2660.14C-27.3397 2683.23 -10.881 2699.43 6.88807 2707.28C29.8578 2716.17 50.0533 2703.87 65.2968 2671.7C73.7688 2653.94 75.8868 2623.31 77.9452 2593.7C78.7139 2576.83 80.4751 2560.18 83.1954 2544.06C91.7866 2502.21 104.674 2461.79 117.143 2422.67C122.304 2406.56 127.614 2389.88 132.536 2373.37C162.459 2272.67 183.492 2163.26 194.793 2049.53C206.54 1931.36 211.065 1811 208.276 1690.84C207.978 1677.07 207.68 1662.38 207.292 1647.52C206.904 1632.66 206.516 1617.06 206.128 1601.97C203.145 1488.1 199.894 1370.76 212.512 1257.41L212.661 1257.18Z" stroke="#D8DDDB"/>
<path d="M386.814 -330.368C394.611 -330.42 402.403 -329.527 410.141 -327.692C436.691 -321.144 457.513 -302.982 470.31 -275.142C484.659 -243.942 487.344 -204.658 488.865 -166.967C494.151 -35.2125 489.672 97.3068 475.56 226.674C461.125 358.518 437.434 486.043 405.13 605.796C384.517 682.372 359.846 758.322 335.952 831.824C312.057 905.326 287.417 981.161 266.923 1057.51C243.924 1142.91 228.71 1220.23 220.357 1293.33C206.814 1412.38 209.767 1535.81 212.631 1655.2C212.959 1669.95 213.347 1685.21 213.675 1700.24C214.003 1715.27 214.302 1730.98 214.54 1745.44C216.927 1881.51 212.691 2008.02 201.952 2121.21C189.84 2248.62 169.138 2361.13 138.74 2465.2C133.341 2483.65 127.464 2502.26 121.766 2520.31C108.999 2560.74 95.7837 2602.52 87.0135 2645.57C84.1803 2662.59 82.3493 2680.15 81.5545 2697.95C79.4365 2729.37 77.2588 2761.83 68.2797 2780.78C52.1412 2814.95 30.7227 2828.15 6.41055 2818.76C-12.3255 2810.5 -29.6785 2793.41 -44.0632 2769.06C-58.5909 2745.2 -69.6283 2716.68 -74.3117 2690.77C-82.5749 2645.23 -82.6345 2596.77 -82.6644 2550.03C-82.6644 2541.78 -82.6644 2532.95 -82.6644 2524.81C-84.3647 2261.78 -132.87 2004.38 -182.389 1763.26C-187.878 1736.5 -193.516 1709.29 -198.975 1682.99C-221.616 1573.9 -245.004 1460.94 -264.603 1348.95C-286.469 1223.07 -300.907 1111.65 -308.782 1008.32C-319.462 870.083 -318.119 737.712 -304.845 614.735C-290.977 481.577 -260.938 356.484 -217.142 249.504C-194.59 194.734 -172.634 156.36 -148.083 128.804C-122.668 100.053 -92.6875 81.3782 -63.6621 63.3302C-49.3433 54.4485 -34.5472 45.2252 -20.467 34.8632C35.794 -6.3569 85.2535 -68.4718 133.072 -128.594C163.858 -167.195 195.717 -207.163 228.74 -240.811C262.37 -275.963 298.304 -302.404 335.594 -319.436C352.402 -326.696 369.581 -330.363 386.814 -330.368V-330.368ZM21.2663 2821.44C30.1461 2821.53 38.9301 2817.93 47.0077 2810.89C55.0854 2803.85 62.2628 2793.54 68.0411 2780.67C76.9904 2761.88 79.1382 2729.43 81.2264 2698.12C82.0188 2680.3 83.86 2662.71 86.7152 2645.68C95.4855 2602.41 108.701 2560.62 121.498 2520.43C127.166 2502.44 133.072 2483.82 138.442 2465.37C168.869 2361.35 189.542 2249.02 201.653 2121.6C212.363 2008.25 216.569 1881.8 214.212 1745.84C213.974 1731.44 213.675 1716.18 213.347 1700.64C213.019 1685.09 212.631 1670.4 212.303 1655.6C209.32 1536.04 206.337 1412.72 220.059 1293.61C228.382 1220.45 243.625 1143.25 266.625 1057.62C287.119 981.275 311.819 905.382 335.683 831.938C359.548 758.493 384.248 682.145 404.802 605.512C437.139 485.734 460.85 358.168 475.292 226.275C489.4 97.0231 493.899 -35.3772 488.656 -167.024C487.135 -204.487 484.45 -243.714 470.161 -274.8C457.423 -302.527 436.691 -320.347 410.171 -327.122C385.298 -332.408 360.135 -329.52 335.773 -318.582C298.476 -301.645 262.53 -275.279 228.889 -240.184C195.807 -206.593 164.007 -166.626 133.251 -127.968C85.5219 -67.9024 35.9431 -5.73054 -20.3477 35.4896C-34.4577 45.7946 -49.2538 55.0179 -63.5726 63.9565C-92.5682 82.0046 -122.548 100.622 -147.934 129.374C-172.455 156.873 -194.381 195.189 -216.903 249.902C-260.678 356.815 -290.706 481.829 -304.576 614.906C-317.821 737.769 -319.163 870.14 -308.484 1008.32C-300.638 1111.6 -286.17 1223.02 -264.334 1348.84C-244.855 1460.94 -221.437 1573.73 -198.706 1682.81C-193.247 1709.12 -187.609 1736.33 -182.091 1763.09C-132.571 2004.26 -84.0664 2261.72 -82.366 2524.87C-82.366 2533.24 -82.366 2541.95 -82.366 2550.09C-82.366 2596.77 -82.3661 2645.11 -74.0433 2690.66C-69.3598 2716.45 -58.3821 2744.86 -43.8843 2768.66C-29.5322 2792.95 -12.2208 2810 6.47018 2818.25C11.3359 2820.23 16.2916 2821.3 21.2663 2821.44V2821.44Z" stroke="#D8DDDB"/>
<path d="M405.309 -375.516C413.406 -375.56 421.496 -374.629 429.531 -372.726C457.453 -365.951 479.289 -346.878 492.683 -317.671C507.599 -284.877 510.582 -243.657 512.073 -204.144C517.469 -65.7704 512.598 73.3647 497.605 209.139C482.272 347.793 457.186 481.853 423.028 607.676C401.192 687.839 375.299 767.546 350.092 844.578C324.885 921.61 298.991 1001.43 277.334 1081.59C253.022 1171.49 236.824 1252.4 227.815 1329.2C213.347 1454.74 216.091 1584.89 218.866 1710.66C219.164 1724.55 219.462 1739.12 219.731 1753.07C220.029 1769.24 220.327 1785.13 220.536 1800.21C222.744 1949.55 218.925 2078.05 208.843 2193.06C196.91 2329.24 176.029 2448.29 144.676 2556.98C138.859 2577.3 132.446 2597.74 126.211 2617.56C113.115 2659.4 99.5424 2702.67 90.4141 2747.37C87.4311 2762.17 86.1483 2781.81 84.7761 2802.53C82.5686 2835.67 80.3015 2869.94 70.9047 2889.93C53.9608 2926.08 31.4982 2939.97 5.8735 2930.07C-13.7933 2921.46 -32.0048 2903.52 -47.0763 2877.92C-62.3198 2852.86 -73.9241 2822.97 -78.7567 2795.82C-87.3778 2747.82 -87.3479 2697.04 -87.3181 2647.79C-87.3181 2639.13 -87.3181 2630.14 -87.3181 2621.31C-87.9445 2497.03 -98.5942 2364.77 -119.804 2217.08C-139.433 2080.44 -165.743 1946.25 -191.398 1821.56C-197.364 1793.1 -203.33 1764.12 -209.028 1736.16C-232.684 1621.84 -257.145 1503.59 -277.639 1386.08C-300.489 1254.16 -315.584 1137.39 -323.817 1029.1C-334.854 884.432 -333.452 746.025 -319.7 617.696C-305.284 478.472 -274.048 347.585 -228.478 235.442C-204.941 177.996 -182.091 137.744 -156.496 108.821C-129.887 78.5892 -98.4152 59.004 -67.9877 39.988C-53.0723 30.594 -37.3813 20.9153 -22.5852 9.98394C36.5098 -33.3997 88.4155 -98.9307 138.501 -162.298C170.749 -203.006 204.129 -245.137 238.793 -280.607C274.057 -317.669 311.759 -345.566 350.897 -363.559C368.739 -371.46 386.993 -375.471 405.309 -375.516V-375.516ZM21.5048 2932.8C30.8506 2932.88 40.0933 2929.07 48.5889 2921.64C57.0845 2914.2 64.6288 2903.32 70.696 2889.76C80.033 2869.89 82.3002 2835.73 84.4778 2802.65C85.85 2781.87 87.1328 2762.23 90.1457 2747.37C99.0949 2702.56 112.728 2659.29 125.943 2617.44C132.148 2597.63 138.561 2577.19 144.408 2556.87C175.581 2448.24 196.552 2329.13 208.514 2193.17C218.597 2078.11 222.416 1949.66 220.208 1800.33C219.999 1785.18 219.731 1769.36 219.403 1753.19C219.134 1739.01 218.836 1724.72 218.538 1710.71C215.883 1584.83 213.138 1454.51 227.487 1329.26C236.436 1252.45 252.724 1171.44 277.036 1081.54C298.693 1001.32 324.765 921.61 349.823 844.464C374.881 767.319 400.894 687.725 422.64 607.391C456.788 481.68 481.874 347.735 497.217 209.196C512.219 73.4816 517.1 -65.5967 511.715 -203.917C510.164 -243.315 507.39 -284.478 492.415 -317.101C479.05 -346.251 457.274 -365.21 429.442 -371.986C403.361 -377.524 376.976 -374.481 351.434 -362.99C312.292 -344.964 274.582 -317.068 239.3 -280.037C204.607 -244.568 171.256 -202.493 139.009 -161.786C88.8033 -98.3613 36.8678 -32.8304 -22.2272 10.6101C-37.1426 21.4845 -52.6248 31.2203 -67.6596 40.6144C-98.087 59.5734 -129.529 79.2155 -156.108 109.39C-181.643 138.256 -204.494 178.451 -228 235.841C-273.546 347.913 -304.762 478.723 -319.163 617.867C-332.915 746.139 -334.317 884.489 -323.28 1029.04C-315.077 1137.22 -299.982 1254.05 -277.132 1385.91C-256.757 1503.47 -232.386 1621.67 -208.521 1736.05C-202.704 1764.06 -196.588 1792.98 -190.891 1821.45C-165.356 1946.08 -139.015 2080.33 -119.297 2216.97C-98.087 2365 -87.4673 2497.14 -86.811 2621.2C-86.811 2630.03 -86.811 2639.02 -86.811 2647.67C-86.811 2696.75 -86.8109 2747.54 -78.2495 2795.7C-73.3871 2822.75 -61.8724 2852.64 -46.6885 2877.57C-31.637 2903.07 -13.4711 2920.94 6.14196 2929.55C11.1927 2931.62 16.3397 2932.71 21.5048 2932.8V2932.8Z" stroke="#D8DDDB"/>
<path d="M423.804 -420.666C432.2 -420.703 440.589 -419.734 448.921 -417.763C478.185 -410.703 501.066 -390.776 515.086 -360.202C530.837 -326.042 533.701 -282.601 535.282 -241.211C540.761 -96.1552 535.479 49.6502 519.591 191.886C503.353 337.112 476.892 477.475 440.927 609.154C418.046 693.245 390.721 776.654 364.291 857.329C337.861 938.004 310.596 1021.64 287.656 1105.62C262.061 1199.79 244.968 1284.62 235.452 1365.07C219.94 1495.67 222.505 1631.06 224.951 1762.01C225.22 1776.53 225.518 1791.5 225.757 1806.19C227.815 1925.75 228.74 2082.94 217.882 2235.98C206.695 2393.18 184.68 2528.28 150.613 2648.92C144.348 2671.02 137.428 2693.33 130.716 2714.85C117.202 2758.12 103.271 2802.93 94.0238 2849.22C91.0407 2864.76 89.579 2885.37 88.0576 2907.23C85.7905 2942.08 83.4637 2978.12 73.6493 2999.18C55.7508 3037.21 32.274 3051.85 5.42621 3041.48C-15.1532 3032.43 -34.2115 3013.66 -49.9996 2986.88C-65.9292 2960.64 -78.0107 2929.32 -83.082 2900.91C-92.0312 2850.64 -92.0312 2797.41 -92.0312 2745.94C-92.0312 2736.83 -92.0312 2727.38 -92.0312 2718.16C-92.5085 2587.83 -103.516 2449.26 -125.621 2294.4C-146.055 2151.04 -173.559 2010.47 -200.198 1879.92C-206.373 1849.69 -212.727 1818.94 -218.872 1789.17C-243.542 1669.6 -269.077 1545.89 -290.317 1422.97C-314.182 1285.02 -329.873 1162.89 -338.434 1049.65C-355.438 824.706 -352.037 498.361 -239.396 221.263C-214.934 161.084 -191.159 118.782 -164.52 88.6645C-136.688 57.0092 -103.785 36.399 -72.0446 16.4722C-56.264 6.62259 -39.9466 -3.62539 -24.3152 -15.0691C37.5838 -60.6162 92.0252 -129.62 144.527 -196.29C178.266 -239.047 213.138 -283.285 249.502 -320.576C286.391 -359.558 325.851 -388.931 366.827 -407.913C385.506 -416.261 404.62 -420.539 423.804 -420.666V-420.666ZM21.7138 3044.1C31.55 3044.22 41.2788 3040.2 50.2085 3032.33C59.1383 3024.45 67.0499 3012.92 73.3809 2998.56C83.1654 2977.66 85.4922 2941.62 87.7295 2906.89C89.1316 2885.03 90.474 2864.42 93.6957 2848.76C102.943 2802.42 116.904 2757.67 130.388 2714.34C137.1 2692.82 144.05 2670.56 150.285 2648.41C184.352 2527.83 206.337 2392.84 217.523 2235.7C228.412 2082.72 227.457 1925.69 225.399 1806.02C225.16 1791.27 224.862 1776.3 224.593 1761.84C222.147 1630.89 219.582 1495.39 235.094 1364.72C244.64 1284.22 261.733 1199.62 287.328 1105.16C310.148 1021.13 337.503 937.606 363.993 856.816C390.483 776.027 417.689 692.733 440.599 608.699C476.592 477.061 503.093 336.738 519.382 191.544C535.257 49.4399 540.54 -96.2305 535.073 -241.154C533.402 -282.431 530.419 -325.587 514.848 -359.747C500.887 -390.264 478.066 -410.133 448.892 -417.136C421.495 -422.892 393.783 -419.579 366.976 -407.344C326.022 -388.289 286.585 -358.879 249.711 -319.893C213.407 -282.658 178.505 -238.421 144.796 -195.663C92.2042 -128.937 37.7927 -59.9899 -24.1362 -14.3289C-39.6482 -2.94215 -55.9657 7.30594 -71.8655 17.1555C-103.695 37.0824 -136.598 57.6924 -164.341 89.3476C-190.95 119.58 -214.696 161.654 -239.127 221.776C-351.649 498.532 -355.05 824.478 -338.046 1049.59C-329.515 1162.78 -313.764 1284.9 -289.929 1422.8C-268.689 1545.72 -243.184 1669.38 -218.514 1788.99C-212.369 1818.71 -206.015 1849.52 -199.84 1879.75C-173.171 2010.3 -145.697 2150.87 -125.263 2294.23C-103.158 2449.14 -92.1505 2587.78 -91.6732 2718.16C-91.6732 2727.38 -91.6732 2736.83 -91.6732 2745.94C-91.6732 2797.18 -91.8522 2850.53 -82.903 2900.69C-77.8317 2929.15 -65.7801 2960.3 -49.8802 2986.43C-34.1479 3013.17 -15.1363 3031.91 5.39635 3040.91C10.767 3043 16.2329 3044.07 21.7138 3044.1Z" stroke="#D8DDDB"/>
</g>
<g opacity="0.3">
<path d="M1218.07 938.289C1207.6 960.189 1198.79 987.111 1197.81 1013.14C1197.09 1031.42 1200.51 1045.39 1203.93 1058.35C1229.03 1147.21 1265.69 1214.85 1310.06 1254.18C1324.79 1266.68 1339.93 1277.37 1355.42 1286.19C1384.91 1304.29 1415.45 1323.1 1437.11 1365.84C1454.64 1400.49 1467.08 1448.28 1479.11 1494.58C1482.25 1506.65 1485.48 1519.15 1488.78 1531.21C1489.76 1534.74 1490.72 1538.3 1491.69 1541.83L1494.08 1550.44C1511.48 1613.52 1544.44 1634.89 1562.58 1641.88C1579.39 1648.36 1595.51 1645.13 1611.2 1641.86C1618.11 1640.5 1625.23 1639.07 1632.26 1638.52C1644.4 1638.31 1656.19 1641.91 1667.31 1649.23C1670.05 1651.34 1672.6 1654.28 1674.9 1657.97C1679.1 1663.87 1683.46 1669.93 1688.11 1669.01C1692.21 1668.12 1696.32 1664.95 1700.08 1659.8C1703.83 1654.65 1707.11 1647.68 1709.62 1639.52C1718.87 1611.28 1721.54 1571.98 1718.75 1550.27C1715.93 1532.05 1711.75 1515.43 1706.38 1501.03C1705.51 1498.37 1704.6 1495.63 1703.71 1492.92C1677.54 1411.45 1663.31 1305.92 1649.82 1195.69L1649.36 1191.94C1636.58 1087.17 1623.42 978.954 1599.9 888.521C1586.38 835.76 1567.6 791.78 1544.74 759.303C1521.37 726.037 1493.33 709.021 1463.48 709.989C1450.27 710.411 1436.78 715.976 1423.62 726.441C1412.13 736.52 1400.88 748.673 1390 762.767C1385.01 768.868 1379.86 775.16 1374.81 780.917C1354.07 804.483 1333.14 819.38 1312.93 833.725C1284.43 853.941 1257.52 873.077 1231.1 914.469C1226.52 921.682 1222.17 929.65 1218.07 938.289ZM1704.68 1651.16C1699.99 1661.1 1694.07 1667.28 1688.13 1668.44C1683.58 1669.43 1679.33 1663.63 1675.09 1657.56C1672.77 1653.85 1670.21 1650.88 1667.46 1648.7C1656.31 1641.4 1644.49 1637.79 1632.33 1637.99C1625.3 1638.54 1618.16 1639.92 1611.23 1641.34C1595.66 1644.42 1579.58 1647.64 1562.82 1641.16C1544.69 1634.21 1511.7 1613.06 1494.46 1549.97L1492.05 1541.31C1491.07 1537.79 1490.12 1534.22 1489.14 1530.7C1485.86 1518.68 1482.63 1506.18 1479.49 1494.1C1467.47 1447.84 1455 1399.97 1437.48 1365.36C1415.74 1322.51 1385.23 1303.77 1355.7 1285.68C1340.44 1276.29 1324.69 1266.6 1310.36 1253.71C1266.02 1214.31 1229.4 1146.6 1204.35 1057.69C1200.84 1045 1197.57 1030.89 1198.17 1012.93C1199.53 976.82 1216.21 938.699 1231.33 915.056C1257.75 873.751 1284.64 854.661 1313.1 834.449C1333.33 820.059 1354.28 805.203 1375 781.596C1380.09 775.834 1385.24 769.542 1390.23 763.442C1401.09 749.357 1412.31 737.207 1423.77 727.124C1436.92 716.698 1450.38 711.151 1463.58 710.722C1493.37 709.729 1521.36 726.723 1544.68 759.964C1567.52 792.384 1586.27 836.31 1599.78 889.014C1623.23 979.192 1636.48 1087.62 1649.22 1192.3L1649.66 1196.09C1663.1 1306.2 1677.33 1411.74 1703.56 1493.33L1706.24 1501.48C1711.6 1515.81 1715.75 1532.37 1718.55 1550.55C1721.34 1572.09 1718.71 1611.08 1709.47 1639.14C1708.06 1643.48 1706.45 1647.51 1704.68 1651.16V1651.16Z" stroke="#D8DDDB"/>
<path d="M1190.89 933.797C1187.49 940.881 1184.29 948.464 1181.34 956.474C1173.62 977.479 1169.25 997.834 1168.59 1016.45C1167.85 1036.96 1171.75 1052.54 1175.81 1066.79C1204.81 1166.05 1246.83 1240.87 1297.4 1283.29C1313.74 1297.15 1331.54 1307.59 1348.9 1317.46C1382.51 1336.84 1417.27 1356.97 1442.28 1403.99C1462.03 1441.2 1476.19 1492.87 1489.92 1542.84C1493.23 1554.94 1496.63 1567.47 1500.13 1579.64C1501.28 1583.67 1502.42 1587.61 1503.59 1591.59C1504.41 1594.52 1505.23 1597.36 1506.06 1600.2C1514.49 1628.74 1525.66 1652.26 1538.95 1669.42C1551.21 1685.52 1564.64 1697.58 1578.9 1705.3C1598.49 1716.25 1617.81 1715.83 1636.5 1715.44C1642.57 1715.34 1648.87 1715.17 1655.05 1715.32C1668.82 1716.14 1682.18 1720.91 1694.83 1729.53C1697.94 1732.14 1700.83 1735.65 1703.44 1739.99C1708.2 1747.05 1713.23 1754.18 1718.41 1753.47C1723.04 1752.69 1727.71 1749.27 1731.98 1743.55C1736.25 1737.83 1739.99 1729.98 1742.83 1720.75C1747.88 1704.74 1751.34 1686.89 1752.94 1668.68C1754.63 1652.27 1754.64 1635.86 1752.97 1620.75C1750.07 1599.26 1744.27 1582.31 1738.58 1565.74C1737.58 1562.74 1736.51 1559.71 1735.52 1556.67C1705.1 1465.59 1688.76 1347.7 1673.38 1224.87L1671.99 1213.84C1657.66 1098.8 1642.82 979.932 1616.7 880.861C1601.69 823.154 1581.08 774.858 1556.1 738.8C1530.53 701.93 1499.89 682.514 1467.18 682.46C1452.72 682.244 1437.9 687.831 1423.41 698.964C1410.54 709.908 1397.94 723.3 1385.77 738.978C1380.1 745.803 1374.24 752.953 1368.52 759.565C1345.03 785.945 1321.25 802.097 1298.27 817.729C1266.24 839.531 1235.98 860.103 1206.15 905.905C1200.78 914.289 1195.67 923.624 1190.89 933.797V933.797ZM1442.37 1403.72C1417.33 1356.53 1382.66 1336.21 1348.92 1317.02C1331.58 1306.89 1313.77 1296.72 1297.46 1282.85C1246.92 1240.51 1204.93 1165.76 1175.96 1066.55C1171.94 1052.39 1167.99 1036.81 1168.76 1016.57C1169.47 998.291 1173.82 977.764 1181.42 956.989C1188.69 937.819 1197.11 920.901 1206.35 906.889C1236.11 861.224 1266.35 840.611 1298.36 818.855C1321.36 803.177 1345.14 787.025 1368.67 760.641C1374.44 754.155 1380.32 747.046 1385.92 740.053C1398.09 724.457 1410.67 711.097 1423.51 700.132C1437.98 688.999 1452.77 683.415 1467.21 683.635C1499.9 683.633 1530.54 702.973 1556.12 739.758C1581.07 775.805 1601.64 824.057 1616.63 881.697C1642.77 980.81 1657.61 1099.68 1671.95 1214.63L1673.33 1225.66C1688.71 1348.58 1705.03 1466.43 1735.51 1557.63C1736.49 1560.67 1737.56 1563.7 1738.57 1566.7C1744.17 1583.06 1749.97 1600.01 1752.85 1621.37C1754.51 1636.39 1754.5 1652.69 1752.82 1669C1751.26 1687.14 1747.83 1704.93 1742.8 1720.88C1739.99 1730.03 1736.29 1737.81 1732.06 1743.48C1727.83 1749.14 1723.2 1752.52 1718.62 1753.27C1713.42 1754.16 1708.53 1746.98 1703.81 1739.91C1701.18 1735.54 1698.27 1732 1695.13 1729.36C1682.47 1720.73 1669.08 1715.95 1655.29 1715.12C1649.08 1714.89 1642.77 1715.01 1636.72 1715.29C1618.06 1715.63 1598.75 1716.09 1579.2 1705.13C1564.93 1697.39 1551.5 1685.31 1539.23 1669.21C1525.98 1652.06 1514.84 1628.59 1506.43 1600.12L1503.96 1591.6C1502.81 1587.57 1501.65 1583.59 1500.51 1579.56C1497.04 1567.47 1493.62 1554.9 1490.29 1542.76C1476.57 1492.79 1462.38 1441.08 1442.6 1403.87L1442.37 1403.72Z" stroke="#D8DDDB"/>
<path d="M1163.72 929.341C1160.12 936.838 1156.73 944.832 1153.58 953.258C1144.98 976.404 1140.07 999.434 1139.38 1019.76C1138.58 1042.45 1143.02 1059.63 1147.64 1075.27C1180.52 1184.88 1227.88 1266.8 1284.63 1312.24C1302.86 1327.26 1322.91 1338.07 1342.23 1348.66C1379.97 1369.44 1418.99 1390.88 1447.3 1442.15C1469.28 1481.88 1485.22 1537.43 1500.64 1591.11C1504.12 1603.32 1507.74 1615.87 1511.46 1627.89C1512.81 1632.42 1514.14 1636.91 1515.5 1641.4C1516.35 1644.19 1517.18 1646.94 1518 1649.78C1538.21 1717.2 1571.19 1751.75 1595.29 1768.87C1618.51 1785.3 1641.03 1787.87 1664.85 1790.58C1669.15 1791.18 1673.65 1791.59 1678.1 1792.18C1693.5 1794.07 1708.44 1800.03 1722.61 1809.96C1726.09 1813.09 1729.32 1817.23 1732.22 1822.29C1737.55 1830.47 1743.02 1838.99 1748.97 1838.16C1754.13 1837.5 1759.36 1833.85 1764.15 1827.57C1768.94 1821.29 1773.14 1812.58 1776.33 1802.3C1781.96 1784.59 1785.82 1764.8 1787.57 1744.61C1789.45 1726.43 1789.42 1708.26 1787.48 1691.58C1784.13 1667.65 1777.59 1649.16 1771.19 1631.23C1769.95 1628.17 1768.87 1624.61 1767.73 1621.28C1733.02 1520.51 1714.62 1390.4 1697.29 1254.76C1696.52 1248.64 1695.73 1242.57 1694.93 1236.49C1679.02 1111.14 1662.51 981.529 1633.71 873.611C1617.23 810.933 1594.82 758.315 1567.71 718.703C1539.94 678.204 1506.7 656.359 1471.14 655.249C1455.41 654.485 1439.26 660.122 1423.44 671.894C1409.52 682.449 1395.5 699.387 1381.89 715.758C1375.5 723.399 1368.94 731.321 1362.48 738.489C1336.2 767.601 1309.59 785.09 1283.94 802.132C1248.34 825.523 1214.72 847.618 1181.52 897.784C1175.25 907.19 1169.29 917.755 1163.72 929.341V929.341ZM1770.52 1816.08C1767.51 1822.5 1764.07 1827.73 1760.38 1831.45C1756.69 1835.18 1752.83 1837.34 1749.03 1837.8C1743.2 1838.62 1737.86 1830.22 1732.44 1822.04C1729.53 1816.98 1726.28 1812.83 1722.78 1809.68C1708.57 1799.67 1693.58 1793.65 1678.13 1791.74C1673.76 1790.97 1669.2 1790.61 1664.88 1790.14C1641.07 1787.39 1618.59 1784.81 1595.33 1768.47C1571.28 1751.39 1538.34 1716.93 1518.17 1649.59C1517.34 1646.75 1516.52 1644 1515.67 1641.21C1514.3 1636.72 1512.97 1632.23 1511.64 1627.74C1508.01 1615.54 1504.37 1602.95 1500.81 1590.92C1485.36 1537.2 1469.43 1481.65 1447.43 1441.87C1419.07 1390.57 1380.03 1369.09 1342.27 1348.26C1322.95 1337.68 1302.99 1326.68 1284.71 1311.84C1228.03 1266.41 1180.74 1184.52 1147.92 1074.98C1143.32 1059.39 1138.83 1042.47 1139.67 1019.77C1140.37 999.578 1145.25 976.77 1153.8 953.715C1161.91 932.427 1171.32 913.715 1181.66 898.337C1214.82 848.263 1248.4 826.172 1283.99 802.739C1309.65 786.044 1336.34 768.371 1362.62 739.259C1369.13 732.087 1375.69 724.166 1382.07 716.482C1395.49 699.232 1409.38 684.55 1423.58 672.622C1439.37 660.945 1455.49 655.343 1471.19 656.073C1506.69 657.14 1539.88 678.898 1567.62 719.28C1594.69 758.879 1617.07 811.455 1633.53 874.066C1662.33 981.984 1678.8 1111.51 1694.74 1236.82L1697.1 1255.08C1714.44 1390.77 1732.78 1520.8 1767.57 1621.78C1768.71 1625.11 1769.89 1628.43 1771.02 1631.72C1777.4 1649.71 1783.96 1668.33 1787.27 1691.95C1789.19 1708.53 1789.22 1726.6 1787.35 1744.68C1785.61 1764.77 1781.77 1784.47 1776.17 1802.1C1774.48 1807.12 1772.59 1811.81 1770.52 1816.08V1816.08Z" stroke="#D8DDDB"/>
<path d="M1135.6 923.633C1121.57 952.97 1110.12 988.589 1108.96 1023.5C1108.11 1049.17 1113.17 1068.29 1118.4 1085.65C1155.32 1205.89 1208.2 1295.09 1271.33 1343.59C1291.66 1359.49 1313.7 1371.02 1335.1 1382.44C1376.85 1404.51 1420.02 1427.32 1451.55 1482.44C1475.71 1524.75 1493.34 1583.87 1510.47 1641.17C1514.17 1653.66 1517.85 1666.1 1521.51 1678.5L1526.34 1694.07L1528.7 1701.59C1551.08 1773.68 1585.69 1814.08 1610.78 1835.25C1638.96 1859.02 1667.05 1864.96 1696.78 1871.24L1700.45 1872C1717.41 1874.91 1733.86 1882 1749.52 1893.15C1753.32 1896.62 1756.85 1901.17 1760.03 1906.69C1766.04 1916.24 1772.28 1926.17 1779.15 1925.42C1785.01 1924.88 1790.97 1920.9 1796.45 1913.88C1801.93 1906.85 1806.74 1897.03 1810.4 1885.36C1823.44 1846.35 1827.01 1790.63 1822.86 1761.33C1819.03 1734.92 1811.6 1714.34 1804.42 1694.47L1800.61 1683.86C1761.8 1573.74 1741.3 1431.53 1722.12 1283.38L1718.9 1258.39C1701.36 1122.51 1683.2 981.98 1651.73 865.168C1611.06 714.467 1548.37 629.588 1475.32 625.921C1458.22 624.584 1440.61 630.282 1423.33 642.746C1407.96 654.148 1392.51 672.673 1377.59 690.577C1370.55 699.027 1363.26 707.765 1356.09 715.574C1327.18 747.313 1297.8 766.048 1269.38 784.16C1231.94 808.308 1193.05 832.909 1156.25 887.722C1148.98 898.367 1142.07 910.392 1135.6 923.633V923.633ZM1802.77 1896.84C1799.51 1903.71 1795.77 1909.26 1791.78 1913.17C1787.79 1917.07 1783.63 1919.25 1779.54 1919.57C1773.45 1920.24 1767.53 1910.81 1761.8 1901.66C1758.51 1895.81 1754.85 1890.97 1750.9 1887.24C1735.1 1876.02 1718.5 1868.85 1701.4 1865.83L1697.73 1865.08C1668.13 1858.82 1640.15 1852.96 1612.28 1829.33C1587.53 1808.22 1553.19 1768.49 1531.13 1697.37L1528.77 1689.84C1527.15 1684.64 1525.55 1679.48 1523.96 1674.23C1520.2 1662.04 1516.48 1649.64 1512.8 1637.22C1495.59 1579.63 1477.82 1520.03 1453.48 1477.48C1421.62 1421.74 1378.22 1398.79 1336.24 1376.65C1314.95 1365.39 1292.91 1353.77 1272.7 1337.95C1209.97 1289.77 1157.42 1201.17 1120.71 1081.75C1115.67 1065.07 1110.82 1046.75 1111.61 1022.66C1113.26 973.817 1137.28 921.583 1157.38 891.71C1193.76 837.464 1230.61 813.945 1269.65 789.022C1298.18 770.81 1327.66 752.109 1356.86 719.991C1364.06 712.136 1371.37 703.352 1378.44 694.898C1393.27 677.136 1408.61 658.752 1423.71 647.508C1440.72 635.334 1458.04 629.828 1474.85 631.252C1547.19 634.685 1609.27 718.972 1649.56 868.316C1680.95 984.83 1699.07 1125.06 1716.59 1260.68L1719.8 1285.67C1739.1 1434.42 1759.66 1577.06 1798.71 1687.77C1800.06 1691.12 1801.22 1694.89 1802.51 1698.46C1809.57 1718.04 1816.84 1738.11 1820.59 1763.83C1824.58 1791.84 1821.09 1845.24 1808.65 1882.53C1806.88 1887.67 1804.91 1892.46 1802.77 1896.84V1896.84Z" stroke="#D8DDDB"/>
<path d="M1109.46 920.207C1105.43 928.562 1101.63 937.457 1098.09 946.825C1087.69 974.523 1081.77 1001.98 1080.99 1026.29C1080.09 1053.44 1085.6 1073.79 1091.4 1092.14C1132.1 1222.35 1190.17 1318.39 1259.27 1369.8C1281.52 1386.64 1305.67 1398.95 1329.02 1410.91C1374.99 1434.39 1422.51 1458.62 1457.5 1518.19C1483.92 1563.49 1503.53 1626.52 1522.43 1687.79C1526.18 1699.97 1530.06 1712.58 1533.95 1724.8C1535.83 1730.76 1537.77 1736.85 1539.64 1742.68L1541.76 1749.23C1552.78 1782.99 1566.06 1812.46 1581.24 1836.84C1595.61 1860.11 1611.18 1879.83 1627.75 1895.75C1659.42 1926.07 1692.58 1937.02 1723.78 1945.64C1741.92 1950.41 1760.82 1957.07 1777.77 1970.52C1781.97 1974.66 1785.86 1979.97 1789.36 1986.35C1795.82 1996.91 1802.48 2007.79 1809.66 2007.18C1815.87 2006.78 1822.21 2002.69 1828.05 1995.3C1833.88 1987.92 1839.01 1977.52 1842.9 1965.13C1856.91 1923.4 1860.65 1863.91 1856.12 1832.77C1851.94 1804.48 1843.82 1782.31 1835.91 1760.94C1834.46 1757.34 1833.06 1753.29 1831.7 1749.42C1812.07 1694.95 1795.01 1628.6 1779.85 1545.91C1765.94 1471.43 1754.78 1390.02 1744.71 1313.4L1740.73 1281.9C1721.62 1135.62 1701.81 984.3 1667.68 858.812C1657.93 822.739 1646.6 789.254 1633.82 758.747C1621.04 728.247 1606.66 701.294 1590.92 678.295C1558.77 630.371 1520.29 603.567 1478.99 600.311C1460.76 598.425 1441.94 604.115 1423.46 617.107C1406.87 629.201 1390.14 649.168 1373.93 668.513C1366.19 677.734 1358.18 687.288 1350.31 695.868C1318.53 730.433 1286.27 750.469 1255.03 769.919C1234.56 782.631 1213.39 795.808 1192.84 812.849C1171.76 829.796 1151.3 852.563 1131.97 880.57C1124.02 892.285 1116.48 905.562 1109.46 920.207ZM1836.37 1980.95C1832.65 1988.82 1828.38 1995.16 1823.81 1999.58C1819.24 2003.99 1814.47 2006.4 1809.8 2006.65C1802.71 2007.24 1796.15 1996.53 1789.66 1985.89C1786.14 1979.46 1782.23 1974.12 1777.99 1969.97C1761.05 1956.52 1742.02 1950.05 1723.99 1945.05C1692.76 1936.48 1659.66 1925.56 1628.03 1895.24C1611.47 1879.33 1595.9 1859.62 1581.54 1836.38C1566.35 1812 1553.07 1782.54 1542.06 1748.76L1539.94 1742.21C1538.06 1736.38 1536.13 1730.29 1534.25 1724.33C1530.36 1712.12 1526.48 1699.51 1522.73 1687.32C1503.88 1626.18 1484.39 1562.44 1457.74 1517.69C1422.68 1458.12 1375.16 1433.72 1329.2 1410.24C1305.84 1398.28 1281.66 1385.88 1259.46 1369.17C1190.41 1317.89 1132.37 1222.07 1091.64 1092.11C1085.94 1073.71 1080.52 1053.49 1081.3 1026.47C1082.08 1002.34 1087.97 975.017 1098.32 947.5C1108.15 922.018 1119.56 899.716 1132.07 881.52C1151.37 853.562 1171.81 830.827 1192.86 813.895C1213.4 796.854 1234.58 783.676 1255.05 770.965C1286.29 751.514 1318.57 731.433 1350.35 696.868C1358.21 688.158 1366.34 678.898 1374 669.467C1390.18 650.168 1406.82 630.385 1423.5 618.107C1441.94 605.135 1460.71 599.464 1478.89 601.369C1520.11 604.552 1558.53 631.161 1590.68 678.8C1606.41 701.836 1620.77 728.803 1633.56 759.298C1646.32 789.784 1657.64 823.224 1667.4 859.233C1701.53 984.809 1721.28 1136 1740.4 1282.19C1741.77 1292.79 1743.18 1303.39 1744.56 1313.94C1754.63 1390.65 1765.87 1471.87 1779.69 1546.54C1794.98 1629.04 1811.95 1695.66 1831.6 1750.17C1832.96 1754.04 1834.4 1757.91 1835.81 1761.7C1843.67 1783.02 1851.8 1805.15 1855.98 1833.31C1860.45 1864.41 1856.74 1923.59 1842.78 1965.15C1840.86 1970.81 1838.71 1976.11 1836.37 1980.95Z" stroke="#D8DDDB"/>
<path d="M1082.34 915.575C1078.11 924.388 1074.1 933.74 1070.35 943.566C1059.07 973.494 1052.66 1003.23 1051.81 1029.5C1050.89 1058.89 1056.87 1080.8 1063.15 1100.85C1107.83 1241.27 1171.3 1344.28 1246.61 1398.61C1270.81 1416.37 1297.06 1429.39 1322.42 1441.98C1372.5 1466.82 1424.27 1492.53 1462.69 1556.07C1491.47 1603.71 1512.83 1670.97 1533.5 1736.02C1537.37 1748.2 1541.35 1760.75 1545.37 1773.09C1547.52 1779.72 1549.73 1786.39 1551.86 1792.85L1553.8 1798.76C1565.69 1834.41 1579.69 1865.98 1595.53 1892.82C1610.6 1918.53 1626.91 1940.79 1644.25 1959.32C1679.21 1996.67 1715.75 2012.17 1746.83 2022.59C1765.76 2028.81 1787.23 2035.9 1805.53 2051C1810.11 2055.61 1814.34 2061.52 1818.12 2068.61C1825.13 2080.33 1832.38 2092.46 1840.22 2092.01C1846.97 2091.72 1853.87 2087.39 1860.22 2079.45C1866.58 2071.51 1872.17 2060.25 1876.41 2046.82C1891.63 2001.55 1895.6 1937.11 1890.66 1903.65C1886.06 1873.13 1877.15 1849.3 1868.49 1826.26C1866.91 1822.37 1865.4 1818.03 1863.88 1813.86C1842.4 1755.13 1823.81 1683.31 1807.08 1594.32C1791.87 1513.42 1779.52 1425.94 1768.62 1343.07C1766.9 1330.33 1765.21 1317.55 1763.54 1304.74C1742.82 1147.98 1721.44 985.862 1684.53 851.188C1663.73 773.459 1635.82 707.847 1602.27 657.748C1567.88 606.404 1526.81 577.355 1482.69 573.173C1463.22 570.709 1443.09 576.417 1423.28 590.018C1405.36 602.817 1387.25 624.366 1369.73 645.199C1361.28 655.148 1352.6 665.557 1344.02 674.819C1309.5 712.112 1274.49 733.347 1240.44 754.177C1218.26 767.676 1195.34 781.643 1173.07 799.822C1150.21 817.884 1128.01 842.284 1107.02 872.397C1098.3 885.123 1090.03 899.589 1082.34 915.575V915.575ZM1462.78 1555.8C1424.35 1492.22 1372.53 1466.51 1322.44 1441.63C1297.08 1429.04 1270.85 1416.07 1246.63 1398.26C1171.39 1343.98 1107.99 1241.09 1063.35 1100.83C1057.12 1080.91 1051.11 1059.04 1052.05 1029.79C1052.88 1003.68 1059.25 974.13 1070.5 944.337C1081.21 916.772 1093.62 892.683 1107.21 873.075C1128.16 842.993 1150.34 818.638 1173.16 800.643C1195.41 782.422 1218.35 768.496 1240.53 754.997C1274.49 734.263 1309.61 712.886 1344.13 675.594C1352.75 666.327 1361.44 655.961 1369.88 645.969C1387.33 624.969 1405.46 603.679 1423.37 590.838C1443.14 577.225 1463.24 571.505 1482.68 573.959C1526.73 578.251 1567.73 607.351 1602.04 658.688C1635.56 708.757 1663.44 774.311 1684.24 851.961C1721.06 986.425 1742.46 1148.49 1763.16 1305.22L1768.23 1343.59C1779.21 1426.28 1791.49 1513.98 1806.71 1594.92C1823.4 1683.79 1842.05 1755.78 1863.55 1814.55C1865.24 1818.74 1866.63 1822.88 1868.16 1826.95C1876.79 1849.9 1885.69 1873.74 1890.35 1904.3C1895.3 1937.79 1891.31 2001.76 1876.14 2046.84C1871.93 2060.2 1866.38 2071.39 1860.07 2079.28C1853.75 2087.17 1846.9 2091.47 1840.2 2091.75C1832.53 2092.32 1825.27 2080.18 1818.3 2068.55C1814.5 2061.42 1810.25 2055.47 1805.66 2050.81C1787.36 2035.63 1765.85 2028.63 1746.9 2022.37C1715.77 2012.12 1679.28 1996.62 1644.36 1959.18C1627.05 1940.65 1610.76 1918.43 1595.7 1892.76C1579.88 1865.95 1565.89 1834.4 1554.02 1798.78L1552.07 1792.87C1549.95 1786.41 1547.72 1779.7 1545.58 1773.11C1541.6 1760.86 1537.62 1748.3 1533.71 1736.05C1513.04 1670.99 1491.66 1603.69 1462.85 1555.97L1462.78 1555.8Z" stroke="#D8DDDB"/>
<path d="M1054.7 909.076C1037.36 945.345 1022.88 989.831 1021.44 1032.76C1020.44 1065.17 1027.1 1089.06 1033.97 1110.75C1082.7 1261.94 1151.72 1372.34 1233.45 1429.82C1259.69 1448.6 1288.01 1462.32 1315.43 1475.61C1369.49 1501.79 1425.42 1528.87 1467.07 1596.18C1498.07 1646.29 1521.24 1717.42 1543.65 1786.19C1547.67 1798.52 1551.68 1810.86 1555.67 1822.93C1558.49 1831.43 1561.33 1839.87 1564.21 1848.24L1564.82 1849.75C1587.87 1918.1 1620.78 1978.63 1659.9 2024.76C1690.71 2060.89 1724.61 2084.6 1769.41 2101.38L1775.65 2103.8C1795.12 2111.05 1815.25 2118.54 1832.7 2133.34C1837.53 2138.38 1841.99 2144.76 1845.98 2152.36C1853.67 2165.45 1861.64 2178.95 1870.44 2178.57C1877.91 2178.47 1885.59 2173.83 1892.67 2165.11C1899.75 2156.38 1905.97 2143.91 1910.69 2128.99C1927.38 2079.47 1931.72 2009.31 1926.22 1972.77C1921.15 1939.68 1911.38 1914.01 1901.96 1889.22C1900.27 1885.03 1898.47 1880.59 1896.94 1875.9C1845.43 1737.18 1817.62 1550.45 1793.56 1371.07C1791.55 1356.14 1789.56 1341.2 1787.59 1326.24C1765.28 1158.72 1742.23 985.562 1702.65 841.864C1652.07 658.262 1575.48 552.113 1487.04 542.956C1466.2 539.93 1444.62 545.729 1423.37 560.065C1403.98 573.757 1384.48 596.889 1365.54 619.092C1356.43 629.849 1347.02 641.032 1337.83 650.794C1300.69 690.713 1262.81 713.291 1226.12 735.308C1178.35 763.879 1128.96 793.358 1082 861.438C1072.35 875.423 1063.2 891.387 1054.7 909.076V909.076ZM1901.66 2144.23C1897.37 2153.36 1892.42 2160.66 1887.13 2165.67C1881.83 2170.67 1876.32 2173.26 1870.94 2173.28C1862.95 2173.57 1855.26 2160.66 1847.84 2148.02C1843.67 2140.11 1839.02 2133.48 1833.98 2128.27C1816.32 2113.28 1796.1 2105.75 1776.54 2098.47L1770.27 2096.1C1725.75 2079.29 1692.14 2055.81 1661.37 2019.9C1622.55 1973.99 1589.84 1914.23 1566.85 1846.27L1566.24 1844.76C1563.4 1836.32 1560.56 1827.87 1557.73 1819.4C1553.69 1807.2 1549.69 1794.91 1545.69 1782.7C1523.21 1713.68 1499.92 1642.26 1468.71 1591.73C1426.72 1523.85 1370.58 1496.66 1316.28 1470.42C1288.92 1457.16 1260.73 1443.26 1234.53 1424.78C1153.29 1367.52 1084.69 1257.7 1036.25 1107.37C1029.58 1086.36 1023.14 1063.32 1024.03 1032.36C1025.96 969.871 1057.07 903.595 1082.95 866.186C1129.59 798.532 1178.61 769.44 1226.28 741.011C1263.06 719.027 1301.06 696.35 1338.43 656.189C1347.77 646.194 1357.18 635.011 1366.31 624.207C1385.08 601.979 1404.47 578.988 1423.6 565.454C1444.56 551.318 1465.84 545.565 1486.4 548.479C1574.14 557.62 1650.18 662.909 1700.36 845.33C1739.82 988.516 1762.83 1161.38 1785.09 1328.59L1791.06 1373.42C1815.16 1553.28 1843.08 1740.48 1894.84 1879.83C1896.54 1884.02 1898.1 1888.48 1899.86 1893.15C1909.2 1917.64 1918.83 1942.97 1923.76 1975.29C1929.09 2010.54 1924.91 2078.37 1908.78 2126.17C1906.65 2132.62 1904.27 2138.67 1901.66 2144.23V2144.23Z" stroke="#D8DDDB"/>
<path d="M1028.14 906.217C1023.48 915.933 1019.06 926.231 1014.91 937.042C1001.81 971.478 994.401 1005.68 993.483 1035.98C992.477 1069.87 999.552 1094.99 1006.88 1117.81C1032.62 1197.53 1063.93 1266.69 1099.89 1323.28C1136.51 1380.81 1177.34 1425.53 1221.27 1456.21C1249.47 1475.84 1279.73 1490.54 1309.24 1504.31C1338.76 1518.09 1368.54 1532.4 1396.41 1551.93C1427.66 1573.77 1452.69 1600.01 1472.96 1632.11C1506.48 1684.93 1531.49 1760.33 1555.73 1833.09C1559.74 1845.12 1563.89 1857.57 1567.93 1869.47C1571.22 1879.21 1574.49 1888.7 1577.61 1897.72C1591.19 1937.04 1606.63 1972.72 1623.74 2004.3C1640.24 2034.88 1657.99 2062.18 1676.82 2085.97C1710.46 2128.17 1747.26 2156.65 1792.69 2175.6C1796.53 2177.17 1800.46 2178.77 1804.26 2180.26C1823.57 2187.92 1843.49 2196 1860.87 2211.11C1866.17 2216.75 1871.06 2223.87 1875.44 2232.31C1883.55 2246.27 1891.97 2260.86 1901.03 2260.54C1908.83 2260.54 1916.85 2255.78 1924.26 2246.76C1931.66 2237.74 1938.19 2224.78 1943.14 2209.24C1951.64 2182.83 1957.41 2153.19 1959.92 2122.96C1962.71 2095.92 1962.52 2068.9 1959.38 2044.35C1953.96 2009.29 1943.48 1982.08 1933.34 1955.8C1931.51 1951.27 1929.61 1946.58 1927.92 1941.6C1871.98 1793.21 1842.05 1593.21 1816.08 1401.32C1813.77 1384.27 1811.43 1366.87 1809.18 1350.08C1785.32 1172.11 1760.65 988.119 1718.5 835.867C1694.78 748.156 1663.25 673.861 1625.44 616.646C1586.65 558.027 1540.36 524.142 1490.52 517.888C1468.54 514.274 1445.73 520.006 1423.24 534.801C1402.66 549.139 1381.86 573.759 1361.7 597.57C1351.91 609.14 1341.77 621.14 1331.8 631.768C1291.81 674.468 1251.05 698.433 1211.63 721.605C1185.98 736.551 1159.56 752.188 1133.83 772.643C1107.48 792.852 1081.85 820.441 1057.59 854.69C1047.16 869.781 1037.29 887.052 1028.14 906.217V906.217ZM1935.19 2228.26C1930.42 2238.32 1924.93 2246.35 1919.05 2251.83C1913.18 2257.31 1907.07 2260.11 1901.12 2260.05C1892.17 2260.36 1883.79 2245.95 1875.69 2231.94C1871.29 2223.46 1866.37 2216.32 1861.05 2210.65C1843.65 2195.5 1823.69 2187.52 1804.4 2179.81C1800.58 2178.28 1796.67 2176.72 1792.86 2175.1C1747.44 2156.2 1710.64 2127.72 1677.04 2085.51C1658.21 2061.78 1640.48 2034.5 1623.99 2003.92C1606.9 1972.37 1591.46 1936.72 1577.89 1897.43C1574.79 1888.45 1571.51 1878.92 1568.21 1869.18C1564.09 1857.07 1559.95 1844.62 1556.02 1832.8C1531.71 1759.87 1506.68 1684.74 1473.2 1631.69C1452.91 1599.55 1427.86 1573.27 1396.58 1551.43C1368.78 1532.2 1338.64 1517.88 1309.39 1503.86C1280.13 1489.85 1249.58 1475.52 1221.43 1455.72C1177.51 1425.02 1136.69 1380.3 1100.07 1322.74C1064.15 1266.11 1032.88 1196.91 1007.18 1117.16C999.877 1094.39 992.813 1069.4 993.848 1035.68C994.756 1005.55 1002.24 971.74 1015.12 937.064C1027.54 905.331 1041.95 877.68 1057.71 855.289C1081.97 821.036 1107.6 793.447 1133.95 773.242C1159.68 752.787 1186.13 737.234 1211.73 722.162C1251.08 699.215 1291.95 675.021 1331.98 632.317C1341.95 621.688 1352.09 609.689 1361.88 598.119C1382 574.312 1402.8 549.692 1423.36 535.399C1445.83 520.617 1468.62 514.93 1490.57 518.625C1540.36 524.877 1586.62 558.703 1625.39 617.219C1663.15 674.422 1694.66 748.674 1718.35 836.318C1760.56 988.696 1785.21 1172.65 1809.06 1350.48C1811.31 1367.28 1813.65 1384.67 1815.96 1401.72C1841.92 1593.7 1871.96 1793.56 1927.83 1942.18C1929.7 1946.79 1931.46 1951.75 1933.27 1956.42C1943.39 1982.66 1953.85 2009.83 1959.28 2044.8C1962.38 2069.32 1962.56 2096.26 1959.79 2123.24C1957.21 2153.24 1951.44 2182.64 1942.97 2208.82C1940.63 2215.76 1938.03 2222.28 1935.19 2228.26V2228.26Z" stroke="#D8DDDB"/>
<path d="M1000.4 899.947C980.81 940.899 964.615 990.844 963.207 1039.57C961.998 1076.67 969.722 1103.29 977.764 1128.09C1032.87 1297.35 1112.6 1421.46 1208.14 1487.38C1238.3 1508.16 1270.8 1523.28 1302.29 1538.03C1364.57 1566.99 1429 1596.95 1477.42 1672.29C1513.12 1727.91 1540.01 1807.04 1566.06 1883.5C1570.2 1895.65 1574.31 1907.8 1578.47 1919.81C1581.88 1929.7 1585.32 1939.55 1588.8 1949.35C1617.61 2030.28 1652.62 2098.57 1692.61 2151.88C1729.84 2201.16 1771.24 2235.96 1815.39 2255.07C1820.63 2257.42 1825.92 2259.71 1831.26 2261.95C1850.7 2269.95 1870.67 2278.55 1888.1 2294C1893.7 2300.08 1898.85 2307.69 1903.48 2316.69C1912.28 2332.16 1921.39 2348.07 1931.44 2347.87C1949.31 2347.47 1965.23 2328.11 1977.51 2291.93C1996.63 2235.48 2001.47 2155.67 1995.01 2114.12C1989.09 2076.44 1977.77 2047.44 1966.84 2019.41C1964.84 2014.46 1962.84 2009.52 1961.01 2004.29C1901.02 1846.5 1868.86 1634.07 1841.06 1429.92C1838.43 1410.72 1835.83 1391.49 1833.25 1372.23C1807.73 1183.34 1781.34 988.177 1736.46 826.776C1679.23 621.202 1593.39 500.9 1494.7 487.951C1468 484.541 1445.29 490.018 1423.17 505.257C1401.04 520.496 1378.88 546.652 1357.36 572.001C1346.91 584.338 1336.1 597.104 1325.46 608.369C1282.93 653.512 1239.3 678.907 1197.2 703.271C1142.6 734.901 1086.12 767.596 1032.36 844.496C1021.05 860.711 1010.34 879.298 1000.4 899.947ZM1478.15 1669.69L1478.98 1667.33C1430.21 1591.41 1365.59 1561.38 1303.1 1532.32C1271.71 1517.73 1239.25 1502.69 1209.18 1481.95C1114.03 1416.38 1034.72 1292.61 979.886 1124.12C972.139 1100.25 964.645 1074 965.666 1038.84C967.821 967.203 1003.49 891.859 1033.37 849.106C1086.75 772.77 1143.02 740.14 1197.38 708.622C1239.6 684.158 1283.28 658.889 1326.16 613.316C1336.85 601.96 1347.71 589.144 1358.19 576.761C1379.57 551.558 1401.67 525.452 1423.45 510.466C1445.23 495.481 1467.81 489.886 1494.1 493.47C1592.09 506.315 1677.34 625.937 1734.23 830.192C1779.08 991.203 1805.25 1186.22 1830.75 1374.36C1833.36 1393.65 1835.97 1412.89 1838.58 1432.1C1866.48 1636.71 1898.7 1849.57 1958.92 2008.04C1960.91 2012.94 1962.8 2018.12 1964.77 2023.2C1975.58 2050.94 1986.77 2079.61 1992.55 2116.47C1998.8 2156.68 1994.08 2234 1975.54 2288.77C1970.37 2304.91 1963.57 2318.35 1955.86 2327.68C1948.14 2337.01 1939.79 2341.88 1931.69 2341.77C1922.42 2341.99 1913.59 2326.57 1905.08 2311.64C1900.31 2302.37 1894.98 2294.54 1889.2 2288.3C1871.57 2272.65 1851.44 2264.16 1831.99 2255.94C1826.66 2253.7 1821.35 2251.49 1816.11 2249.15C1772.2 2230.14 1731.02 2195.53 1694 2146.5C1654.19 2093.46 1619.33 2025.5 1590.63 1944.97C1587.19 1935.15 1583.75 1925.34 1580.35 1915.43C1576.18 1903.41 1572.06 1891.31 1568 1879.37C1541.87 1802.52 1514.88 1723.14 1478.93 1667.21L1478.15 1669.69Z" stroke="#D8DDDB"/>
<path d="M974.024 897.155C953.558 939.944 936.742 991.961 935.25 1042.49C934.122 1080.89 942.252 1109.21 950.688 1134.89C980.221 1224.57 1016.03 1302.18 1057.08 1365.44C1099.03 1430.03 1145.72 1479.91 1195.9 1513.74C1227.98 1535.45 1262.55 1551.28 1295.96 1566.58C1329.38 1581.87 1363.56 1597.65 1395.49 1618.99C1431.2 1643.17 1459.88 1672.22 1483.2 1707.93C1521.38 1766.39 1550.22 1849.64 1578.13 1930.19C1582.22 1941.99 1586.45 1954.26 1590.59 1966.01C1594.28 1976.55 1597.96 1986.95 1601.52 1996.84C1632 2081.68 1668.39 2154.44 1709.66 2213.08C1748.49 2267.97 1792.05 2307.16 1838.75 2329.19C1845.26 2332.37 1851.96 2335.3 1858.52 2337.99C1878.23 2346.66 1898.67 2355.51 1916.41 2371.63C1922.48 2378.29 1928.06 2386.62 1933.06 2396.46C1942.27 2412.84 1951.81 2429.72 1962.15 2429.62C1980.76 2429.36 1997.4 2409.36 2010.16 2371.69C2019.78 2341.93 2026.32 2308.49 2029.18 2274.39C2032.25 2240.51 2031.97 2208.15 2028.42 2185.64C2022.17 2146.03 2010.17 2115.53 1998.48 2085.82C1996.39 2080.67 1994.23 2075.3 1992.24 2069.79C1927.89 1902.23 1893.5 1676.67 1863.82 1460.06L1855.08 1395.96C1828.06 1196.84 1800.13 990.958 1752.53 820.626C1723.96 718.402 1689.09 636.164 1648.66 575.669C1605.46 509.825 1553.95 471.151 1498.42 462.859C1470.31 458.895 1446.4 464.496 1423.39 480.044C1400.38 495.593 1376.61 523.704 1353.81 550.406C1342.66 563.513 1331.11 577.141 1319.75 589.135C1274.33 637.152 1227.88 663.796 1182.98 689.452C1153.96 706.056 1123.95 723.152 1094.75 745.929C1064.83 768.451 1035.71 799.379 1008.14 837.904C996.054 855.2 984.618 875.064 974.024 897.155ZM1483.38 1707.87L1483.49 1707.64C1460.15 1671.97 1431.43 1642.84 1395.72 1618.66C1363.86 1597.09 1329.46 1581.38 1296.2 1566.16C1262.93 1550.94 1228.2 1535.08 1196.16 1513.36C1145.96 1479.52 1099.25 1429.61 1057.3 1364.98C1016.19 1301.69 980.332 1223.98 950.789 1134.14C942.37 1108.5 934.252 1080.31 935.387 1042.13C937.699 965.365 976.04 884.201 1008.05 838.698C1035.61 800.199 1064.71 769.288 1094.6 746.774C1123.79 724.043 1153.9 706.716 1182.95 689.979C1227.88 664.277 1274.29 637.766 1319.79 589.524C1331.13 577.489 1342.67 563.948 1353.83 550.753C1376.6 523.968 1400.13 496.274 1423.36 480.483C1446.6 464.693 1470.21 459.342 1498.23 463.185C1553.72 471.446 1605.2 510.079 1648.38 575.873C1688.69 636.162 1723.61 718.526 1752.18 820.75C1799.74 990.998 1827.63 1196.66 1854.72 1395.95C1857.54 1416.96 1860.5 1438.7 1863.44 1460.01C1893.07 1676.5 1927.54 1902.26 1991.9 2069.95C1994.02 2075.19 1996.08 2080.79 1998.14 2085.99C2009.83 2115.69 2021.79 2146.07 2028.02 2185.55C2031.56 2207.93 2031.81 2240.2 2028.74 2274C2025.9 2307.99 2019.39 2341.33 2009.8 2370.98C1997.08 2408.48 1980.57 2428.38 1962.03 2428.62C1951.81 2428.71 1942.29 2411.88 1933.11 2395.58C1928.09 2385.72 1922.49 2377.38 1916.41 2370.72C1898.61 2354.47 1878.2 2345.57 1858.51 2337.07C1852.02 2334.25 1845.28 2331.32 1838.75 2328.28C1792.08 2306.22 1748.55 2267.05 1709.75 2212.19C1668.56 2153.72 1632.24 2081.14 1601.83 1996.51C1598.26 1986.57 1594.59 1976.21 1590.9 1965.68C1586.69 1953.76 1582.48 1941.53 1578.44 1929.85C1550.46 1849.13 1521.68 1766.01 1483.47 1707.51L1483.38 1707.87Z" stroke="#D8DDDB"/>
<path d="M946.765 892.277C925.179 937.407 907.49 992.176 905.954 1045.5C904.779 1086.09 913.419 1115.98 922.409 1143.12C953.898 1238.05 992.05 1320.09 1035.75 1386.84C1080.35 1454.82 1129.96 1507.19 1183.24 1542.54C1217.25 1565.24 1253.91 1581.73 1289.35 1597.73C1324.79 1613.73 1361.16 1630.11 1395.01 1652.7C1432.93 1677.91 1463.46 1708.52 1488.33 1745.86C1528.92 1807.08 1559.68 1894.37 1589.4 1978.8C1593.53 1990.51 1597.77 2002.6 1601.97 2014.39C1605.94 2025.51 1609.81 2036.29 1613.52 2046.47C1629.73 2091.15 1647.36 2132.99 1666.32 2171.74C1684.91 2209.84 1704.82 2244.72 1725.92 2276.14C1766.44 2336.86 1812.26 2380.64 1861.63 2405.81C1869.18 2409.66 1877.02 2413.22 1884.62 2416.59C1904.85 2425.73 1925.76 2435.15 1943.97 2452C1950.39 2459.14 1956.31 2468.05 1961.6 2478.57C1971.39 2496.07 1981.53 2514.23 1992.56 2514.37C2012.35 2514.3 2029.97 2493.23 2043.53 2453.29C2053.71 2421.82 2060.63 2386.43 2063.66 2350.34C2066.9 2314.48 2066.59 2280.24 2062.81 2256.44C2056.12 2214.66 2043.33 2182.4 2030.93 2151.16C2028.73 2145.71 2026.44 2140.05 2024.16 2134.39C1955.58 1957.18 1919 1718.79 1887.44 1489.8C1884.08 1465.35 1880.67 1440.39 1877.39 1416.23C1863.19 1311.97 1848.43 1204.31 1831.49 1102.28C1812.24 987.838 1791.97 893.404 1769.45 813.563C1739.46 706.116 1702.69 619.184 1660.26 555.534C1614.82 486.144 1560.72 445.052 1502.35 435.611C1472.67 431.153 1447.58 436.657 1423.41 452.936C1399.23 469.215 1373.9 498.754 1349.81 527.072C1337.97 540.992 1325.74 555.345 1313.7 568.063C1265.42 619.037 1216.25 646.659 1168.63 673.599C1137.92 690.944 1106.12 708.923 1075.12 732.976C1043.43 756.577 1012.57 789.14 983.343 829.803C970.397 847.961 958.133 868.907 946.765 892.277V892.277ZM2034.02 2475.58C2028.21 2487.78 2021.5 2497.46 2014.35 2503.98C2007.19 2510.49 1999.76 2513.67 1992.55 2513.32C1981.7 2513.34 1971.59 2495.26 1961.92 2477.66C1956.61 2467.11 1950.68 2458.15 1944.24 2450.97C1926 2434.12 1905.14 2424.43 1884.84 2415.61C1877.26 2412.2 1869.41 2408.64 1861.86 2404.79C1812.52 2379.72 1766.72 2336.05 1726.21 2275.46C1705.13 2244.01 1685.24 2209.13 1666.65 2171.05C1647.7 2132.33 1630.08 2090.51 1613.88 2045.86C1610.17 2035.68 1606.28 2024.86 1602.32 2013.75C1598.11 2001.96 1593.86 1989.82 1589.75 1978.15C1559.94 1893.52 1529.25 1806.39 1488.65 1745.18C1463.8 1707.66 1433.26 1677.14 1395.3 1651.79C1361.45 1629.21 1324.93 1612.75 1289.6 1596.83C1254.26 1580.9 1217.55 1564.38 1183.52 1541.64C1130.24 1506.31 1080.64 1453.93 1036.05 1385.9C992.374 1319.18 954.239 1237.18 922.766 1142.3C913.826 1115.28 905.181 1085.48 906.364 1045.11C908.755 963.235 949.389 877.82 983.526 829.653C1012.72 789.048 1043.56 756.518 1075.22 732.922C1106.1 709.057 1137.89 691.077 1168.6 673.733C1216.27 646.789 1265.52 618.983 1313.76 568.101C1325.82 555.425 1338.07 541.026 1349.88 527.152C1373.95 498.879 1398.85 469.561 1423.4 453.024C1447.96 436.487 1472.61 431.291 1502.27 435.794C1560.6 445.115 1614.69 486.14 1660.09 555.508C1702.5 619.117 1739.2 705.881 1769.21 813.37C1791.73 893.211 1812.02 987.599 1831.24 1101.96C1848.24 1204.15 1863.05 1311.72 1877.13 1415.91C1880.4 1440.02 1883.83 1465.03 1887.2 1489.52C1918.78 1718.56 1955.34 1956.99 2023.93 2134.24C2026.19 2139.81 2028.46 2145.43 2030.71 2151C2043.09 2182.21 2055.87 2214.42 2062.53 2256.17C2066.31 2279.83 2066.6 2313.94 2063.36 2349.72C2060.37 2385.7 2053.48 2420.99 2043.31 2452.36C2040.53 2460.66 2037.41 2468.44 2034.02 2475.58Z" stroke="#D8DDDB"/>
<path d="M919.679 887.727C896.995 935.153 878.434 992.675 876.821 1048.72C875.592 1091.58 884.782 1123.03 894.149 1151.7C927.605 1251.73 968.106 1338.06 1014.46 1408.15C1061.7 1479.54 1114.2 1534.42 1170.55 1571.31C1206.54 1594.98 1245.28 1612.21 1282.7 1628.88C1320.12 1645.55 1358.8 1662.75 1394.57 1686.27C1434.72 1712.7 1467.08 1744.64 1493.45 1783.88C1536.44 1847.82 1569.09 1939.2 1600.65 2027.58C1604.79 2039.12 1609.06 2051.07 1613.36 2062.9C1617.65 2074.72 1621.63 2085.67 1625.53 2096.31C1659.28 2189.12 1698.47 2270.85 1742.32 2339.85C1784.52 2406.2 1832.61 2454.38 1884.64 2482.46C1893.15 2487.09 1902.05 2491.15 1910.64 2495.15C1931.44 2504.71 1953.03 2514.81 1971.7 2532.23C1978.49 2539.86 1984.72 2549.36 1990.29 2560.57C2000.65 2579.28 2011.37 2598.65 2022.95 2598.64C2043.86 2598.84 2062.62 2576.49 2076.83 2534.65C2087.61 2501.43 2094.93 2464.06 2098.12 2425.94C2101.5 2387.92 2101.2 2351.9 2097.18 2326.82C2090.1 2282.76 2076.49 2248.8 2063.36 2215.92C2061.04 2210.18 2058.62 2204.19 2056.24 2198.32C1983.43 2011.63 1944.69 1760.38 1911.29 1519.13C1907.65 1492.79 1903.98 1465.97 1900.44 1439.97C1885.43 1330.28 1869.91 1216.85 1851.91 1109.48C1831.61 989.122 1810.2 889.784 1786.38 805.624C1754.73 692.761 1716.1 601.742 1671.77 534.794C1624.11 461.778 1567.37 418.334 1506.14 407.982C1474.9 402.986 1448.55 408.488 1423.28 425.36C1397.35 442.694 1371.06 473.508 1345.67 503.314C1333.17 518 1320.25 533.253 1307.46 546.616C1256.52 600.133 1204.47 629.231 1154.09 657.371C1121.66 675.502 1088.02 694.414 1055.48 719.279C1022.02 743.991 989.418 778.202 958.55 821.002C944.771 840.351 931.735 862.728 919.679 887.727V887.727ZM1493.45 1783.4L1493.56 1783.17C1467.18 1743.98 1434.83 1711.99 1394.63 1685.52C1358.79 1661.92 1320.14 1644.72 1282.78 1628.09C1245.42 1611.45 1206.58 1594.06 1170.63 1570.51C1114.34 1533.72 1061.88 1478.95 1014.68 1407.69C968.417 1337.6 927.993 1251.32 894.592 1151.4C885.12 1122.86 875.947 1091.46 877.11 1048.73C878.201 1010.64 887.577 967.682 904.263 924.365C920.096 884.197 938.461 849.307 958.557 821.219C989.357 778.535 1021.87 744.365 1055.25 719.609C1087.89 694.602 1121.43 675.832 1153.87 657.742C1204.28 629.686 1256.33 600.458 1307.29 546.896C1320.04 533.537 1332.98 518.325 1345.52 503.635C1370.89 473.787 1397.15 443.019 1423.07 425.731C1448.3 408.863 1474.65 402.968 1505.8 408.365C1567.08 418.677 1623.85 462.152 1671.51 535.258C1715.89 602.113 1754.44 693.14 1786.12 806.088C1809.87 890.08 1831.28 989.417 1851.56 1109.74C1869.63 1216.97 1885.15 1330.4 1900.09 1440.22C1903.64 1466.14 1907.31 1492.96 1910.95 1519.3C1944.4 1760.67 1983.14 2012.01 2056.01 2198.74C2058.38 2204.6 2060.79 2210.55 2063.13 2216.34C2076.33 2248.99 2089.83 2283.09 2096.89 2327.11C2100.9 2352.06 2101.25 2387.99 2097.78 2425.8C2094.6 2463.81 2087.31 2501.07 2076.56 2534.19C2062.3 2576.08 2043.77 2598.11 2022.97 2597.89C2011.45 2597.85 2000.77 2578.57 1990.45 2559.94C1984.86 2548.7 1978.6 2539.15 1971.8 2531.47C1953.02 2513.89 1931.5 2503.97 1910.68 2494.36C1902.09 2490.45 1893.21 2486.34 1884.68 2481.76C1832.68 2453.69 1784.63 2405.52 1742.45 2339.18C1698.63 2270.28 1659.48 2188.63 1625.76 2095.89C1621.88 2085.29 1617.73 2074.02 1613.59 2062.48C1609.45 2050.95 1605.1 2038.87 1600.89 2027.16C1569.19 1938.75 1536.66 1847.37 1493.63 1783.34L1493.45 1783.4Z" stroke="#D8DDDB"/>
<path d="M892.714 882.771C886.958 894.733 881.488 907.382 876.338 920.643C858.743 966.323 848.821 1011.74 847.687 1051.93C846.411 1096.98 856.128 1130.03 866.226 1160.12C901.553 1265.24 944.295 1355.9 993.189 1429.41C1043.06 1504.25 1098.46 1561.67 1157.88 1600.11C1195.85 1624.75 1236.62 1642.7 1276.09 1660.03C1315.55 1677.36 1356.27 1695.27 1394.08 1719.93C1436.43 1747.4 1470.64 1780.9 1498.55 1821.86C1543.95 1888.65 1578.52 1984.06 1611.95 2076.36C1616.1 2087.72 1620.35 2099.55 1624.59 2111.12C1628.82 2122.69 1633.28 2134.71 1637.4 2145.73C1676.15 2249.57 1716.92 2336.17 1758.52 2402.97C1805.36 2478.12 1854.09 2529.08 1907.44 2558.91C1916.91 2564.18 1926.78 2568.84 1936.34 2573.36C1957.77 2583.46 1979.94 2593.89 1999.21 2612.08C2006.36 2620.24 2012.94 2630.36 2018.82 2642.23C2029.73 2662.11 2040.99 2682.65 2053.25 2682.78C2075.3 2683.09 2094.99 2659.85 2110.1 2615.52C2121.43 2580.6 2129.12 2541.32 2132.46 2501.25C2136.05 2461.33 2135.69 2423.35 2131.42 2397.07C2123.95 2350.82 2109.57 2315.07 2095.68 2280.61C2093.22 2274.53 2090.59 2268.04 2088.17 2262.04C2011.13 2065.8 1970.22 1801.66 1934.9 1547.96C1930.98 1519.81 1927.03 1491.1 1923.22 1463.34C1907.42 1348.19 1891.01 1229.04 1872.1 1116.44C1850.73 990.123 1828.2 885.882 1803.24 797.692C1769.95 679.495 1729.56 584.118 1683.18 514.019C1633.34 437.339 1573.99 391.483 1509.91 380.135C1477.01 374.524 1449.42 380.066 1423.15 397.566C1395.88 415.516 1368.25 447.909 1341.51 479.294C1328.33 494.793 1314.69 510.775 1301.24 524.817C1247.56 581.06 1192.66 611.454 1139.56 640.79C1105.41 659.754 1070.06 679.365 1035.74 705.418C1000.52 731.298 966.193 767.137 933.672 811.99C919.138 832.513 905.401 856.253 892.714 882.771V882.771ZM2099.96 2640.35C2093.45 2654.09 2085.91 2664.96 2077.87 2672.21C2069.83 2679.46 2061.47 2682.91 2053.39 2682.33C2041.21 2682.28 2029.97 2661.69 2019.11 2641.85C2013.22 2629.96 2006.63 2619.84 1999.46 2611.7C1980.13 2593.35 1957.96 2582.92 1936.57 2573.03C1927.05 2568.51 1917.16 2563.89 1907.71 2558.58C1854.35 2528.83 1805.7 2477.96 1758.86 2402.8C1717.23 2335.84 1676.5 2249.22 1637.76 2145.51C1633.65 2134.54 1629.33 2122.85 1624.95 2110.9C1620.56 2098.96 1616.47 2087.55 1612.31 2076.15C1578.92 1983.54 1544.41 1888.17 1498.85 1821.61C1470.95 1780.56 1436.75 1747.19 1394.33 1719.55C1356.52 1694.89 1315.75 1677.04 1276.32 1659.7C1236.89 1642.36 1195.98 1624.17 1158.04 1599.39C1098.58 1560.99 1043.16 1503.57 993.268 1428.71C944.41 1355.27 901.689 1264.73 866.363 1159.75C856.332 1129.83 846.632 1096.82 847.898 1051.95C849.022 1011.94 858.98 966.909 876.485 921.108C893.222 878.937 912.606 842.336 933.795 812.894C966.292 767.961 1000.6 732.048 1035.81 706.109C1070.16 679.922 1105.47 660.403 1139.62 641.527C1192.63 612.287 1247.63 581.751 1301.34 525.461C1314.79 511.332 1328.43 495.35 1341.63 479.893C1368.35 448.554 1395.96 416.119 1423.21 398.214C1449.44 380.719 1476.99 375.181 1509.85 380.795C1573.9 392.127 1633.22 437.942 1683.04 514.558C1729.36 584.619 1769.75 679.997 1803.02 798.151C1827.98 886.253 1850.5 990.54 1871.87 1116.77C1890.9 1229.27 1907.23 1348.34 1922.97 1463.63C1926.78 1491.39 1930.73 1520.1 1934.63 1548.29C1969.97 1802.04 2010.89 2066.21 2087.97 2262.54C2090.46 2268.71 2093.05 2275.12 2095.48 2281.11C2109.37 2315.48 2123.76 2351.06 2131.19 2397.4C2135.42 2423.59 2135.79 2461.4 2132.21 2501.23C2128.87 2541.21 2121.2 2580.4 2109.9 2615.23C2106.91 2624.18 2103.58 2632.6 2099.96 2640.35V2640.35Z" stroke="#D8DDDB"/>
<path d="M865.661 878C859.687 890.428 854.008 903.565 848.66 917.333C830.122 965.292 819.725 1012.94 818.558 1055.05C817.34 1102.15 827.413 1137.08 838.076 1168.47C875.292 1278.63 920.291 1373.56 971.742 1450.43C1024.3 1528.9 1082.67 1588.98 1145.27 1629.04C1185.2 1654.44 1227.99 1673.27 1269.47 1691.18C1310.96 1709.09 1353.78 1728 1393.58 1753.68C1438.24 1782.44 1474.24 1817.07 1503.74 1859.74C1551.75 1929.89 1588.47 2029.92 1623.87 2126.77C1627.78 2137.46 1631.9 2148.65 1635.86 2159.33C1640.45 2171.69 1644.96 2183.84 1649.29 2195.27C1692.12 2308.6 1733.18 2397.32 1774.83 2466.46C1824.15 2548.35 1874.96 2603.85 1930.39 2635.61C1940.72 2641.62 1951.53 2646.79 1962.02 2651.78C1984.11 2662.43 2006.98 2673.4 2027.01 2692.25C2033.61 2698.55 2040.4 2711.04 2047.58 2724.18C2059.07 2745.18 2070.94 2766.92 2083.8 2767.17C2107.04 2767.7 2127.71 2743.36 2143.62 2696.63C2155.54 2660.03 2163.6 2618.79 2167.08 2576.75C2170.84 2534.85 2170.49 2494.98 2165.96 2467.56C2158.02 2418.96 2142.88 2381.62 2128.2 2345.41C2125.63 2339.04 2122.95 2332.42 2120.32 2325.92C2083.79 2233.46 2052.26 2119.71 2023.92 1978.35C1997.69 1847.56 1977.12 1708.28 1958.89 1577.01C1954.81 1546.87 1950.58 1516.36 1946.45 1487.01C1929.83 1366.45 1912.64 1241.75 1892.75 1123.7C1870.31 991.428 1846.66 882.238 1820.49 789.851C1785.55 666.367 1743.32 566.639 1695 493.335C1642.95 413.034 1581 364.755 1514.07 352.337C1479.64 346.272 1450.84 351.808 1423.39 369.908C1394.81 388.605 1365.81 422.623 1337.75 455.453C1323.97 471.493 1309.54 488.517 1295.4 503.242C1238.98 562.254 1181.26 593.898 1125.53 624.334C1089.68 643.997 1052.56 664.356 1016.49 691.594C979.498 718.584 943.441 756.071 909.274 803.06C893.788 824.703 879.157 849.844 865.661 878V878ZM2132.93 2722.7C2126.07 2737.14 2118.13 2748.56 2109.67 2756.17C2101.2 2763.77 2092.41 2767.37 2083.9 2766.72C2071.12 2766.46 2059.28 2744.81 2047.83 2723.81C2040.64 2710.62 2033.84 2698.14 2027.2 2691.83C2007.28 2672.62 1984.36 2661.75 1962.18 2651.29C1951.71 2646.25 1940.91 2641.07 1930.56 2635.11C1875.27 2603.12 1824.38 2547.72 1775.11 2466.04C1733.44 2396.86 1692.4 2308.18 1649.57 2194.85C1645.22 2183.38 1640.7 2171.32 1636.13 2158.91C1632.11 2148.06 1628.07 2137.08 1624.13 2126.31C1588.61 2029.56 1551.84 1929.4 1503.99 1859.28C1474.55 1816.51 1438.44 1781.94 1393.79 1753.18C1353.96 1727.46 1311.05 1708.91 1269.64 1690.68C1228.23 1672.46 1185.39 1653.9 1145.47 1628.23C1082.91 1588.24 1024.58 1528.25 972.045 1449.88C920.605 1373.06 875.615 1278.19 838.407 1168.08C827.822 1136.69 817.612 1102.12 818.925 1055.06C820.087 1013.03 830.474 965.562 848.946 917.74C866.497 873.524 886.825 835.156 909.048 804.306C943.227 757.335 979.291 719.834 1016.29 692.793C1052.38 665.51 1089.46 645.155 1125.31 625.492C1181.15 594.914 1238.89 563.224 1295.32 504.254C1309.54 489.304 1323.83 472.643 1337.69 456.419C1365.74 423.547 1394.73 389.617 1423.28 370.924C1450.67 352.874 1479.45 347.295 1513.84 353.365C1580.72 365.769 1642.64 414.023 1694.66 494.287C1742.96 567.549 1785.17 667.236 1820.08 790.635C1846.24 882.892 1869.9 992.125 1892.33 1124.36C1912.32 1242.26 1929.56 1366.78 1946.04 1487.71C1950.1 1517.28 1954.2 1547.98 1958.48 1577.71C1976.78 1708.75 1997.35 1848.12 2023.51 1979.05C2051.96 2120.66 2083.47 2234.28 2119.91 2326.62C2122.54 2333.11 2125.22 2339.74 2127.8 2346.11C2142.4 2382.23 2157.52 2419.62 2165.55 2468.25C2170.02 2495.64 2170.44 2535.37 2166.69 2577.09C2163.2 2619.03 2155.15 2660.14 2143.27 2696.67C2140.17 2705.96 2136.7 2714.68 2132.93 2722.7V2722.7Z" stroke="#D8DDDB"/>
<path d="M838.606 873.228C832.414 886.122 826.527 899.747 820.98 914.022C801.539 964.257 790.627 1014.14 789.407 1058.22C787.98 1107.61 798.802 1144 809.958 1176.9C849.101 1292.11 896.389 1391.32 950.422 1471.57C1005.6 1553.49 1066.86 1616.09 1132.53 1657.67C1174.4 1684.36 1219.35 1703.71 1262.82 1722.42C1306.29 1741.13 1351.25 1760.74 1393.13 1787.25C1440.01 1817.18 1477.84 1853.32 1508.79 1897.9C1559.08 1970.17 1597.5 2073.78 1634.67 2173.94C1638.8 2185.04 1643.03 2196.53 1647.23 2207.71C1681.3 2298.89 1727.41 2416.03 1780.96 2511.97C1835.98 2610.48 1892.4 2676.05 1953.39 2712.43C1964.58 2719.05 1976.31 2724.83 1987.66 2730.34C2010.49 2741.4 2034.08 2752.94 2054.67 2772.78C2061.49 2779.63 2068.7 2792.55 2076.33 2806.31C2088.37 2828.47 2100.81 2851.42 2114.3 2851.82C2138.8 2852.27 2160.43 2826.91 2177.11 2777.96C2189.57 2739.62 2198.01 2696.47 2201.66 2652.47C2205.58 2608.63 2205.15 2566.99 2200.43 2538.27C2192.05 2487.49 2176.21 2448.3 2160.89 2410.41C2158.18 2403.7 2155.36 2396.75 2152.62 2389.96C2114.18 2293.29 2081.03 2174.34 2051.21 2026.32C2023.58 1889.34 2001.99 1743.53 1982.74 1606.43C1978.28 1574.67 1973.81 1542.26 1969.47 1510.88C1952.04 1384.9 1934.02 1254.53 1913.06 1131.35C1889.57 993.071 1864.77 879.022 1837.37 782.484C1782.93 590.724 1683.29 355.722 1517.89 325.097C1481.97 318.443 1451.87 323.894 1423.3 342.721C1393.39 362.253 1363.03 397.72 1333.74 431.9C1319.19 448.936 1304.13 466.505 1289.21 482.138C1230.09 543.873 1169.47 576.863 1110.98 608.587C1073.42 629.036 1034.58 650.14 996.708 678.653C957.95 706.731 920.159 745.837 884.345 794.927C868.11 817.529 852.766 843.797 838.606 873.228V873.228ZM2165.9 2804.96C2158.7 2820.18 2150.34 2832.19 2141.42 2840.14C2132.51 2848.09 2123.25 2851.78 2114.31 2850.94C2100.89 2850.62 2088.45 2827.67 2076.47 2805.55C2068.93 2791.61 2061.8 2778.51 2054.77 2771.94C2034.17 2752.06 2010.57 2740.6 1987.75 2729.46C1976.4 2723.95 1964.66 2718.26 1953.48 2711.55C1892.51 2675.21 1836.14 2609.67 1781.14 2511.21C1727.58 2415.36 1681.55 2298.3 1647.44 2207.03C1643.23 2195.81 1638.99 2184.33 1634.88 2173.27C1597.71 2073.11 1559.26 1969.41 1508.95 1897.1C1477.96 1852.52 1440.2 1816.55 1393.24 1786.41C1351.43 1759.67 1306.43 1740.29 1262.88 1721.58C1219.34 1702.88 1174.52 1683.43 1132.64 1656.83C1066.96 1615.32 1005.68 1552.81 950.474 1471C896.49 1390.82 849.242 1291.72 810.129 1176.62C799.072 1143.66 788.423 1107.3 789.718 1058.19C790.912 1014.24 801.796 964.493 821.188 914.437C839.643 868.035 861.029 827.825 884.405 795.576C920.224 746.573 958.01 707.528 996.758 679.478C1034.57 651.015 1073.43 629.865 1110.97 609.461C1169.54 577.641 1230.12 544.655 1289.3 482.958C1304.11 467.467 1319.17 449.898 1333.81 432.678C1363.17 398.361 1393.53 362.893 1423.37 343.499C1451.96 324.802 1481.96 319.23 1517.84 325.888C1683.05 356.444 1782.57 591.153 1837.06 783.039C1864.47 879.489 1889.23 993.63 1912.73 1131.82C1933.68 1255 1951.71 1385.28 1969.16 1511.3C1973.48 1542.64 1977.97 1575.09 1982.42 1606.85C2001.65 1744 2023.27 1889.76 2050.9 2026.74C2080.74 2174.8 2113.9 2293.8 2152.35 2390.51C2155.1 2397.3 2157.91 2404.26 2160.62 2410.96C2175.88 2448.68 2191.89 2487.68 2200.23 2538.37C2204.97 2567.13 2205.37 2608.61 2201.44 2652.32C2197.82 2696.21 2189.4 2739.27 2176.97 2777.5C2173.63 2787.3 2169.93 2796.5 2165.9 2804.96Z" stroke="#D8DDDB"/>
</g>
</g>
</svg>
