<svg width="40" height="40" viewBox="0 0 40 40" fill="none" xmlns="http://www.w3.org/2000/svg">
<g id="Line Duotone / Electronic, Devices / Lightbulb Bolt">
<path id="Vector" d="M7.5 15.8334C7.5 8.92981 13.0964 3.33337 20 3.33337C26.9036 3.33337 32.5 8.92981 32.5 15.8334C32.5 19.5345 30.8915 22.8599 28.3354 25.1486C26.4676 26.8211 25.5336 27.6575 25.282 27.968C24.4706 28.9692 24.4348 29.0493 24.2301 30.3216C24.1667 30.7162 24.1667 31.3108 24.1667 32.5C24.1667 34.0577 24.1667 34.8366 23.8317 35.4167C23.6123 35.7968 23.2967 36.1123 22.9167 36.3318C22.3365 36.6667 21.5577 36.6667 20 36.6667C18.4423 36.6667 17.6635 36.6667 17.0833 36.3318C16.7033 36.1123 16.3877 35.7968 16.1683 35.4167C15.8333 34.8366 15.8333 34.0577 15.8333 32.5C15.8333 31.3108 15.8333 30.7162 15.7699 30.3216C15.5652 29.0493 15.5294 28.9692 14.718 27.968C14.4664 27.6575 13.5324 26.8211 11.6646 25.1486C9.10851 22.8599 7.5 19.5345 7.5 15.8334Z" stroke="white" stroke-width="3"/>
<path id="Vector_2" d="M24.1666 32.5H15.8333" stroke="white" stroke-width="3"/>
<path id="Vector_3" d="M21.3093 14.1666L17.7379 19.1666H22.7379L19.1664 24.1666" stroke="white" stroke-width="3" stroke-linecap="round" stroke-linejoin="round"/>
</g>
</svg>
