<svg width="40" height="40" viewBox="0 0 40 40" fill="none" xmlns="http://www.w3.org/2000/svg">
<g id="Line Duotone / Security / Shield Network">
<path id="Vector" d="M5 17.3611C5 12.0318 5 9.36717 5.62919 8.47072C6.25839 7.57427 8.76387 6.71664 13.7749 5.00136L14.7295 4.67457C17.3416 3.78044 18.6477 3.33337 20 3.33337C21.3523 3.33337 22.6584 3.78044 25.2705 4.67457L26.2251 5.00136C31.2361 6.71664 33.7416 7.57427 34.3708 8.47072C35 9.36717 35 12.0318 35 17.3611C35 18.1661 35 19.0391 35 19.9856C35 29.3824 27.9351 33.9425 23.5024 35.8788C22.3 36.4041 21.6988 36.6667 20 36.6667C18.3012 36.6667 17.7 36.4041 16.4976 35.8788C12.0649 33.9425 5 29.3824 5 19.9856C5 19.0391 5 18.1661 5 17.3611Z" stroke="white" stroke-width="3"/>
<path id="Vector_2" d="M28.3333 20C28.3333 21.0943 28.1178 22.1779 27.699 23.189C27.2802 24.2 26.6664 25.1187 25.8926 25.8925C25.1187 26.6663 24.2001 27.2802 23.189 27.699C22.178 28.1177 21.0944 28.3333 20 28.3333C18.9057 28.3333 17.822 28.1177 16.811 27.699C15.7999 27.2802 14.8813 26.6663 14.1074 25.8925C13.3336 25.1187 12.7198 24.2 12.301 23.189C11.8822 22.1779 11.6667 21.0943 11.6667 20C11.6667 18.9056 11.8822 17.822 12.301 16.8109C12.7198 15.7999 13.3336 14.8812 14.1074 14.1074C14.8813 13.3336 15.7999 12.7198 16.811 12.301C17.822 11.8822 18.9057 11.6666 20 11.6666C21.0944 11.6666 22.178 11.8822 23.189 12.301C24.2001 12.7198 25.1187 13.3336 25.8926 14.1074C26.6664 14.8812 27.2802 15.7999 27.699 16.8109C28.1178 17.822 28.3333 18.9056 28.3333 20L28.3333 20Z" stroke="white" stroke-width="3"/>
<path id="Vector_3" d="M23.0796 23.189C23.2471 22.1779 23.3333 21.0943 23.3333 20C23.3333 18.9056 23.2471 17.822 23.0796 16.8109C22.9121 15.7999 22.6666 14.8812 22.357 14.1074C22.0475 13.3336 21.68 12.7198 21.2756 12.301C20.8712 11.8822 20.4377 11.6666 20 11.6666C19.5623 11.6666 19.1288 11.8822 18.7244 12.301C18.32 12.7198 17.9525 13.3336 17.643 14.1074C17.3335 14.8812 17.0879 15.7999 16.9204 16.8109C16.7529 17.822 16.6667 18.9056 16.6667 20C16.6667 21.0943 16.7529 22.1779 16.9204 23.189C17.0879 24.2 17.3335 25.1187 17.643 25.8925C17.9525 26.6663 18.32 27.2802 18.7244 27.699C19.1288 28.1177 19.5623 28.3333 20 28.3333C20.4377 28.3333 20.8712 28.1177 21.2756 27.699C21.68 27.2802 22.0475 26.6663 22.357 25.8925C22.6666 25.1187 22.9121 24.2 23.0796 23.189Z" stroke="white" stroke-width="3"/>
<path id="Vector_4" d="M11.6667 20H28.3333" stroke="white" stroke-width="3" stroke-linecap="round"/>
</g>
</svg>
