<svg width="155" height="52" viewBox="0 0 155 52" fill="none" xmlns="http://www.w3.org/2000/svg">
<rect x="3" y="3" width="149" height="46" rx="23" fill="url(#paint0_linear_1_146)"/>
<rect x="1.5" y="1.5" width="152" height="49" rx="24.5" stroke="#110227" stroke-opacity="0.5" stroke-width="3"/>
<path d="M43.068 32H40.296V19.652H46.254C46.926 19.652 47.544 19.814 48.108 20.138C48.684 20.45 49.14 20.888 49.476 21.452C49.812 22.016 49.98 22.646 49.98 23.342V23.45C49.98 24.134 49.812 24.77 49.476 25.358C49.152 25.934 48.702 26.39 48.126 26.726C47.562 27.062 46.938 27.23 46.254 27.23H43.068V32ZM43.068 25.052H45.606C46.062 25.052 46.44 24.902 46.74 24.602C47.04 24.29 47.19 23.93 47.19 23.522V23.414C47.19 22.994 47.04 22.634 46.74 22.334C46.452 22.022 46.074 21.866 45.606 21.866H43.068V25.052ZM51.5083 32V19.04H54.1363V32H51.5083ZM62.1697 25.79C62.1697 25.382 62.0377 25.052 61.7737 24.8C61.5217 24.548 61.1077 24.422 60.5317 24.422C60.1957 24.422 59.9077 24.482 59.6677 24.602C59.4277 24.71 59.2417 24.848 59.1097 25.016C58.9897 25.184 58.9297 25.34 58.9297 25.484V25.628H56.3917C56.3677 25.484 56.3557 25.376 56.3557 25.304C56.3557 24.788 56.5237 24.326 56.8597 23.918C57.2077 23.51 57.6877 23.192 58.2997 22.964C58.9117 22.736 59.6137 22.622 60.4057 22.622H60.7837C62.0797 22.622 63.0637 22.88 63.7357 23.396C64.4077 23.9 64.7437 24.596 64.7437 25.484V29.732C64.7437 29.948 64.7917 30.11 64.8877 30.218C64.9957 30.326 65.1217 30.38 65.2657 30.38C65.3857 30.38 65.5177 30.356 65.6617 30.308C65.8057 30.26 65.9197 30.218 66.0037 30.182V31.802C65.5597 32.054 65.0317 32.18 64.4197 32.18C63.7597 32.18 63.2557 32.048 62.9077 31.784C62.5597 31.508 62.3557 31.124 62.2957 30.632C61.4557 31.664 60.4237 32.18 59.1997 32.18C58.2877 32.18 57.5377 31.994 56.9497 31.622C56.3617 31.25 56.0677 30.542 56.0677 29.498C56.0677 28.646 56.3077 27.998 56.7877 27.554C57.2797 27.098 57.9577 26.792 58.8217 26.636C59.6857 26.48 60.8017 26.402 62.1697 26.402V25.79ZM62.1697 27.878C61.0297 27.878 60.1777 27.992 59.6137 28.22C59.0617 28.436 58.7857 28.796 58.7857 29.3C58.7857 29.696 58.8937 29.978 59.1097 30.146C59.3377 30.302 59.6797 30.38 60.1357 30.38C60.4477 30.38 60.7597 30.296 61.0717 30.128C61.3837 29.96 61.6417 29.72 61.8457 29.408C62.0617 29.096 62.1697 28.748 62.1697 28.364V27.878ZM72.3695 31.496C71.9255 32.696 71.3795 33.638 70.7315 34.322C70.0835 35.018 69.3035 35.366 68.3915 35.366C67.7555 35.366 67.2395 35.276 66.8435 35.096V33.242C66.9875 33.302 67.1735 33.356 67.4015 33.404C67.6295 33.464 67.8455 33.494 68.0495 33.494C68.8175 33.494 69.3635 32.936 69.6875 31.82L66.2135 22.802H69.0035L71.0375 28.58H71.1455L73.0535 22.802H75.6455L72.3695 31.496ZM83.1489 24.152C83.9049 23.132 84.8829 22.622 86.0829 22.622C87.0189 22.622 87.7869 22.874 88.3869 23.378C88.9989 23.882 89.3049 24.614 89.3049 25.574V32H86.6769V26.15C86.6769 25.682 86.5389 25.298 86.2629 24.998C85.9989 24.686 85.6569 24.53 85.2369 24.53C84.7689 24.53 84.3669 24.71 84.0309 25.07C83.6949 25.418 83.5269 25.844 83.5269 26.348V32H80.8989V22.802H82.8609L83.1489 24.152ZM100.513 27.662C100.513 28.586 100.315 29.39 99.9192 30.074C99.5352 30.758 99.0012 31.28 98.3172 31.64C97.6332 32 96.8652 32.18 96.0132 32.18H95.7252C94.8732 32.18 94.1052 32 93.4212 31.64C92.7372 31.28 92.1972 30.758 91.8012 30.074C91.4172 29.39 91.2252 28.586 91.2252 27.662V27.14C91.2252 26.216 91.4172 25.412 91.8012 24.728C92.1972 24.044 92.7372 23.522 93.4212 23.162C94.1052 22.802 94.8732 22.622 95.7252 22.622H96.0132C96.8652 22.622 97.6332 22.802 98.3172 23.162C99.0012 23.522 99.5352 24.044 99.9192 24.728C100.315 25.412 100.513 26.216 100.513 27.14V27.662ZM97.8492 26.672C97.8492 25.94 97.6632 25.382 97.2912 24.998C96.9312 24.614 96.4572 24.422 95.8692 24.422C95.2812 24.422 94.8012 24.614 94.4292 24.998C94.0692 25.382 93.8892 25.94 93.8892 26.672V28.13C93.8892 28.862 94.0692 29.42 94.4292 29.804C94.8012 30.188 95.2812 30.38 95.8692 30.38C96.4572 30.38 96.9312 30.188 97.2912 29.804C97.6632 29.42 97.8492 28.862 97.8492 28.13V26.672ZM108.605 26.87C107.957 29.15 107.465 30.86 107.129 32H104.195L101.387 22.802H104.105L105.689 28.49H105.797C106.109 27.386 106.349 26.558 106.517 26.006L107.435 22.802H110.063L111.665 28.49H111.773C112.493 25.97 113.027 24.074 113.375 22.802H115.931L113.123 32H110.225L108.713 26.87H108.605Z" fill="white"/>
<defs>
<linearGradient id="paint0_linear_1_146" x1="-91" y1="-14" x2="146" y2="42" gradientUnits="userSpaceOnUse">
<stop stop-color="#FF8100"/>
<stop offset="0.66198" stop-color="#E233F1"/>
<stop offset="1" stop-color="#8F00FF"/>
</linearGradient>
</defs>
</svg>
