<svg width="38" height="36" viewBox="0 0 38 36" fill="none" xmlns="http://www.w3.org/2000/svg">
<path id="Union" fill-rule="evenodd" clip-rule="evenodd" d="M19 3.75C21.0711 3.75 22.75 5.42893 22.75 7.5C22.75 9.57107 21.0711 11.25 19 11.25C16.9289 11.25 15.25 9.57107 15.25 7.5C15.25 5.42893 16.9289 3.75 19 3.75ZM25.75 7.5C25.75 3.77208 22.7279 0.75 19 0.75C15.2721 0.75 12.25 3.77208 12.25 7.5C12.25 11.2279 15.2721 14.25 19 14.25C22.7279 14.25 25.75 11.2279 25.75 7.5ZM7.625 24.75C9.69607 24.75 11.375 26.4289 11.375 28.5C11.375 30.5711 9.69607 32.25 7.625 32.25C5.55393 32.25 3.875 30.5711 3.875 28.5C3.875 26.4289 5.55393 24.75 7.625 24.75ZM14.375 28.5C14.375 24.7721 11.3529 21.75 7.625 21.75C3.89708 21.75 0.875 24.7721 0.875 28.5C0.875 32.2279 3.89708 35.25 7.625 35.25C11.3529 35.25 14.375 32.2279 14.375 28.5ZM34.125 28.5C34.125 26.4289 32.4461 24.75 30.375 24.75C28.3039 24.75 26.625 26.4289 26.625 28.5C26.625 30.5711 28.3039 32.25 30.375 32.25C32.4461 32.25 34.125 30.5711 34.125 28.5ZM30.375 21.75C34.1029 21.75 37.125 24.7721 37.125 28.5C37.125 32.2279 34.1029 35.25 30.375 35.25C26.6471 35.25 23.625 32.2279 23.625 28.5C23.625 24.7721 26.6471 21.75 30.375 21.75ZM10.7323 10.3746C11.3534 9.82642 11.4125 8.87851 10.8643 8.25741C10.3161 7.6363 9.36818 7.57719 8.74707 8.12539C5.53165 10.9634 3.5 15.1204 3.5 19.75C3.5 20.5785 4.17157 21.25 5 21.25C5.82843 21.25 6.5 20.5785 6.5 19.75C6.5 16.0168 8.13468 12.6673 10.7323 10.3746ZM29.2529 8.12539C28.6318 7.57719 27.6839 7.6363 27.1357 8.25741C26.5875 8.87851 26.6466 9.82642 27.2677 10.3746C29.8653 12.6673 31.5 16.0168 31.5 19.75C31.5 20.5785 32.1716 21.25 33 21.25C33.8284 21.25 34.5 20.5785 34.5 19.75C34.5 15.1204 32.4684 10.9634 29.2529 8.12539ZM15.8739 31.8563C15.0716 31.6498 14.2538 32.1328 14.0473 32.9351C13.8409 33.7374 14.3238 34.5551 15.1261 34.7616C16.3659 35.0807 17.6643 35.25 19 35.25C20.3357 35.25 21.6341 35.0807 22.8739 34.7616C23.6762 34.5551 24.1591 33.7374 23.9527 32.9351C23.7462 32.1328 22.9284 31.6498 22.1261 31.8563C21.1286 32.1131 20.0814 32.25 19 32.25C17.9186 32.25 16.8714 32.1131 15.8739 31.8563Z" fill="url(#paint0_linear_1_256)"/>
<defs>
<linearGradient id="paint0_linear_1_256" x1="19" y1="0.75" x2="19" y2="35.25" gradientUnits="userSpaceOnUse">
<stop stop-color="#FD7B44"/>
<stop offset="1" stop-color="#A314E8"/>
</linearGradient>
</defs>
</svg>
