<svg width="42" height="42" viewBox="0 0 42 42" fill="none" xmlns="http://www.w3.org/2000/svg">
<g id="Line Duotone / Security / Shield Check">
<path id="Vector" d="M5.25 18.2291C5.25 12.6334 5.25 9.83549 5.91065 8.89422C6.5713 7.95294 9.20207 7.05242 14.4636 5.25139L15.466 4.90825C18.2087 3.96942 19.5801 3.5 21 3.5C22.4199 3.5 23.7913 3.96942 26.534 4.90826L27.5364 5.25139C32.7979 7.05242 35.4287 7.95294 36.0893 8.89422C36.75 9.83549 36.75 12.6334 36.75 18.2291C36.75 19.0744 36.75 19.991 36.75 20.9849C36.75 30.8515 29.3318 35.6396 24.6775 37.6727C23.415 38.2242 22.7837 38.5 21 38.5C19.2163 38.5 18.585 38.2242 17.3225 37.6727C12.6682 35.6396 5.25 30.8515 5.25 20.9849C5.25 19.991 5.25 19.0744 5.25 18.2291Z" stroke="url(#paint0_linear_1_228)" stroke-width="3"/>
<path id="Vector_2" d="M16.625 21.7L19.125 24.5L25.375 17.5" stroke="url(#paint1_linear_1_228)" stroke-width="3" stroke-linecap="round" stroke-linejoin="round"/>
</g>
<defs>
<linearGradient id="paint0_linear_1_228" x1="21" y1="3.5" x2="21" y2="38.5" gradientUnits="userSpaceOnUse">
<stop stop-color="#FF7D3F"/>
<stop offset="1" stop-color="#9404FF"/>
</linearGradient>
<linearGradient id="paint1_linear_1_228" x1="21" y1="17.5" x2="21" y2="24.5" gradientUnits="userSpaceOnUse">
<stop stop-color="#FF7D3F"/>
<stop offset="1" stop-color="#9404FF"/>
</linearGradient>
</defs>
</svg>
